<?xml version="1.0" encoding="UTF-8"?>
<svg width="65px" height="266px" viewBox="0 0 65 266" version="1.1" xmlns="http://www.w3.org/2000/svg" xmlns:xlink="http://www.w3.org/1999/xlink">
    <!-- Generator: Sketch 52.5 (67469) - http://www.bohemiancoding.com/sketch -->
    <title>IN-AN</title>
    <desc>Created with Sketch.</desc>
    <defs>
        <filter x="-2.5%" y="-2.2%" width="105.1%" height="104.5%" filterUnits="objectBoundingBox" id="filter-1">
            <feOffset dx="4" dy="4" in="SourceAlpha" result="shadowOffsetOuter1"></feOffset>
            <feGaussianBlur stdDeviation="4" in="shadowOffsetOuter1" result="shadowBlurOuter1"></feGaussianBlur>
            <feColorMatrix values="0 0 0 0 0   0 0 0 0 0   0 0 0 0 0  0 0 0 0.5 0" type="matrix" in="shadowBlurOuter1" result="shadowMatrixOuter1"></feColorMatrix>
            <feMerge>
                <feMergeNode in="shadowMatrixOuter1"></feMergeNode>
                <feMergeNode in="SourceGraphic"></feMergeNode>
            </feMerge>
        </filter>
    </defs>
    <g id="views" stroke="none" stroke-width="1" fill="none" fill-rule="evenodd" opacity="0.2">
        <g id="Overall-2" transform="translate(-1267.000000, -796.000000)" fill="#FFFFFF">
            <g id="india" filter="url(#filter-1)" transform="translate(524.000000, 29.000000)">
                <path d="M794.891026,1007.90386 L794.830008,1008.59463 L795.972991,1009.04526 L796.12777,1012.68737 L798,1015.40449 L796.943336,1015.3704 L797.927075,1016.74305 L797.072814,1017.01876 L796.422445,1018.4092 L796.575736,1021.1782 L795.967038,1021.80523 L794.980322,1021.08334 L794.233216,1023 L793.547128,1022.68278 L793.880498,1021.08037 L792.978613,1020.61788 L792.798534,1018.7783 L791.588579,1017.69915 L791.691269,1016.55331 L790.089902,1014.9005 L789.128486,1015.16435 L788.948407,1012.27824 L789.491622,1011.87653 L788.896318,1011.47926 L789.848804,1009.46921 L791.328134,1009.55518 L792.167512,1008.71025 L793.474204,1009.11493 L793.611123,1008.11435 L794.891026,1007.90386 Z M790.685206,1001.58464 L792.017198,1004.18911 L788.670103,1007.83567 L787.821795,1005.79004 L788.176,1003.85559 L790.711994,1003.16482 L790.685206,1001.58464 Z M780.309062,983.506034 L781.231783,984.055981 L781.312149,985.461239 L781.865781,985.278911 L782.956675,986.455889 L782.852497,988.252484 L781.633613,987.165929 L779.573862,987.73663 L779.145243,986.804239 L779.625951,986.094198 L778.353489,986.344713 L778.648164,984.199768 L780.309062,983.506034 Z M785.520946,983.403752 L786.626723,984.536259 L786.463014,986.509253 L784.272296,984.752681 L785.059585,983.498622 L785.629589,984.393955 L785.520946,983.403752 Z M786.497244,980.376815 L786.930327,983.101355 L785.959982,980.602131 L786.497244,980.376815 Z M784.873553,977.074163 L785.459927,978.11773 L784.144306,979.662328 L785.553688,981.527111 L785.614706,983.151754 L785.001543,982.754488 L784.309503,983.222907 L784.074358,984.362826 L783.590674,982.892345 L784.224672,983.00945 L784.394334,982.148211 L784.611619,982.813781 L784.979219,981.826543 L783.583232,982.659618 L783.720152,981.426312 L782.787014,980.471685 L782.614375,978.870759 L784.873553,977.074163 Z M775.801124,976.005397 L775.930603,977.398796 L775.329346,976.644285 L775.801124,976.005397 Z M772.404917,973.193399 L772.939202,973.48542 L772.409382,975.668906 L774.848639,977.563335 L774.68493,978.239282 L772.314133,977.400278 L771.189009,975.886809 L771.422666,973.715182 L772.404917,973.193399 Z M769.837669,969.532021 L770.261823,970.597823 L769.568295,970.302837 L769.837669,969.532021 Z M787.661063,966.40725 L788.485558,969.681737 L787.994433,969.723243 L787.875372,971.144806 L787.661063,966.40725 Z M761.859111,945.48403 L762.99763,946.993052 L763.93821,946.588373 L763.036325,947.110156 L763.192592,948.77927 L761.912689,949.459664 L760.113383,949.226937 L759.77406,946.440139 L761.202789,946.388257 L761.427516,945.113445 L761.859111,945.48403 Z M753.386451,893.708882 L753.837394,894.725767 L753.887995,894.106149 L754.711002,894.786543 L754.774997,896.735819 L755.624793,897.183486 L755.907563,900.591384 L754.139511,902.648871 L755.056278,903.713191 L753.298644,905.819595 L750.857899,904.672264 L749.31755,905.176259 L750.415886,902.589577 L749.161283,900.933804 L749.030316,897.352472 L749.697057,898.015078 L751.548451,894.848801 L752.875978,893.928269 L753.219766,894.604215 L753.386451,893.708882 Z M757.299085,874.457742 L758.681678,876.771673 L757.546136,877.696653 L758.921288,878.320718 L758.839433,878.857325 L756.068295,879.617765 L755.42239,878.971465 L755.605446,877.908628 L756.723129,877.754464 L756.432918,875.588767 L757.299085,874.457742 Z M755.920957,873.466057 L755.498291,873.692855 L755.775107,872.342444 L755.920957,873.466057 Z M744.13692,871.87106 L745.751681,872.130469 L745.723404,874.067887 L744,873.849983 L744.13692,871.87106 Z M754.132069,871.525675 L755.057767,871.980753 L753.834417,873.073237 L754.132069,871.525675 Z M769.120329,863.967226 L770.720207,864.211812 L770.028167,864.947053 L768.962573,864.440093 L769.120329,863.967226 Z M767.521938,857.971164 L767.925256,857.659873 L768.764635,858.436618 L770.15318,862.083173 L769.800463,862.741332 L768.481865,860.600834 L767.67374,860.657163 L766.151251,859.164447 L767.380553,857.464204 L767.521938,857.971164 Z M768.135101,855.787678 L768.245232,857.656908 L767.282328,856.755646 L767.213868,855.686879 L768.135101,855.787678 Z M769.336126,854.081506 L769.88827,857.600579 L768.687245,856.641506 L768.696175,855.64982 L767.087366,854.54696 L768.002646,854.360185 L768.629203,855.211048 L769.336126,854.081506 Z M770.608588,852.367921 L771.431595,854.539548 L770.796108,856.393955 L769.629313,854.82564 L770.608588,852.367921 Z M759.15048,851.601552 L759.239775,853.816167 L760.68041,853.584922 L759.811267,856.622235 L761.728145,857.553144 L761.055451,858.384737 L760.34704,857.742884 L760.265186,858.530006 L761.266784,859.062166 L759.716018,860.24359 L759.881215,863.741911 L760.57772,861.170052 L761.756422,861.047018 L761.881435,862.143949 L760.859001,868.408315 L760.476519,868.077753 L760.3902,868.792241 L759.180245,868.257116 L759.378183,869.422235 L758.068515,869.933642 L758.300683,870.836387 L758.738232,870.351662 L758.952541,870.914951 L760.052365,869.766138 L759.790431,868.913793 L760.882813,869.570469 L759.473432,875.490932 L759.068625,874.554094 L757.467258,874.084192 L757.479164,872.501054 L756.563885,872.801969 L756.263257,871.00982 L757.130912,871.141749 L757.389869,870.489519 L756.996968,870.029994 L756.258792,870.545848 L755.636699,867.920625 L754.818157,868.65883 L754.335961,864.228118 L753.608202,864.530515 L753.313527,863.823439 L754.836016,860.719421 L755.595028,862.576792 L756.059365,862.274395 L756.138243,863.501772 L756.352552,863.089682 L756.745453,855.792125 L759.15048,851.601552 Z M760.266674,852.150017 L760.81733,852.130747 L760.637251,853.20989 L759.854426,853.077962 L760.266674,852.150017 Z M765.40861,850.962664 L765.774722,851.992889 L765.096075,851.654916 L764.948738,852.313075 L764.704663,851.417742 L765.40861,850.962664 Z M770.892845,850.769959 L771.17115,851.54967 L771.772407,850.824806 L771.610186,852.600649 L770.444879,851.804632 L770.892845,850.769959 Z M766.645353,850.175541 L766.044097,851.749786 L765.401169,849.941332 L766.188458,850.182953 L766.428067,849.235738 L766.645353,850.175541 Z M761.510859,849.244632 L763.412854,849.790133 L764.307298,849.391384 L765.021662,850.643961 L764.072153,851.279884 L764.746334,852.879328 L763.68967,852.7978 L763.820637,854.05927 L762.941076,853.816167 L762.307077,854.907169 L762.627053,855.658715 L761.137306,857.035808 L760.342575,856.044123 L761.301014,851.563011 L760.4408,851.288778 L760.692316,850.39641 L761.134329,850.712148 L761.668614,850.040649 L761.510859,849.244632 Z M794.630581,848.912588 L795.737846,849.945779 L795.907507,851.56894 L794.224286,851.309531 L793.855198,850.034719 L794.630581,848.912588 Z M767.081413,845.949392 L766.364072,847.692623 L765.959266,847.531048 L766.309007,845.936051 L767.081413,845.949392 Z M759.465991,832.858854 L759.677323,836.340869 L758.954029,833.854986 L759.465991,832.858854 Z M765.320803,830.113561 L766.038144,830.226219 L765.512788,831.090423 L766.227152,831.127481 L767.04123,833.554071 L766.419138,834.605049 L767.862749,836.629925 L767.163268,838.754117 L767.48622,843.361228 L766.355143,843.865223 L766.323889,844.335124 L767.160291,844.275831 L765.831275,845.033306 L765.805975,846.228072 L763.180686,845.537302 L765.191324,848.936306 L763.247657,849.489218 L761.351615,848.948164 L760.829236,849.707122 L759.759178,849.560371 L759.105832,848.669485 L759.355859,840.193468 L758.640007,839.840672 L759.253169,839.861424 L760.784588,837.860266 L759.998787,837.153191 L760.559861,836.225246 L759.867821,832.919629 L760.300904,833.450307 L762.604729,830.595321 L763.576563,831.363173 L764.51119,831.143787 L765.320803,830.113561 Z M758.989748,827.706242 L759.744295,828.13612 L759.794896,830.982212 L759.162386,832.474928 L758.357237,832.642432 L758.781391,833.247226 L758.131022,834.327852 L757.507441,831.841969 L758.174181,828.660869 L758.989748,827.706242 Z M768.679804,827.547632 L767.832984,828.494847 L767.937162,829.522108 L766.975747,829.330886 L767.218333,827.801112 L767.606769,828.425177 L768.679804,827.547632 Z M769.386727,809.285211 L769.871899,810.809056 L769.550435,813.664042 L769.880829,814.658691 L770.382372,814.113191 L770.677048,814.589021 L770.191875,815.346497 L771.291699,816.81253 L770.519292,817.853133 L769.490905,816.516063 L768.572649,816.259618 L768.044317,817.034881 L767.542774,816.041714 L766.929611,816.55905 L768.764635,817.316526 L768.858395,818.690654 L769.906129,818.52315 L769.895712,819.245049 L770.546081,818.822583 L769.473046,821.788743 L769.556388,824.888315 L768.591996,826.547053 L767.405854,826.34249 L767.681182,827.043636 L766.435509,825.522756 L765.862529,825.739178 L765.407122,826.761992 L766.55457,828.359954 L765.739003,829.142629 L765.57083,827.925628 L764.8014,827.998263 L763.933745,829.747423 L764.51119,831.145269 L763.576563,831.364655 L762.05705,830.159514 L762.055562,827.906358 L762.807133,827.870782 L763.019954,827.049566 L761.875482,826.871685 L762.134439,824.620012 L762.930658,824.400625 L762.549664,823.43414 L763.717947,823.045767 L762.540734,822.605512 L763.103296,819.959537 L763.935233,819.30879 L762.939588,818.674349 L763.554239,817.891673 L762.912799,817.644123 L763.466431,815.583671 L764.323669,815.242733 L763.579539,814.71502 L764.350458,814.71502 L764.86093,813.843405 L764.471007,812.521158 L766.2718,811.560602 L765.899735,810.460706 L767.371624,810.204262 L768.124683,810.731975 L768.090453,809.295588 L768.78547,810.282826 L769.386727,809.285211 Z M768.962573,806.025547 L769.336126,807.58645 L767.745177,806.695565 L768.962573,806.025547 Z M788.452817,767 L787.534561,769.136051 L787.565814,767.920533 L788.452817,767 Z" id="IN-AN"></path>
            </g>
        </g>
    </g>
</svg>