<?xml version="1.0" encoding="UTF-8"?>
<svg width="261px" height="223px" viewBox="0 0 261 223" version="1.1" xmlns="http://www.w3.org/2000/svg" xmlns:xlink="http://www.w3.org/1999/xlink">
    <!-- Generator: Sketch 52.5 (67469) - http://www.bohemiancoding.com/sketch -->
    <title>IN-AP</title>
    <desc>Created with Sketch.</desc>
    <defs>
        <filter x="-2.5%" y="-2.2%" width="105.1%" height="104.5%" filterUnits="objectBoundingBox" id="filter-1">
            <feOffset dx="4" dy="4" in="SourceAlpha" result="shadowOffsetOuter1"></feOffset>
            <feGaussianBlur stdDeviation="4" in="shadowOffsetOuter1" result="shadowBlurOuter1"></feGaussianBlur>
            <feColorMatrix values="0 0 0 0 0   0 0 0 0 0   0 0 0 0 0  0 0 0 0.5 0" type="matrix" in="shadowBlurOuter1" result="shadowMatrixOuter1"></feColorMatrix>
            <feMerge>
                <feMergeNode in="shadowMatrixOuter1"></feMergeNode>
                <feMergeNode in="SourceGraphic"></feMergeNode>
            </feMerge>
        </filter>
    </defs>
    <g id="views" stroke="none" stroke-width="1" fill="none" fill-rule="evenodd" opacity="0.2">
        <g id="Overall-2" transform="translate(-786.000000, -656.000000)" fill="#FFFFFF">
            <g id="india" filter="url(#filter-1)" transform="translate(524.000000, 29.000000)">
                <path d="M437.677928,708.134345 L437.10191,711.799153 L435.986894,710.211366 L435.963202,709.029792 L437.677928,708.134345 Z M436.712469,708.192164 L436.531816,707.268549 L436.129047,707.920861 L434.260322,708.064666 L434.174438,706.988352 L432.840268,707.84377 L435.412357,708.971973 L435.3783,710.500459 L436.050567,710.70653 L437.032314,712.914013 L425.708904,718.463113 L418.761155,721.195411 L413.199402,719.62245 L408.601626,720.166537 L404.649465,722.130886 L400.800957,730.567949 L400.947552,731.99414 L396.641488,736.555877 L396.237239,737.240805 L396.805853,738.521708 L395.402087,739.750724 L390.91537,740.355595 L389.633027,738.191105 L390.019507,737.045111 L390.571832,737.054006 L390.398583,736.200071 L386.723324,734.916202 L382.091491,735.808683 L378.792347,737.38461 L375.959643,739.252594 L373.799207,741.666149 L371.655059,748.282669 L368.511395,753.266926 L366.919573,760.688457 L368.986721,771.733286 L371.595829,776.312813 L369.451681,791.149947 L373.015882,800.746347 L372.758229,806.452594 L375.202972,812.989058 L370.734024,804.87222 L369.898872,804.494176 L369.727103,807.305048 L368.813471,806.388846 L369.339143,805.481539 L368.745356,805.367384 L367.014342,808.090787 L370.442313,811.217437 L372.765633,811.270808 L375.106723,813.346347 L375.108203,815.027533 L373.988745,814.401906 L372.573134,811.620685 L370.147641,811.556936 L367.585917,809.693399 L365.250751,809.946911 L365.127847,810.566608 L366.447209,810.829015 L366.549382,811.379033 L365.615019,811.275256 L365.289251,812.172185 L364.249754,812.431627 L364.292696,813.490152 L363.339083,813.920085 L363.992101,814.877797 L363.122892,816.086057 L360.818821,817.116414 L359.241807,817.088246 L358.606558,817.793929 L357.809907,817.137169 L356.792621,818.105259 L358.765,819.650053 L357.509312,820.554395 L356.841486,819.701941 L355.78422,820.160042 L356.010777,819.320932 L355.305933,819.461772 L355.157857,817.799859 L352.421403,818.957713 L351.444098,818.268337 L351.042811,816.876244 L347.728859,816.478927 L346.04671,817.129756 L347.610398,817.817649 L347.17061,820.010307 L347.953935,819.449912 L348.245646,819.863537 L347.505263,820.124462 L347.571898,820.791599 L345.216001,821.563996 L345.426269,822.618073 L343.981043,823.657324 L342.723873,822.254854 L341.203128,822.434239 L341.201647,823.436428 L340.290976,824.047229 L339.168556,826.494882 L336.575737,826.278433 L333.802264,824.305189 L331.78102,824.582421 L331.132445,825.615743 L332.099384,826.137593 L330.7741,826.103495 L330.591966,823.999788 L326.561323,825.29107 L325.210866,824.951571 L324.941366,826.589764 L323.619043,826.161313 L322.458124,827.396258 L323.481332,829.289446 L322.831276,829.283516 L321.474896,833.977197 L320.346553,834.826685 L320.411706,836.67095 L319.690574,836.857748 L319.429959,836.103142 L319.261152,836.157995 L318.731038,836.104624 L318.58,837.373667 L317.621945,837.406283 L317.682657,838.823579 L314.852915,839 L312.439268,837.701306 L311.632251,836.470808 L309.320777,836.804377 L310.478735,835.733992 L310.27587,834.550935 L310.909638,831.553265 L312.83167,831.560678 L314.143628,829.000353 L315.163875,830.041087 L316.945236,829.867631 L316.538025,827.717967 L317.63083,827.886975 L317.433888,825.726933 L319.077537,825.055348 L318.994614,824.140628 L319.801631,823.643982 L319.206364,822.938299 L321.07657,821.770067 L320.204399,820.797529 L321.064724,820.259372 L321.337185,818.42845 L320.660475,817.243911 L319.580997,818.633039 L318.060252,816.975574 L316.951159,817.278009 L316.594294,816.62125 L315.565163,817.109001 L314.812934,816.590116 L315.754701,816.200212 L314.445704,815.479703 L315.550355,808.408048 L310.495023,808.120438 L309.117912,809.097423 L309.449603,807.201271 L308.413068,806.971479 L308.264991,806.169432 L305.94019,806.593435 L305.245711,805.588281 L305.423403,804.915214 L306.704265,805.035298 L306.828649,804.215461 L306.070498,803.477162 L307.102591,802.096929 L306.957476,800.067349 L304.712636,798.611507 L304.608983,799.687822 L302.97718,799.409107 L302.375989,800.727074 L301.718529,800.734486 L301.653376,798.819061 L302.756546,798.402471 L302.39672,796.584892 L300.696801,798.279421 L299.934207,797.200141 L297.804867,797.083022 L297.434676,797.917684 L298.096578,799.443205 L296.49439,800.227462 L296.569909,800.958348 L294.535338,801.668479 L294.407993,803.500882 L293.999301,802.590611 L293.013112,802.881186 L293.214496,802.079139 L292.559998,802.13251 L291.362059,802.780374 L292.17648,803.422309 L291.696712,803.671373 L290.901541,803.156936 L289.675468,804.018285 L288.547125,803.148041 L288.319087,804.99527 L287.546128,804.325168 L287.409897,805.185034 L286.380766,805.309566 L286.619169,801.459442 L285.107308,801.389764 L285.598922,800.2497 L283.58212,799.914649 L282.359008,800.547688 L281.953278,799.546982 L280.203014,800.111825 L279.687708,798.350582 L278.996191,799.415037 L278.791845,798.787928 L277.981867,799.465443 L277.927078,797.636004 L277.274061,798.194917 L277.476926,799.555877 L276.278987,799.797529 L277.468041,800.707801 L277.602791,802.804095 L275.392009,802.606918 L274.300685,803.306671 L273.255265,802.271867 L272.791785,803.500882 L272.206883,803.189552 L271.457616,800.909425 L272.972439,798.400988 L273.715783,798.272008 L273.546975,797.376562 L270.299658,794.28994 L271.660481,792.937875 L270.172312,790.967596 L268.829258,790.846029 L269.069142,789.956513 L270.481792,789.737098 L270.626907,788.99287 L273.050919,789.519167 L272.694055,791.892693 L273.170861,793.318885 L276.190141,793.671726 L277.003081,795.278786 L282.153182,794.223226 L283.401466,795.572326 L283.232659,798.298694 L284.537213,798.263113 L284.581636,798.829439 L285.683325,797.896929 L285.071769,797.042993 L285.782537,796.005224 L284.078176,795.993364 L284.31806,794.779174 L282.545584,794.28401 L284.692693,791.723685 L284.515002,791.243346 L283.114198,791.959407 L283.213409,791.059513 L284.110753,790.89347 L284.513521,789.757854 L287.944453,790.21299 L287.815627,786.370279 L286.527361,786.356936 L286.143843,785.160537 L284.386175,784.678715 L284.055965,785.624568 L285.317576,788.273844 L284.328425,788.914296 L283.448851,787.698623 L283.568793,786.448853 L281.100358,786.232404 L281.149223,784.480056 L279.624035,785.119026 L277.151157,784.269538 L275.904353,785.869185 L275.692604,788.232333 L274.770087,788.356866 L273.973436,787.396188 L270.508446,787.378397 L270.107158,786.358419 L270.889002,785.663113 L268.688586,783.99527 L268.81297,782.600212 L269.741409,781.858948 L270.623945,782.305189 L270.692061,780.853795 L271.610135,779.796753 L268.411683,780.109566 L267.089359,778.369079 L266.226073,778.220826 L265,775.85323 L266.174247,771.625062 L265.624883,770.200353 L267.745338,769.411648 L268.23251,764.305824 L267.099725,764.720932 L265.112538,764.119026 L265.756671,762.626121 L265.436826,760.878221 L266.140189,760.258525 L268.613067,762.242146 L271.87075,762.827744 L272.455652,762.213978 L273.887551,762.225838 L273.705417,762.984892 L274.878183,763.158348 L277.208907,759.308224 L276.529236,758.599576 L277.322926,758.399435 L277.337734,756.965831 L276.182737,756.089658 L277.52431,754.879915 L277.02085,754.030427 L276.01393,753.897 L275.836238,752.699118 L274.345108,752.872573 L273.286361,749.247794 L271.519808,747.464313 L271.567193,746.970632 L273.262669,747.173738 L273.345591,742.889234 L274.962587,742.279915 L276.040584,743.169432 L276.313044,742.082739 L273.779456,739.66622 L274.420627,736.824215 L273.130881,736.546982 L274.48578,734.38101 L276.887581,733.05563 L280.15711,732.505612 L288.233203,733.690152 L291.237675,733.98221 L292.867997,735.111896 L294.640473,734.788705 L297.215523,735.470667 L299.95938,734.489234 L303.498409,735.666361 L304.56456,734.292058 L305.413038,736.136322 L306.836053,736.693752 L307.339513,735.995482 L308.543375,735.993999 L309.018701,734.343946 L310.814869,733.426262 L311.393848,730.146911 L313.240362,730.21659 L316.013834,728.553194 L320.770052,729.341899 L322.564739,727.976491 L325.560326,730.295164 L327.463109,730.391528 L329.368854,728.344158 L329.410315,726.117402 L330.187717,726.234522 L330.489793,727.613272 L331.662559,727.771903 L331.507078,725.309425 L332.129,724.654148 L335.397048,723.260572 L339.9119,724.179739 L341.216454,723.457748 L341.4208,714.823509 L342.685373,713.109707 L347.659263,712.433675 L349.847833,710.888881 L354.524089,709.87335 L358.45552,707.698482 L359.551286,708.957148 L361.150513,708.708083 L362.397317,710.653159 L364.135735,710.516767 L366.918092,707.197388 L367.593321,704.99287 L366.459055,703.740134 L365.175232,703.393223 L365.730519,701.974444 L366.8559,700.102012 L369.583469,699.45563 L371.079042,697.532792 L371.671348,698.558701 L373.559323,698.64024 L374.77355,700.404448 L375.327357,703.142676 L376.548988,703.660078 L376.993217,705.072926 L377.822446,703.827603 L379.461652,704.936534 L379.580114,705.751924 L382.879258,706.626615 L384.158639,705.824568 L382.623086,704.631133 L382.945892,703.204942 L383.621121,703.047794 L383.54116,701.351783 L380.662553,700.65203 L380.554457,701.64384 L376.538622,699.928556 L377.48335,698.52905 L376.809602,697.157713 L377.680292,696.480198 L378.46954,698.180657 L379.266191,698.432686 L380.381207,697.359336 L380.81211,695.500247 L382.797816,694.527709 L385.788961,696.151077 L385.260328,697.203671 L387.930147,696.89827 L391.238176,698.153971 L392.055559,697.341546 L392.410942,694.260854 L393.743631,694.272714 L393.496343,692.487752 L396.158758,693.184539 L397.872003,692.083022 L401.476185,691.47815 L402.058126,688.581292 L404.711657,688.653936 L406.494498,686.372326 L407.954532,687.453089 L409.312394,687.309283 L411.723079,684.490999 L411.970367,681.561525 L412.660403,680.580092 L412.016271,679.929262 L414.130803,676.756654 L414.29961,675.518743 L420.677265,672.089658 L421.000072,671.42252 L419.930959,670.098623 L421.256244,668.71246 L425.928058,666.896364 L428.187705,664.763007 L432.393077,665.227038 L432.921711,666.298906 L434.91482,667.299612 L435.707029,667.083163 L435.698145,665.075821 L436.657681,664.631062 L436.894603,665.415319 L437.646832,665.329333 L437.757889,662.020332 L438.508637,662.58221 L438.744078,662.109283 L436.913853,660.291705 L437.741601,659.639393 L437.867466,658.0012 L438.951386,657.744723 L439.607364,656.693611 L437.790466,656.3467 L439.340827,654.658101 L438.622656,653.331239 L442.117261,649.2024 L442.896143,650.345429 L443.639487,650.274268 L443.85716,652.538087 L444.588658,652.429862 L444.01264,653.993929 L446.038327,654.671444 L446.37298,655.393435 L445.293502,656.681751 L445.426771,657.875185 L446.85719,659.218355 L447.846341,657.33851 L451.201754,655.891564 L452.014694,653.817508 L451.486061,653.012496 L452.196828,652.372044 L453.615401,653.334204 L454.845917,653.23784 L455.069512,654.729262 L456.334086,655.233322 L458.953559,654.157007 L460.07746,654.454995 L460.228498,652.707095 L459.582884,653.036216 L458.898771,652.207483 L461.190995,649.165337 L459.428884,648.840664 L459.255635,648.189834 L460.095229,647.586445 L458.670733,647.522697 L458.780309,645.875609 L460.001941,645.38341 L462.542933,641.530321 L464.673754,642.514719 L464.777408,643.373103 L465.221637,641.74677 L466.669825,642.032898 L467.08592,640.969926 L469.464029,640.628945 L469.545471,639.589693 L470.70491,639.631204 L471.16987,638.697211 L469.164914,636.495658 L470.205892,636.612778 L469.13678,635.51126 L468.617031,636.820332 L467.882572,634.446806 L469.154549,633.788563 L471.09287,634.236287 L472.539578,635.884857 L472.323386,634.123615 L473.131884,634.101377 L473.235537,633.419414 L472.65952,631.837557 L473.088941,631.573667 L473.721228,632.37868 L474.085496,631.99767 L474.341669,633.302294 L473.718267,633.237063 L473.776016,633.750018 L474.889552,633.935334 L475.355993,631.701165 L476.358471,632.485422 L477.153641,631.232686 L476.839719,630.183057 L477.738543,629.096364 L480.024845,633.573597 L480.836304,633.724815 L480.295825,634.595058 L481.536706,636.781786 L482.598414,637.121285 L481.342725,634.815955 L482.814606,633.838969 L485.391137,640.032969 L487.548611,640.744582 L490.253969,640.562231 L491.950926,642.436145 L493.227345,642.320508 L494.10692,641.425062 L499.714577,640.8958 L499.831557,638.460007 L500.648939,638.971479 L500.931765,638.445182 L500.308363,637.923332 L501.430783,638.102718 L500.737785,637.497847 L501.746186,637.82845 L502.724972,636.930039 L502.297031,636.135404 L503.072952,635.193999 L502.282223,633.662549 L504.035449,634.728486 L504.586293,633.432757 L506.962921,631.993223 L507.630746,633.692199 L508.406667,632.326791 L509.702336,632.409813 L509.691971,631.471373 L508.62582,631.619626 L507.758092,630.07335 L509.908163,630.138581 L510.026624,629 L511.175698,629.182351 L510.919525,630.21419 L511.699888,630.986587 L513,631.787151 L507.479708,638.150159 L506.585326,640.876527 L503.854795,643.463537 L500.453478,648.556018 L493.308787,655.230357 L493.27473,656.603177 L480.71192,662.952842 L476.165971,666.054289 L474.831802,668.288457 L471.129889,671.711613 L471.129889,672.792376 L469.096799,675.552842 L465.03358,679.898129 L446.254518,689.426333 L438.840328,695.157783 L436.645834,697.927144 L435.844741,700.892199 L435.138416,701.231698 L435.362011,702.646029 L437.084141,704.141899 L438.402022,703.775715 L438.0496,707.436075 L436.712469,708.192164 Z" id="IN-AP"></path>
            </g>
        </g>
    </g>
</svg>