<?xml version="1.0" encoding="UTF-8"?>
<svg width="207px" height="145px" viewBox="0 0 207 145" version="1.1" xmlns="http://www.w3.org/2000/svg" xmlns:xlink="http://www.w3.org/1999/xlink">
    <!-- Generator: Sketch 52.5 (67469) - http://www.bohemiancoding.com/sketch -->
    <title>IN-AS</title>
    <desc>Created with Sketch.</desc>
    <defs>
        <filter x="-2.5%" y="-2.2%" width="105.1%" height="104.5%" filterUnits="objectBoundingBox" id="filter-1">
            <feOffset dx="4" dy="4" in="SourceAlpha" result="shadowOffsetOuter1"></feOffset>
            <feGaussianBlur stdDeviation="4" in="shadowOffsetOuter1" result="shadowBlurOuter1"></feGaussianBlur>
            <feColorMatrix values="0 0 0 0 0   0 0 0 0 0   0 0 0 0 0  0 0 0 0.5 0" type="matrix" in="shadowBlurOuter1" result="shadowMatrixOuter1"></feColorMatrix>
            <feMerge>
                <feMergeNode in="shadowMatrixOuter1"></feMergeNode>
                <feMergeNode in="SourceGraphic"></feMergeNode>
            </feMerge>
        </filter>
    </defs>
    <g id="views" stroke="none" stroke-width="1" fill="none" fill-rule="evenodd" opacity="0.2">
        <g id="Overall-2" transform="translate(-1190.000000, -359.000000)" fill="#FFFFFF">
            <g id="india" filter="url(#filter-1)" transform="translate(524.000000, 29.000000)">
                <path d="M673.413475,417.223582 L673.716924,419.126386 L672.949463,419.558302 L673.413475,417.223582 Z M742.415764,370.732521 L747.611227,370.432703 L749.975479,369.28538 L751.414653,369.607462 L753.260391,368.323588 L757.134524,368.374053 L758.992046,367.486473 L758.796129,366.40891 L759.407447,365.715767 L765.992,366.785909 L767.356049,367.584433 L767.389929,368.292419 L770.521643,369.93548 L780.654784,368.326557 L785.015025,369.182967 L790.762884,368.05494 L793.742873,364.890526 L795.672574,364.449704 L795.379436,362.91054 L794.541268,362.29161 L799.421498,356.814739 L802.641595,354.422133 L805.611272,350.435447 L808.751824,348.882924 L808.672279,347.668811 L807.274351,345.806081 L808.541178,344.756718 L809.274759,346.416106 L809.952364,346.034655 L812.095658,346.994963 L814.053347,346.076214 L814.940126,347.658421 L821.808979,344.453932 L822.022572,343.839454 L824.074537,343.863202 L825.289806,342.761891 L826.647963,342.571907 L827.309364,341.317719 L832.563749,340.08431 L841.36083,336.716554 L843.452568,337.734747 L847.510833,336.344008 L850.309636,333.685722 L857.06801,333 L861.742012,333.310208 L860.195304,336.15254 L856.982573,338.879101 L855.667135,340.663166 L855.891039,341.22718 L854.979219,341.608631 L856.159135,343.110689 L855.603794,343.65986 L856.312333,344.474712 L855.870417,345.368228 L857.013507,346.079182 L857.496669,347.348213 L858.773807,347.814267 L859.030118,349.454359 L857.788333,352.096319 L858.343675,352.554951 L858.999184,351.616907 L859.134705,352.940855 L859.868286,351.648076 L860.88764,351.582769 L861.447401,352.311534 L861.747904,351.915241 L863,354.269256 L859.54716,356.914184 L859.162693,357.917534 L858.130082,356.834034 L856.459638,356.920121 L849.792594,359.084152 L847.513779,357.724582 L845.772628,359.643713 L845.712233,362.345042 L842.346304,363.418153 L839.249943,366.003711 L837.623691,365.562889 L834.988397,368.200396 L832.254408,369.640115 L831.154036,369.887984 L829.380479,368.713945 L828.087137,369.395214 L825.496034,373.773742 L821.931242,376.316257 L820.134116,376.800121 L819.38875,376.086199 L818.479876,377.755976 L817.566582,377.06877 L815.189072,378.490678 L815.021144,379.67956 L813.337443,380.40981 L813.076712,383.244721 L811.585981,384.062541 L810.518017,385.640295 L809.819789,385.024333 L809.693106,382.144894 L809.290962,382.327456 L806.509835,385.723413 L806.171033,389.735332 L804.089607,390.34981 L800.907809,395.626307 L800.485043,399.089055 L799.366995,401.33472 L800.124144,404.347741 L798.164982,405.447568 L797.142682,406.88135 L795.896478,406.306947 L794.461723,407.96485 L793.969723,406.867992 L794.541268,404.690602 L793.760549,402.755144 L793.107986,403.774822 L791.128201,404.700992 L791.67765,406.789327 L787.600236,409.803832 L785.337624,413.379382 L783.105947,414.238761 L780.152472,417.138979 L782.130785,419.969438 L784.165073,420.977242 L784.668857,422.851845 L783.857204,424.071896 L784.539229,425.26523 L781.909826,427.430746 L780.277682,432.554366 L779.317251,434.187038 L778.19331,434.129152 L777.596723,435.181483 L778.01507,437.480581 L777.322735,437.90656 L777.732244,438.587829 L776.986878,440.002316 L776.002878,440.711786 L776.00877,442.25095 L774.63883,442.982684 L773.704913,441.960038 L773.307189,442.302899 L773.227644,444.612387 L772.26132,445.685497 L773.151045,446.875863 L772.248062,449.566802 L773.221751,449.997234 L771.806146,450.294083 L772.162625,450.760137 L771.025427,452.937527 L771.130014,455.851103 L769.93684,456.119752 L767.939378,456.382463 L767.194013,455.793217 L766.998096,456.41957 L765.69297,456.248881 L764.647101,456.986552 L762.682047,452.130096 L760.382609,457.765781 L758.33359,458.51681 L757.941758,461.206265 L756.063613,461.458587 L755.474392,463.778465 L754.066151,464.293499 L753.912954,465 L752.547432,464.62597 L752.108462,461.213687 L748.231383,461.259698 L745.647645,461.342816 L747.48749,456.933119 L746.210352,454.18281 L746.207406,452.698563 L746.82167,447.500731 L748.281467,444.799402 L746.500544,439.263161 L748.285886,438.552207 L751.155396,440.938876 L752.414857,440.864664 L752.934846,440.008253 L754.250283,440.118088 L754.649481,439.085052 L754.173684,437.382621 L753.537325,437.78782 L753.024702,437.41379 L753.691996,437.289113 L753.286906,436.639013 L752.297013,436.760721 L752.217468,434.740662 L753.369397,434.559584 L754.017541,432.140261 L755.826452,432.428205 L755.262272,431.04934 L758.252572,431.810759 L759.647555,429.784762 L763.888478,428.34059 L762.662897,427.316459 L763.511377,426.091956 L763.271269,424.474127 L762.536214,424.380619 L761.811472,422.807318 L761.228142,423.022534 L759.859675,421.58133 L759.438381,421.812872 L759.258668,420.957946 L757.866632,421.600625 L757.529302,419.714148 L756.582128,419.85812 L758.964057,417.462545 L759.235099,415.586457 L757.666297,416.778308 L756.739745,416.67441 L756.280152,414.908157 L754.555206,414.534126 L753.437157,412.493287 L752.410438,412.200891 L752.441372,410.81312 L750.958007,410.05467 L749.370054,411.026851 L746.145538,411.335575 L744.040543,412.855443 L743.806327,408.022736 L744.631238,406.050172 L746.038005,404.78411 L744.131872,404.620842 L743.906495,403.486878 L748.253479,398.867902 L746.521167,399.437853 L744.582627,398.854544 L743.190591,400.010772 L740.714386,400.460499 L738.809727,400.178492 L736.684109,401.606337 L735.081426,399.795556 L735.255246,398.228192 L733.512623,397.505364 L730.797784,399.553624 L730.457508,403.169249 L728.888705,404.841995 L727.094525,403.656082 L727.922381,402.799672 L727.742669,400.821171 L726.005938,400.453078 L723.718284,404.316572 L724.634524,404.215643 L722.888954,406.017519 L723.906835,406.146648 L724.582967,405.383745 L724.450392,405.959633 L721.952092,407.053523 L721.165481,406.583017 L718.534605,407.129219 L716.74779,410.283244 L715.152472,411.08919 L714.168472,410.878427 L713.795789,409.273956 L714.306939,406.434592 L710.200063,407.761509 L709.787608,407.469112 L710.671441,406.65426 L709.764039,406.784874 L708.273308,407.696202 L709.151249,405.437178 L707.246589,405.466863 L706.483547,403.391886 L705.655691,403.543279 L705.754385,404.568894 L704.640756,403.247914 L703.214839,403.713968 L702.38551,403.234556 L701.404455,404.742551 L700.248108,404.505071 L700.460228,403.057931 L698.568826,403.282052 L696.68037,405.066116 L696.11619,404.606 L696.809999,403.740684 L695.373771,402.971844 L693.218692,405.155171 L693.893351,403.031214 L692.131578,401.064587 L690.630535,401.965525 L689.63917,401.101693 L688.666954,401.233791 L687.413384,402.470169 L683.039886,403.498752 L681.070412,402.92138 L677.557177,405.75926 L678.087477,406.210471 L677.667656,406.85315 L675.702602,407.620505 L676.031093,409.337779 L675.360853,410.363393 L674.101391,410.691412 L677.946064,415.245081 L673.407583,417.231003 L673.873068,414.298131 L672.313103,411.294016 L672.588565,409.55151 L671.692947,407.880248 L674.032158,403.645692 L672.833092,403.431961 L672.525223,402.830841 L673.571092,402.412283 L672.466301,401.232307 L672.472193,402.244563 L671.953678,402.110981 L671.370349,400.237862 L670.564588,400.322464 L671.351199,399.610025 L671.16854,398.628938 L669.982731,397.840803 L670.33921,397.20703 L669.729366,396.237817 L668.738,395.878629 L669.212324,395.569906 L668,395.084557 L669.146036,394.284548 L668.073653,394.11386 L669.044396,393.391032 L668.306395,392.30011 L668.93539,392.696404 L669.313965,392.260036 L668.708539,391.066701 L669.966528,391.630715 L669.716108,390.521983 L670.651498,390.196933 L670.686851,389.425124 L673.008385,388.349045 L672.685786,387.71824 L672.083307,387.934941 L673.419367,385.747161 L672.865499,384.783885 L673.152744,381.671419 L673.631487,381.451751 L672.999547,380.098118 L673.594661,379.195696 L672.996601,377.318124 L673.163056,376.169317 L676.104746,376.647244 L681.910053,375.548901 L683.225491,375.005667 L683.081131,373.65055 L684.031251,372.127713 L686.703372,372.317696 L688.354666,370.658308 L690.03984,370.457935 L694.672597,373.951852 L699.370167,375.109564 L709.906926,374.698428 L711.222363,373.303236 L716.332389,373.815301 L718.61415,374.692491 L720.835516,372.757033 L723.439877,374.342209 L727.478992,373.249803 L729.436681,373.810848 L732.972012,372.184114 L734.694013,370.036409 L735.910756,369.963681 L738.634433,371.968898 L740.483117,372.33996 L741.822123,371.873906 L742.415764,370.732521 Z" id="IN-AS"></path>
            </g>
        </g>
    </g>
</svg>