<?xml version="1.0" encoding="UTF-8"?>
<svg width="195px" height="111px" viewBox="0 0 195 111" version="1.1" xmlns="http://www.w3.org/2000/svg" xmlns:xlink="http://www.w3.org/1999/xlink">
    <!-- Generator: Sketch 52.5 (67469) - http://www.bohemiancoding.com/sketch -->
    <title>IN-AR</title>
    <desc>Created with Sketch.</desc>
    <defs>
        <filter x="-2.5%" y="-2.2%" width="105.1%" height="104.5%" filterUnits="objectBoundingBox" id="filter-1">
            <feOffset dx="4" dy="4" in="SourceAlpha" result="shadowOffsetOuter1"></feOffset>
            <feGaussianBlur stdDeviation="4" in="shadowOffsetOuter1" result="shadowBlurOuter1"></feGaussianBlur>
            <feColorMatrix values="0 0 0 0 0   0 0 0 0 0   0 0 0 0 0  0 0 0 0.5 0" type="matrix" in="shadowBlurOuter1" result="shadowMatrixOuter1"></feColorMatrix>
            <feMerge>
                <feMergeNode in="shadowMatrixOuter1"></feMergeNode>
                <feMergeNode in="SourceGraphic"></feMergeNode>
            </feMerge>
        </filter>
    </defs>
    <g id="views" stroke="none" stroke-width="1" fill="none" fill-rule="evenodd" opacity="0.2">
        <g id="Overall-2" transform="translate(-1246.000000, -307.000000)" fill="#FFFFFF">
            <g id="india" filter="url(#filter-1)" transform="translate(524.000000, 29.000000)">
                <polygon id="IN-AR" points="867.023376 282.838329 867.891135 284.203508 867.806729 285.447403 869.682926 288.065351 871.214092 288.041686 873.389415 286.281596 874.309003 287.311027 872.868166 290.326844 870.198251 290.709922 867.886693 293.021703 865.680273 293.620725 866.792368 294.483021 867.861519 296.774095 866.633921 298.556371 867.292885 299.66715 869.829527 298.368529 872.880013 295.219596 875.64174 295.031755 878.412351 293.563041 876.931532 296.565547 877.245466 297.575749 878.213921 297.377554 878.791441 300.434785 881.225906 304.145764 880.295952 306.146941 876.786412 307.319841 877.448338 309.075493 875.401847 310.866643 874.560742 310.615201 874.736959 311.677171 873.124348 311.798455 872.226972 312.730267 873.694463 314.376468 870.307831 316.957439 872.046312 317.911437 873.630788 317.625977 874.513356 319.368318 875.240438 319.142021 876.339205 316.751849 877.948855 316.784388 880.099003 315.216578 882.733379 315.121917 885.413661 316.664584 886.1363 318.33445 888.550035 318.534124 889.987909 317.918832 890.833457 319.350569 893.022107 320.357813 896.000033 318.486794 898.521866 320.958314 901.87444 321.755531 905.54687 324.40454 904.400716 324.545051 903.383394 325.714993 903.638094 327.232515 902.67112 328.71454 904.708726 328.954149 904.818307 330.041263 906 330.564853 904.850885 331.888617 905.189992 335.018322 903.085749 335.257931 902.699256 333.848381 901.082202 334.559812 896.308043 338.605059 896.119979 340.118144 894.015736 340.146246 892.456434 342.833711 891.342858 342.987534 889.956812 344.608591 891.199219 347.761961 890.398096 350.101844 898.453749 361.395997 897.668915 362.571855 896.496107 361.934378 895.348472 362.352954 892.654864 360.360651 889.275636 359.431797 888.895065 358.542878 889.721362 357.932023 889.568838 356.855263 888.844717 356.697003 887.00406 353.857195 884.220121 352.94609 883.80253 353.472637 881.119287 353.339521 878.323502 355.953032 876.724218 355.312596 869.395647 356.269552 863.262097 359.346011 860.155339 364.294968 858.325048 365.419059 856.177861 365.420538 853.786339 370.014519 852.006395 369.230614 850.090216 372.302635 847.648346 371.958013 844.427566 376.482478 840.512282 378 838.499849 376.955779 838.499849 376.955779 837.834962 375.265206 838.724934 373.471098 837.802384 373.090978 837.600993 371.285037 836.853179 370.796945 838.382865 369.899152 837.193768 364.642549 837.193768 364.642549 838.828591 365.081832 841.939791 362.505297 845.323461 361.435932 845.384175 358.744031 847.134502 356.831598 849.425329 358.186423 856.127513 356.031423 857.806761 355.945637 858.844815 357.025355 859.231309 356.026985 862.702347 353.391289 861.443652 351.045489 861.141565 351.4404 860.578854 350.714178 859.554127 350.779257 858.81668 352.067524 858.680444 350.748196 858.02148 351.682967 857.463211 351.225935 858.710061 348.591717 858.453879 346.957349 857.168529 346.492922 856.68282 345.22832 855.533705 344.518368 855.97795 343.629449 855.264196 342.817441 855.822465 342.270186 854.636329 340.773371 855.554436 340.393251 855.327871 339.829726 856.650242 338.053367 859.878426 335.336322 861.433286 332.503909 856.734649 332.194784 849.942134 332.878113 847.127098 335.527121 843.047443 336.913007 840.944681 335.898367 832.102713 339.254369 826.819153 340.481995 826.154265 341.733285 824.788951 341.922606 823.567276 343.020073 821.504495 342.997887 821.291257 343.608742 814.386201 346.802047 813.494748 345.225361 811.52674 346.140904 809.372149 345.183948 808.690973 345.564068 807.953525 343.910471 806.680021 344.956171 808.085318 346.8124 808.165282 348.022277 805.008177 349.567901 802.022847 353.540674 798.787258 355.926409 793.881307 361.384165 794.723892 362.000936 795.020056 363.534728 793.080184 363.974011 790.084488 367.127381 784.304853 368.251472 779.921631 367.39805 769.73508 369.001358 766.58686 367.364032 766.552801 366.658517 765.181563 365.862779 758.563785 364.796372 757.947765 365.487096 758.144713 366.560898 756.278882 367.44538 752.384329 367.396571 750.528864 368.675964 749.082104 368.355006 746.70539 369.498325 741.481063 369.795617 741.481063 369.795617 741.340385 365.8613 739.184313 363.886746 738.861495 360.512995 740.297889 358.390534 739.364973 356.899635 741.288556 356.813849 741.876441 356.174892 739.960262 354.800839 739.825508 352.273114 738.717855 349.510218 736.258216 350.174319 733.890387 349.428869 729.458297 349.835612 728.529824 348.711522 727.207453 349.337167 724.707831 346.200066 724.998072 345.043436 724.427957 344.170787 726.474448 341.647499 726.966079 339.587159 726.610683 338.346222 725.70146 337.649582 724.667849 337.841861 724 336.441184 727.657622 336.346524 729.133998 337.912856 732.687962 338.014911 733.814865 340.570739 735.618502 341.330979 737.636858 339.420025 739.855124 339.798666 744.658899 336.32138 746.321858 336.358357 747.932989 339.133086 749.911362 338.548854 750.749506 337.606689 752.239209 338.261916 753.678565 336.930756 755.519222 337.643666 756.893422 335.675028 758.882161 334.888164 761.060445 331.774729 758.688174 329.214465 759.433026 327.015093 762.924796 324.343898 763.755535 325.399952 765.889394 324.26107 768.036581 322.261372 769.147195 323.345528 770.182287 322.215521 769.868354 320.813366 775.923421 319.74548 776.312876 317.401159 774.797998 316.025627 777.690037 313.753781 778.59926 311.60026 778.431927 310.431797 779.293763 310.124151 779.579561 309.005977 782.949904 307.747291 783.835434 308.534154 784.359644 307.469226 785.684976 308.35075 788.357854 308.390685 791.814084 307.282864 793.166071 308.012044 795.299931 306.645386 797.845458 307.896677 800.179228 304.252256 799.678711 303.452081 799.977837 301.938996 804.944502 297.948474 806.791083 293.392949 809.053773 291.134414 811.197998 290.977633 811.674822 289.65091 813.500671 288.358206 817.427802 288.284252 819.607567 284.05708 822.176787 285.621932 824.232163 287.853844 824.871877 290.553141 827.159741 289.859458 831.840609 291.752664 831.057256 290.257327 834.183263 291.288237 834.907384 292.258505 838.905594 292.484802 839.394264 294.324761 843.847085 295.154517 845.216842 295.053941 846.105333 293.84998 846.518482 291.410999 848.083707 291.82218 847.800871 288.8108 849.292055 288.670289 849.693357 287.121706 850.91207 287.546198 855.239022 283.781973 855.822465 284.490446 858.43759 282.542516 860.802457 282.85312 864.628892 280"></polygon>
            </g>
        </g>
    </g>
</svg>