<?xml version="1.0" encoding="UTF-8"?>
<svg width="168px" height="122px" viewBox="0 0 168 122" version="1.1" xmlns="http://www.w3.org/2000/svg" xmlns:xlink="http://www.w3.org/1999/xlink">
    <!-- Generator: Sketch 52.5 (67469) - http://www.bohemiancoding.com/sketch -->
    <title>IN-BR</title>
    <desc>Created with Sketch.</desc>
    <defs>
        <filter x="-2.5%" y="-2.2%" width="105.1%" height="104.5%" filterUnits="objectBoundingBox" id="filter-1">
            <feOffset dx="4" dy="4" in="SourceAlpha" result="shadowOffsetOuter1"></feOffset>
            <feGaussianBlur stdDeviation="4" in="shadowOffsetOuter1" result="shadowBlurOuter1"></feGaussianBlur>
            <feColorMatrix values="0 0 0 0 0   0 0 0 0 0   0 0 0 0 0  0 0 0 0.5 0" type="matrix" in="shadowBlurOuter1" result="shadowMatrixOuter1"></feColorMatrix>
            <feMerge>
                <feMergeNode in="shadowMatrixOuter1"></feMergeNode>
                <feMergeNode in="SourceGraphic"></feMergeNode>
            </feMerge>
        </filter>
    </defs>
    <g id="views" stroke="none" stroke-width="1" fill="none" fill-rule="evenodd" opacity="0.2">
        <g id="Overall-2" transform="translate(-988.000000, -376.000000)" fill="#FFFFFF">
            <g id="india" filter="url(#filter-1)" transform="translate(524.000000, 29.000000)">
                <polygon id="IN-BR" points="491.988043 349.120635 493.022637 349.01324 492.961603 350.081302 494.736043 350.643284 494.820895 351.57747 496.24253 351.24793 497.478088 353.585601 507.639436 355.17151 509.85302 359.42463 509.334979 363.532105 508.350998 365.1901 511.905833 366.724519 512.400056 366.212556 513.052073 366.968731 514.178961 366.152238 516.103752 367.861724 518.309893 368.182437 518.810071 368.878295 518.47513 369.703615 521.361572 370.709888 520.176628 371.783833 525.575867 371.399861 524.996792 373.277059 526.029897 375.102767 529.895854 375.695644 532.179403 373.9891 533.614437 374.305399 539.254833 371.215966 542.373501 373.834628 542.308001 378.680625 544.962218 380.454842 546.005743 380.215043 545.968528 381.622942 549.030627 380.088524 549.411715 378.792433 551.535981 378.265758 554.965771 379.558907 554.892829 380.328322 556.640473 380.047331 557.422001 380.949151 558.510185 379.966417 560.838393 379.88109 567.537201 382.66158 568.427398 384.072421 573.43513 386.633708 574.500984 385.387637 576.622274 386.062899 578.512826 385.275829 578.439884 384.45198 579.629294 384.331345 579.718612 383.400102 582.292443 382.876369 583.213901 380.987402 584.053485 381.038892 584.665309 385.675984 586.88187 387.256008 589.801062 387.014738 590.101764 388.288762 591.553173 388.374089 592.441881 389.180284 593.311238 387.120662 596.356962 386.015822 600.700767 388.048963 602.131335 387.617913 602.938169 386.185005 604.681348 387.129489 605.701055 386.972075 606.427504 385.028674 608.264466 386.148226 609.49407 384.429913 610.699855 386.771997 612.719918 387.65175 612.913439 388.59182 613.916772 388.594763 614.061168 387.667933 615.938323 386.104091 616.210741 382.745436 616.210741 382.745436 617.43439 383.58841 618.147441 382.685119 620.109447 382.184925 620.176436 382.857244 618.482381 384.28721 618.942366 384.922751 619.954631 384.777106 620.040971 385.77308 621.252711 386.641064 620.085629 387.591433 620.308923 388.226973 621.24229 388.028367 622 388.95961 619.580986 391.428214 617.406106 392.41389 615.079387 395.045793 614.0701 394.97812 613.310902 396.234489 611.783573 395.85493 611.910106 398.264688 610.967807 398.158765 610.756423 398.686911 610.189257 397.935149 607.983116 399.521058 607.603517 403.235733 606.787751 404.030159 607.381712 405.414519 610.125246 406.085367 609.267799 406.873908 610.113337 407.343208 609.738204 408.876155 610.795127 408.823193 611.686813 410.410574 614.416949 411.569847 614.012043 413.397026 614.595584 413.532372 613.559502 415.0918 614.017998 416.796873 615.17317 417.91054 615.09725 418.704966 613.763443 418.513715 613.138221 417.691338 613.036995 418.245964 612.489181 417.954675 612.469829 417.201442 610.600117 416.814527 609.757556 417.8973 609.141266 417.500087 608.65002 419.216929 607.727073 419.244881 606.944057 420.276163 606.092564 419.921614 605.398865 421.264782 605.605784 422.182785 606.326278 422.376978 606.174438 423.72603 608.434169 425.578219 607.384689 427.049377 607.81639 428.236602 606.287573 427.517206 606.287573 427.517206 606.153597 426.647751 603.800083 426.302029 603.063214 424.482206 600.657597 424.439542 599.820991 423.186115 598.802772 423.777521 598.563103 425.448757 596.748471 424.989755 597.190592 426.097538 596.473075 426.828704 596.4567 428.392545 593.952835 427.280349 593.269556 428.040938 591.822614 427.430408 590.813327 431.958634 589.549485 431.398122 588.328813 431.948336 586.316193 434.155073 586.668997 438.839242 586.447192 439.757245 585.308395 439.854342 584.18895 440.978307 584.753138 441.68005 583.313639 448.244359 579.562306 447.029182 578.564928 448.925506 578.971322 450.537896 577.887604 449.574287 577.208792 450.142154 576.660978 449.543392 575.516226 449.66697 575.687418 448.659226 574.792755 447.807425 573.974012 447.867743 573.374096 449.288882 571.404646 449.800845 569.365232 448.303206 567.613121 450.662944 566.335882 451.245523 565.802954 454.36585 565.092881 454.470303 564.668623 456.260703 563.526848 455.906153 561.506785 453.736195 559.275338 453.119779 560.312909 451.555937 560.050911 449.880288 560.637429 449.010833 558.80791 449.287411 557.350547 448.078119 556.652382 448.974054 554.730569 448.354696 554.453685 444.929839 553.273206 443.544008 551.793513 443.71172 552.152272 442.421514 549.02765 444.022134 546.76643 441.722713 543.634365 441.768319 542.372012 440.968009 541.121568 444.65179 539.653784 445.54037 540.125678 449.08292 537.379167 448.37235 537.121635 449.646374 536.140632 449.644902 535.563046 451.016022 534.571622 450.133327 528.215197 450.942464 528.197334 451.934025 524.106595 453.090356 524.690136 454.214321 522.198179 455.904682 521.45089 455.650172 521.784342 453.862714 521.071291 454.69539 519.112261 454.792486 518.430472 456.012077 516.233263 456.141539 515.676517 453.090356 514.250415 453.436078 514.195336 451.451485 513.032721 450.846839 509.404944 453.308087 508.76037 455.414786 506.086801 454.788073 505.876905 455.742855 504.499928 456.001779 504.623484 457.239023 503.627594 459 502.411388 457.265504 501.256216 457.509716 501.41401 456.575531 500.157612 455.548662 498.713646 455.3427 498.064606 454.412927 498.542455 454.152532 497.382816 453.491982 497.414078 452.484239 498.41741 451.744246 497.376862 449.615479 496.637016 449.674326 496.976422 450.089192 496.261883 450.801233 495.571161 450.046529 495.026325 450.652646 494.116775 449.972971 493.63595 450.249549 493.835425 451.485322 492.800832 450.479049 492.613265 451.67363 491.670966 452.462171 489.707471 448.056051 488.007462 447.188068 486.021638 450.223068 484.13704 450.729146 479.421079 451.669217 472.612113 450.926282 472.612113 450.926282 473.957829 447.586752 472.591272 446.727595 473.095915 445.733092 472.068765 444.904829 472.040481 443.824999 471.206852 443.977999 469.139153 442.261157 469.2508 440.611989 468.116468 439.345321 467.80088 434.621431 467 434.390459 468.220672 430.775822 467.534416 428.841249 467.979515 428.246901 469.183811 427.973265 469.838806 426.541828 471.428656 426.450616 473.895307 424.226224 474.664925 424.548408 476.479558 423.824598 477.347426 422.521151 478.556188 422.407872 478.127465 422.166602 478.730357 421.566369 479.023616 421.903265 479.910836 421.075002 480.827829 421.844418 481.99491 421.061762 481.840093 420.36149 483.211116 420.182009 482.334316 419.197804 483.608578 418.932995 485.662879 416.055409 490.631906 413.370545 490.417545 411.397721 491.190141 410.554747 492.866331 410.194313 494.302853 411.131441 494.570806 412.278945 497.147614 412.555523 497.085092 412.024435 498.174764 412.200974 498.572227 409.73237 500.089135 409.592609 500.770925 411.265317 502.232754 410.754825 503.466823 411.999425 504.5952 411.778751 504.946515 410.345843 504.806585 411.490404 505.458602 411.789049 505.561317 410.008947 507.896968 410.284054 506.960623 409.185099 507.573937 408.047893 505.588112 406.57085 504.668142 406.679715 504.720244 405.202672 501.437828 404.702478 500.9704 403.376964 499.197449 402.423654 497.482554 402.844405 494.536567 401.018697 493.427542 401.32764 493.458804 400.169839 491.084448 397.74684 489.775948 397.639446 488.812808 396.088845 488.605889 392.827286 490.719735 393.49225 491.767727 392.102005 493.211692 392.649276 493.909857 390.218922 493.586825 388.272579 490.491976 387.913616 488.589514 385.724532 487.68592 386.198245 485.204383 385.662744 485.201406 383.341255 487.081538 383.666381 487.443274 382.867542 489.737243 382.471801 490.820962 380.548996 490.797144 379.06754 496.730799 380.557823 501.162433 379.605984 500.782834 378.096575 498.396569 377.649343 497.536145 375.28372 495.956715 376.106097 495.5399 375.75449 495.24813 375.151315 496.110043 373.38004 495.761705 371.535208 494.768793 371.240976 493.512394 372.492932 492.351267 371.766179 492.637083 370.670166 491.383662 370.215578 491.053187 371.029129 489.868242 370.528935 489.732778 369.150459 489.022704 368.776785 489.700028 368.116235 489.518416 365.271014 487.958338 364.448637 488.891705 363.524749 486.358067 363.610076 487.584693 359.911583 486.826983 358.718474 485.065941 357.878442 485.929343 356.336668 485.649482 355.606973 483.715759 356.093927 482.91488 355.695243 483.836338 354.722807 483.836338 354.722807 485.39195 353.573832 484.358845 353.310495 484.204028 352.048241 486.166034 351.327373 489.162635 351.871702 491.286901 349.944484 491.358355 349 491.988043 349.120635"></polygon>
            </g>
        </g>
    </g>
</svg>