<?xml version="1.0" encoding="UTF-8"?>
<svg width="141px" height="222px" viewBox="0 0 141 222" version="1.1" xmlns="http://www.w3.org/2000/svg" xmlns:xlink="http://www.w3.org/1999/xlink">
    <!-- Generator: Sketch 52.5 (67469) - http://www.bohemiancoding.com/sketch -->
    <title>IN-CT</title>
    <desc>Created with Sketch.</desc>
    <defs>
        <filter x="-2.5%" y="-2.2%" width="105.1%" height="104.5%" filterUnits="objectBoundingBox" id="filter-1">
            <feOffset dx="4" dy="4" in="SourceAlpha" result="shadowOffsetOuter1"></feOffset>
            <feGaussianBlur stdDeviation="4" in="shadowOffsetOuter1" result="shadowBlurOuter1"></feGaussianBlur>
            <feColorMatrix values="0 0 0 0 0   0 0 0 0 0   0 0 0 0 0  0 0 0 0.5 0" type="matrix" in="shadowBlurOuter1" result="shadowMatrixOuter1"></feColorMatrix>
            <feMerge>
                <feMergeNode in="shadowMatrixOuter1"></feMergeNode>
                <feMergeNode in="SourceGraphic"></feMergeNode>
            </feMerge>
        </filter>
    </defs>
    <g id="views" stroke="none" stroke-width="1" fill="none" fill-rule="evenodd" opacity="0.2">
        <g id="Overall-2" transform="translate(-896.000000, -492.000000)" fill="#FFFFFF">
            <g id="india" filter="url(#filter-1)" transform="translate(524.000000, 29.000000)">
                <polygon id="IN-CT" points="469.11234 466 472.254539 466.592327 472.941664 467.982303 474.767118 468.462369 475.88038 472.836138 476.909594 473.301433 476.448069 474.022271 480.591466 475.444743 481.639849 477.658954 481.187172 480.084395 483.04359 482.871732 487.993549 484.094792 488.074647 482.102149 490.208276 481.769796 490.691918 484.724047 489.050779 487.70341 488.937241 490.189413 490.193531 491.140682 491.331859 490.430184 492.160538 491.905833 491.032532 498.315082 493.987467 500.21762 494.55958 504.146775 495.854207 502.148224 496.693208 503.727271 498.369736 503.312199 498.590913 504.233926 501.429361 503.773062 502 504.985783 501.408718 507.4644 500.16275 507.629838 498.797346 510.836678 497.838909 510.849972 496.949774 511.777607 496.802322 513.98591 494.618561 515.135114 492.473136 515.064212 490.14782 517.294672 490.069671 518.916557 490.069671 518.916557 489.378122 518.876674 489.254262 519.536949 491.275827 520.804323 490.122754 524.011164 485.703622 524.805857 482.362363 528.16041 480.516266 528.071783 479.057967 528.766032 476.384665 532.774951 477.6557 534.046757 475.743249 534.383541 475.642982 537.429375 476.204774 538.467794 477.660123 539.175338 476.766565 540.466346 477.167634 541.401366 475.522072 541.788373 475.687218 543.046885 474.280527 542.364452 473.546217 543.417643 474.069671 544.78103 472.08202 546.983425 474.082942 548.617126 473.100912 549.290696 472.745553 547.832772 470.877338 549.041061 469.454428 552.915562 469.936596 554.618688 471.279882 556.089906 471.554142 557.773829 470.694498 558.054483 467.460879 556.896417 466.969865 558.964393 467.600958 559.846237 465.86545 560.686721 464.99401 564.796086 462.824993 565.931995 460.378767 565.344099 457.768869 563.478489 455.399318 564.349994 453.337941 564.036843 452.608055 564.672007 451.480048 563.996961 447.889595 564.338177 448.169754 565.905407 447.068289 566.915761 447.467883 568.054625 445.326882 571.187609 443.25076 572.437258 442.427979 575.057679 441.084693 574.970528 440.64971 573.787351 438.956962 573.082762 438.603078 577.20542 439.624919 581.623503 438.26099 583.929297 440.003871 585.373926 440.238319 587.254307 440.916598 586.573352 441.506405 588.13172 440.413787 591.09188 441.507879 592.814209 440.763248 593.45085 441.025712 595.458264 439.955212 597.347508 440.323841 600.128936 446.727675 602.548468 447.759838 602.077265 450.09695 602.397801 449.88167 605.567713 450.406598 606.303322 449.949498 607.603193 448.190397 607.787834 446.317759 609.563339 445.891623 607.885324 446.578749 606.508643 441.913372 605.250131 440.260437 605.944381 438.737259 607.637167 435.378306 602.142259 433.768132 602.796625 430.046447 600.446518 429.01281 601.75082 426.448622 598.733052 424.139526 600.899996 423.237121 603.712443 423.617547 605.08617 427.035481 606.827702 427.645931 608.755351 430.105428 609.168946 429.418302 611.753917 429.682241 617.149857 428.95088 618.349283 431.100728 618.087832 431.942678 620.88994 433.909686 621.09526 433.393604 622.777707 432.606211 622.909171 433.912635 624.284375 432.942402 626.049541 433.776979 629.520786 433.190121 630.573977 434.424293 630.866448 434.806193 631.742384 434.2503 632.729104 435.207262 634.213615 435.652567 637.59771 433.59119 638.089593 433.232882 641.47812 432.24348 642.559376 430.77191 642.618461 430.684914 644.037979 429.300341 643.819365 427.261082 644.735183 426.635886 646.739642 424.720487 646.040962 424.813381 646.993708 426.855589 648.105984 426.619666 648.999645 425.438577 648.834207 425.074371 649.995228 423.874113 650.493019 420.916229 653.789964 420.385402 655.925888 417.704728 656.122346 417.723896 657.03521 415.70823 657.352792 413.688139 658.717656 412.972998 661.154914 413.522993 662.011647 413.092434 664.110642 412.018984 666.175664 412.12515 668.066385 410.888029 671.104833 409.549166 670.807931 409.274906 673.344156 409.274906 673.344156 405.23325 673.165424 402.318127 671.858168 399.663994 674 398.394434 673.889216 395.663625 664.478447 396.580776 661.661568 393.133352 662.807817 392.707216 660.707344 393.302921 660.395671 392.132154 659.527121 391.154548 661.72213 389.199336 661.546352 389.159524 660.021958 390.852272 658.881617 389.508985 657.323249 388.634596 654.710213 388.951617 653.865297 387.854576 653.52999 388.097871 652.989362 386.613031 651.815047 386.054189 650.305424 381.447793 646.763276 377.07732 648.114847 374.782969 643.84743 374.782969 643.84743 374 642.491428 375.061653 642.32599 377.282278 640.407204 374.787393 637.000952 374.788867 635.098414 376.468344 632.251992 376.552391 630.085048 378.460418 628.539975 378.357202 626.907751 380.014561 626.194299 381.205972 623.783629 384.053267 621.638843 385.358216 624.692062 387.264768 624.062806 387.779375 625.463122 389.652014 625.356769 392.608423 622.943145 390.847848 620.798358 394.060824 619.526553 393.659755 617.786499 392.620219 617.457099 392.071698 616.365503 390.18284 616.180863 388.780573 614.873606 386.800295 614.746573 387.077504 612.136492 383.183301 609.446646 383.268823 607.987246 381.006912 607.811468 381.282647 609.519025 380.49083 608.849887 378.708137 608.795233 378.796609 608.086213 379.849415 608.281194 381.881301 606.369793 381.424201 605.38455 379.109207 605.155595 379.066445 604.287045 380.220993 603.62677 381.356373 604.440666 382.587596 604.340222 383.364667 602.498246 383.383836 599.929524 383.205419 598.484895 381.897521 597.533626 378.681596 597.365234 378.439775 596.750749 379.303843 595.852657 378.345406 594.165779 382.292692 593.251438 383.257027 592.031332 385.594139 591.152442 384.613584 589.121394 385.734218 582.286733 384.037047 582.006079 382.326606 582.902694 381.390287 581.852458 382.193899 580.619058 384.432218 579.666312 383.364667 576.97942 383.251129 571.437243 380.588149 571.496328 379.604645 568.945332 380.334531 568.053148 379.901023 566.061982 380.641231 563.56564 386.135287 561.016121 387.297208 559.429687 386.791448 558.357294 386.791448 558.357294 389.065155 553.692531 388.417842 549.900749 388.703898 545.764796 389.458852 544.237448 391.564464 544.584573 392.197033 542.686466 392.347433 538.352579 391.788591 537.650944 392.632015 537.515048 394.64031 532.26682 395.865635 532.470663 396.263754 534.284574 397.36522 534.179698 397.506774 533.005383 396.492305 532.41601 397.879827 531.816297 397.99189 528.612411 400.006082 528.030423 400.905539 526.446944 400.787577 521.570952 402.950696 519.938728 404.13326 521.219396 405.895309 519.628531 406.774122 520.217904 407.359506 518.801341 409.083218 519.433551 409.633214 521.563566 410.492858 520.300624 411.22127 520.696493 410.913096 519.811695 412.203299 519.833852 413.413879 518.279915 416.399779 518.312412 416.640125 517.47045 417.415722 517.315352 417.657543 515.216356 419.216109 514.62846 419.707124 513.743662 420.249747 514.681637 420.935398 514.163166 420.43701 512.067124 421.600405 510.728848 420.877891 508.4718 421.140356 507.164543 423.825454 506.584033 423.937517 505.778999 426.414708 504.372775 425.742328 501.572145 426.348355 500.341699 429.002488 500.264888 430.331029 499.037397 431.836513 499.473149 432.921758 498.202821 432.656345 495.329811 434.107271 493.425796 433.996682 492.057977 432.513317 490.837871 431.681688 491.03876 431.299788 489.638445 429.670445 490.301675 428.707585 489.96489 428.753295 488.774326 427.522072 489.121451 425.677449 485.133211 422.924523 485.828937 422.22855 484.672348 420.111142 483.947079 418.78555 485.425682 417.595613 485.14946 416.783154 486.532049 416.129942 485.978127 416.088655 484.515773 415.205419 484.366583 414.978343 483.236582 415.995761 482.854006 416.321629 480.808187 417.243203 480.830344 418.607133 478.780093 418.198691 477.685543 417.137038 477.109464 416.855405 475.103527 415.864529 474.333944 416.237582 472.54219 417.813842 471.915889 419.708598 474.156689 419.587688 474.780036 421.550272 475.740168 423.719289 475.322141 425.680398 473.685486 426.737628 474.362009 428.281449 474.016362 429.660123 475.447697 433.271219 475.468377 434.552576 474.357578 434.409548 475.065121 435.239701 475.907083 436.139158 475.403383 438.390747 476.01639 442.457469 475.756416 444.192978 476.66928 445.065893 476.33545 444.53654 475.329527 446.345775 475.370886 448.385034 474.239408 448.523638 472.512648 451.35029 472.028151 453.191964 470.655901 453.191964 470.655901 457.236568 473.587996 461.800203 473.511185 464.976316 472.066556 465.794673 469.769625 467.646669 468.629284 468.047738 466.957178"></polygon>
            </g>
        </g>
    </g>
</svg>