<?xml version="1.0" encoding="UTF-8"?>
<svg width="33px" height="42px" viewBox="0 0 33 42" version="1.1" xmlns="http://www.w3.org/2000/svg" xmlns:xlink="http://www.w3.org/1999/xlink">
    <!-- Generator: Sketch 52.5 (67469) - http://www.bohemiancoding.com/sketch -->
    <title>IN-GA</title>
    <desc>Created with Sketch.</desc>
    <defs>
        <filter x="-2.5%" y="-2.2%" width="105.1%" height="104.5%" filterUnits="objectBoundingBox" id="filter-1">
            <feOffset dx="4" dy="4" in="SourceAlpha" result="shadowOffsetOuter1"></feOffset>
            <feGaussianBlur stdDeviation="4" in="shadowOffsetOuter1" result="shadowBlurOuter1"></feGaussianBlur>
            <feColorMatrix values="0 0 0 0 0   0 0 0 0 0   0 0 0 0 0  0 0 0 0.5 0" type="matrix" in="shadowBlurOuter1" result="shadowMatrixOuter1"></feColorMatrix>
            <feMerge>
                <feMergeNode in="shadowMatrixOuter1"></feMergeNode>
                <feMergeNode in="SourceGraphic"></feMergeNode>
            </feMerge>
        </filter>
    </defs>
    <g id="views" stroke="none" stroke-width="1" fill="none" fill-rule="evenodd" opacity="0.2">
        <g id="Overall-2" transform="translate(-692.000000, -766.000000)" fill="#FFFFFF">
            <g id="india" filter="url(#filter-1)" transform="translate(524.000000, 29.000000)">
                <polygon id="IN-GA" points="170 741.354816 174.621606 740.924093 175.603697 739 176.116407 740.550005 178.018486 740.803371 178.740612 743.93468 179.630272 745.003289 180.512709 745.214924 183.479203 743.74391 183.479203 743.74391 184.913345 743.687275 185.418833 742.755782 186.116407 743.78415 186.670999 743.220783 187.387348 743.617227 187.78885 745.053962 187.358463 746.46089 188.354997 747.742625 187.420566 748.917052 188.212016 750.410422 188.216349 752.163121 189.598498 752.85019 190 755.240775 187.456672 756.374961 188.942808 757.482321 189.40208 758.74021 188.425765 760.053243 188.086366 761.57195 188.811381 763.37085 187.582322 764.947682 187.836511 765.721194 186.074523 767.174324 184.87435 766.223456 184.972559 767.573749 183.883593 767.204132 182.614096 768 182.614096 768 180.967649 767.268219 181.286828 765.993936 178.666956 762.534741 177.004622 761.95498 178.113807 759.96531 176.493356 753.993319 175.846332 752.760767 174.862796 753.073749 173.099365 751.467109 175.945985 751.905283 176.549682 751.322541 175.10543 750.125758 173.249567 749.821719 173.786828 748.748638 172.553437 748.75758 171.68833 744.904923 170 741.354816"></polygon>
            </g>
        </g>
    </g>
</svg>