<?xml version="1.0" encoding="UTF-8"?>
<svg width="207px" height="164px" viewBox="0 0 207 164" version="1.1" xmlns="http://www.w3.org/2000/svg" xmlns:xlink="http://www.w3.org/1999/xlink">
    <!-- Generator: Sketch 52.5 (67469) - http://www.bohemiancoding.com/sketch -->
    <title>IN-GJ</title>
    <desc>Created with Sketch.</desc>
    <defs>
        <filter x="-2.5%" y="-2.2%" width="105.1%" height="104.5%" filterUnits="objectBoundingBox" id="filter-1">
            <feOffset dx="4" dy="4" in="SourceAlpha" result="shadowOffsetOuter1"></feOffset>
            <feGaussianBlur stdDeviation="4" in="shadowOffsetOuter1" result="shadowBlurOuter1"></feGaussianBlur>
            <feColorMatrix values="0 0 0 0 0   0 0 0 0 0   0 0 0 0 0  0 0 0 0.5 0" type="matrix" in="shadowBlurOuter1" result="shadowMatrixOuter1"></feColorMatrix>
            <feMerge>
                <feMergeNode in="shadowMatrixOuter1"></feMergeNode>
                <feMergeNode in="SourceGraphic"></feMergeNode>
            </feMerge>
        </filter>
    </defs>
    <g id="views" stroke="none" stroke-width="1" fill="none" fill-rule="evenodd" opacity="0.2">
        <g id="Overall-2" transform="translate(-521.000000, -473.000000)" fill="#FFFFFF">
            <g id="india" filter="url(#filter-1)" transform="translate(524.000000, 29.000000)">
                <path d="M44.4362715,521.120328 L45.3434949,522.15974 L44.7102058,522.876728 L43.2197674,521.865289 L44.4362715,521.120328 Z M29.3036089,520.519648 L29.6114169,520.998131 L27.7012404,522.398245 L27.9663381,521.054076 L29.3036089,520.519648 Z M56.194829,516.685896 L56.7515342,517.525082 L54.6189702,518.133123 L54.8413577,517.192352 L56.194829,516.685896 Z M11.4654771,492.707283 L13.1267563,493.281462 L13.2121767,494.116231 L11.9014156,494.4681 L11.9529624,494.995167 L10.8483885,494.123592 L11.7644485,493.78939 L11.4654771,492.707283 Z M12.4154107,490.684405 L13.3064337,491.361642 L13.2887605,492.243523 L12.0634198,491.417588 L11.7629757,490.750656 L12.4154107,490.684405 Z M8.83364571,487.14216 L9.51259047,487.959261 L9.16943618,489.731856 L8.38150679,489.229817 L8.49343695,488.041707 L7.25189587,489.156204 L6.97796154,488.757223 L8.83364571,487.14216 Z M9.11936216,483.25099 L9.09285239,484.440572 L7.5258302,486.232306 L7.68047055,484.578964 L9.11936216,483.25099 Z M8.32112342,482.313164 L8.63776794,483.111126 L7.83363813,483.594026 L7.65396078,482.600254 L8.32112342,482.313164 Z M5.30784579,476.279864 L6.52434986,476.958573 L7.39769963,476.622899 L6.29312572,481.326753 L3.96321116,483.705917 L2.71283349,483.418827 L3.27837533,483.140571 L2.67895989,482.563447 L1.72018974,482.935928 L1.96908706,483.457106 L1.07953687,483.485079 L1.22534063,482.918261 L0.359354712,483.261296 L0,482.330831 L0.565541841,481.552008 L2.5685025,481.485757 L4.41829561,479.003535 L5.30784579,476.279864 Z M4.10606938,476.488924 L4.25481867,478.650194 L2.89103808,479.623355 L2.88220149,476.774542 L4.10606938,476.488924 Z M9.56413726,475.414178 L10.1900625,477.971485 L7.74085392,478.482357 L8.33143277,477.320748 L8.06486227,476.232752 L9.56413726,475.414178 Z M6.13259431,474.352683 L6.97648878,474.374766 L7.40653622,476.101721 L5.58030736,475.979524 L5.36528364,475.212479 L6.13259431,474.352683 Z M7.88076662,471.920518 L7.88518491,474.092093 L5.88958805,473.885978 L5.05011188,474.910667 L5.13847779,473.249964 L7.88076662,471.920518 Z M10.6746022,471.839544 L11.3638563,472.53592 L12.1871321,472.737619 L10.1988991,474.557326 L9.39329649,474.230485 L9.47724411,473.501719 L10.8321881,472.507947 L10.6746022,471.839544 Z M9.11936216,469.993336 L10.2416093,472.284165 L7.92936787,474.828221 L8.7114062,472.053021 L8.31228683,471.500925 L7.458083,471.829238 L8.06633504,470.386428 L9.11936216,469.993336 Z M7.51699361,469.900584 L6.89990499,471.930823 L4.88663494,473.058571 L4.66572016,475.804326 L4.1517251,476.213613 L3.62152963,475.627655 L2.44773575,476.689151 L2.48160935,480.073865 L1.60825958,480.437512 L0.195877773,478.762086 L1.48160177,477.294248 L0.821802988,475.293453 L1.49043836,475.247813 L2.79972664,472.603644 L4.57293595,472.510892 L5.35202875,470.499792 L6.46543925,470.909079 L7.51699361,469.900584 Z M90.0492829,446.849491 L95.9256161,449.312573 L97.5677493,447.775539 L98.5559747,448.838507 L101.800476,447.079163 L105.756324,447.186637 L107.142196,448.44836 L111.379341,447.191054 L111.774043,448.832618 L113.211461,449.427409 L113.769639,447.033523 L115.114274,447.297056 L115.856548,448.666253 L119.195306,446 L120.205623,446.295923 L120.195314,447.790262 L122.676923,449.079957 L124.071632,449.144736 L124.668102,448.460138 L127.291097,449.269878 L128.485509,448.95776 L127.62836,450.011894 L126.186523,449.568746 L125.314646,450.237149 L126.675481,451.643153 L128.612167,451.169087 L129.48699,452.919597 L131.218962,452.792984 L131.039284,454.266711 L131.902325,456.064334 L133.229286,455.971582 L133.008371,454.611218 L134.366261,452.706121 L135.719732,453.863313 L139.071746,454.378602 L138.955397,455.656519 L140.160119,457.608729 L144.339827,457.455614 L146.060017,458.783588 L148.14251,457.517449 L147.275051,456.853462 L148.416444,453.928092 L148.800836,453.530583 L149.980521,454.109179 L151.316319,453.115407 L151.746366,455.419486 L151.026184,456.49276 L153.647706,457.966487 L154.911339,457.134663 L155.543155,457.495365 L154.914284,458.520055 L154.356106,458.204992 L153.976133,459.619829 L152.875977,459.40488 L150.955491,463.536027 L151.926043,465.093672 L155.30604,466.449619 L154.538729,468.019042 L155.984984,469.386767 L157.37822,468.82731 L158.65658,467.272609 L158.739055,465.882801 L159.920213,465.444069 L159.800919,466.792654 L161.161754,468.032293 L160.893711,470.064004 L161.499017,472.057437 L159.569695,474.376239 L159.587368,476.870238 L159.995324,477.566615 L161.369414,477.142605 L163.182388,479.498213 L164.08372,479.686662 L164.236888,482.582587 L166.203029,481.292892 L168.777423,482.377943 L168.048404,484.880776 L168.705257,486.348614 L167.914383,488.077042 L168.544726,488.476023 L170.116167,487.96515 L170.792166,489.406488 L171.98216,487.872398 L172.547702,488.673305 L174.060232,488.268435 L175.976299,491.926988 L177.351862,491.782707 L177.611069,490.710905 L178.343033,490.59018 L178.952758,491.909321 L180.2429,492.085991 L180.608146,493.296185 L182.371046,493.306491 L183.360744,494.185427 L183.153084,497.206493 L184.879165,498.094263 L185.634694,496.767761 L186.821742,496.894375 L188.120721,499.211704 L187.946935,500.000833 L189.187003,501.077051 L190.667132,503.828695 L189.768746,504.339568 L190.397616,505.39223 L191.580247,506.514088 L193.154633,505.694042 L194,507.870035 L191.662722,512.121907 L191.079507,515.017832 L187.41674,514.976609 L183.961632,519.203452 L181.292982,518.093372 L180.303284,519.503792 L180.558072,520.086805 L181.862942,519.500848 L181.642027,520.923046 L182.419647,520.849433 L183.026426,522.408551 L183.681807,521.218969 L184.201693,522.033126 L184.991095,521.635617 L185.119226,520.516703 L185.544855,521.866761 L187.067694,522.000736 L188.30629,523.280126 L187.189934,523.096094 L186.235582,524.472652 L185.611129,524.17084 L185.12659,525.684318 L183.375472,525.341282 L182.68769,524.038337 L181.454986,524.416706 L181.058812,526.884205 L182.05882,528.276958 L181.571334,528.996891 L183.020535,529.294286 L183.251759,533.105954 L184.004343,532.848309 L184.807,533.474018 L182.247334,535.825208 L183.977833,536.785119 L183.736299,537.855448 L173.393069,542.172099 L174.454933,543.249789 L174.030776,544.167004 L176.039628,546.231105 L175.708256,548.050812 L172.686142,548.710382 L173.823117,549.592263 L174.942418,552.969615 L181.385766,550.87018 L184.979313,550.867236 L185.655312,551.800645 L186.574318,551.180826 L187.56107,551.657836 L188.658281,550.683204 L189.363735,551.475277 L189.335753,552.971088 L186.929254,554.053195 L186.29302,553.502572 L186.094196,554.179809 L183.206104,554.031111 L182.591961,554.541983 L181.303291,553.426014 L180.728913,555.481282 L178.267922,556.382302 L177.778964,556.043683 L177.644942,559.493176 L175.902661,560.647424 L174.057286,560.482532 L173.76126,563.622851 L171.266396,563.780382 L171.113229,564.728514 L169.406294,564.272115 L168.021894,564.912546 L167.306131,563.485931 L166.53882,563.755354 L168.747968,565.710508 L171.603659,565.523532 L171.282597,567.446297 L172.289968,568.925913 L173.30323,568.526932 L173.571274,569.398506 L176.347436,569.821044 L175.995445,571.232936 L177.538903,574.51312 L177.67587,577.71969 L176.792211,578.335093 L175.703838,578.134866 L175.026366,579.290586 L173.764206,579.306781 L174.463769,580.182773 L174.2458,581.864088 L171.468165,583.448234 L170.013073,583.087531 L169.07934,583.611654 L168.033677,583.058086 L167.12498,581.189795 L165.001253,579.960462 L163.770021,580.628866 L163.282536,578.541209 L162.391513,578.762047 L161.967357,580.254913 L160.820073,580.983679 L161.980612,582.53838 L163.228044,582.915278 L163.258972,584.234418 L163.842187,584.334531 L161.653658,588.450956 L160.469554,589.241556 L161.459253,590.487084 L161.659549,595.2513 L159.94525,595.694449 L159.73759,595.018684 L159.282506,595.504528 L157.996782,595.220383 L157.316364,597.101925 L155.073343,598 L154.445945,597.415515 L155.443007,596.103736 L154.875992,595.539862 L152.898068,595.226272 L153.03209,596.340769 L152.257416,596.867836 L151.286863,596.305435 L150.946655,596.870781 L150.774341,594.479839 L151.811168,594.404754 L153.283933,592.498184 L153.92164,592.629215 L153.382608,591.626609 L151.886279,592.02559 L151.716911,590.204411 L151.208807,591.311547 L149.962847,591.43816 L149.768442,592.477572 L149.018805,591.62072 L149.039424,592.484934 L148.113054,592.446655 L147.917177,593.113586 L146.74338,592.40396 L146.083581,592.885387 L147.495966,595.052546 L144.53865,594.612342 L143.308891,595.919704 L143.330983,597.2624 L142.304465,597.137259 L142.298574,597.904303 L140.319178,597.527406 L140.875883,592.448127 L142.905354,589.868737 L144.856767,585.638949 L145.251469,582.803386 L141.996657,572.66544 L142.048204,571.070988 L141.379569,571.390467 L139.87293,567.661246 L141.328022,567.078233 L139.316225,566.8412 L139.796346,564.569511 L138.142431,564.169057 L137.895006,566.384801 L136.918563,566.786726 L136.644629,561.959203 L135.702059,559.705181 L136.859652,556.734171 L139.059964,554.000194 L137.466432,555.014577 L138.355982,552.161348 L139.307388,551.777089 L138.638753,551.420803 L136.865543,553.085924 L135.992194,551.108685 L136.9436,548.985694 L139.186621,547.841752 L141.850854,548.052284 L143.323619,547.302907 L141.618157,547.457493 L140.273522,546.587391 L134.149764,547.419215 L133.216031,546.20166 L134.235185,545.066552 L135.142408,542.151487 L133.541512,541.051713 L133.062864,537.823058 L134.459045,531.356915 L135.512072,529.702101 L137.534179,529.160311 L140.822864,530.611954 L142.50918,528.203346 L144.641744,528.938001 L145.3958,528.589076 L145.772827,527.146267 L145.207286,528.187151 L144.300062,528.313765 L143.588717,526.999041 L140.76248,528.699495 L138.784556,528.450684 L137.132114,526.925428 L134.263167,528.296098 L134.142401,527.284659 L132.557705,529.81252 L132.763892,528.496324 L132.087893,528.441851 L130.990683,526.365972 L129.696122,525.766764 L130.289647,524.469707 L129.270493,523.577521 L128.704951,524.038337 L129.732942,524.743547 L129.080507,525.990547 L130.332357,526.486696 L130.417777,528.812859 L129.896418,529.733018 L128.559148,527.361216 L128.738825,529.548986 L129.638685,530.77243 L129.1674,531.377527 L128.540002,530.273336 L128.165919,532.206406 L127.557667,532.031208 L126.161486,538.578325 L125.023038,534.693045 L126.401547,533.886249 L126.752065,534.244007 L126.803612,532.73789 L124.808015,534.501651 L124.747631,535.750123 L124.345566,538.045369 L125.347047,539.651599 L125.731438,544.904604 L127.008326,548.595546 L124.457497,554.845268 L121.460419,558.383096 L120.937588,559.973131 L119.927271,559.323867 L120.578233,560.201331 L120.106948,561.196575 L121.084864,562.813111 L118.139334,564.199975 L117.813853,564.912546 L117.90811,563.160563 L116.862446,565.295332 L112.024413,566.90009 L111.31454,567.393295 L111.622348,568.02342 L108.796111,568.5976 L104.187829,570.913457 L102.622279,570.96793 L102.656153,571.815949 L100.326239,573.537015 L98.3998616,573.398623 L98.6060488,573.955135 L93.1936366,575.758647 L91.5485579,576.533053 L91.3600439,577.214707 L89.5617976,577.214707 L89.1420595,577.897833 L85.5455669,577.760914 L83.311382,578.784131 L82.2598277,577.342793 L81.9652746,577.002702 L82.6574743,576.985035 L82.6604198,575.988319 L83.4763317,576.000097 L83.5484972,575.012214 L81.1051797,574.146528 L83.6736823,573.014364 L83.2642535,571.063627 L82.000621,570.233275 L79.6898524,570.548337 L78.7841018,569.592844 L76.8533066,574.382089 L76.6913024,577.024786 L74.8665463,576.814254 L69.4541342,574.099416 L58.9901373,565.834178 L47.0681029,551.874258 L48.6439617,550.245944 L47.8309953,547.874142 L47.4289304,548.468933 L45.9222916,548.2584 L47.2065429,549.465649 L46.5305436,549.767461 L47.41273,550.481505 L46.829515,551.544473 L32.2461938,538.229401 L23.7763211,528.47424 L23.1165223,526.008214 L24.6157973,522.620555 L27.1666266,520.438674 L27.715968,520.715458 L26.4405534,522.012514 L27.2108096,523.228597 L31.0738727,522.306965 L31.3905173,523.034259 L29.9604622,525.980241 L32.263867,527.80142 L34.9531363,526.697229 L35.381711,525.419312 L38.0194335,525.887489 L40.0489039,525.216141 L41.240371,523.512742 L40.4524416,521.912401 L42.0636467,522.932673 L42.4141649,524.560987 L45.2742749,524.450568 L45.5658824,523.300737 L46.6439466,523.235958 L46.610073,521.670951 L45.8059431,521.413306 L47.5438061,520.647734 L48.0489646,522.075821 L48.5114128,521.716591 L49.6837339,523.097566 L50.8737282,521.302887 L51.9193915,521.551698 L53.7971672,519.494958 L54.6071881,519.930746 L54.4628571,518.795637 L57.1241438,517.691446 L57.9297464,518.225875 L60.9444968,518.069816 L63.4113785,514.381818 L63.7191864,512.027682 L65.2685354,511.225303 L66.8281938,507.466637 L68.9695944,505.414314 L71.1375048,500.660403 L69.4070057,501.085885 L68.3024318,502.141491 L67.8488201,504.885774 L66.6411526,505.477621 L63.2493743,503.840473 L62.7103422,504.600157 L60.9120959,505.071278 L59.7221016,504.470598 L59.996036,505.671958 L49.7102437,508.130624 L48.2978619,509.155313 L46.8589703,511.795066 L44.9237568,510.955881 L43.6218323,511.176719 L42.1917773,510.068111 L39.6556756,510.696764 L36.0429826,508.85939 L31.1784391,508.535494 L19.3771714,500.918048 L17.6731821,500.483733 L12.5008311,496.031634 L12.2858074,495.401509 L14.9750762,494.16776 L14.0163065,494.279651 L13.8955397,491.600147 L12.9441334,490.460622 L11.4964052,490.275118 L11.5391154,489.181233 L10.7776958,489.116453 L9.74970567,487.613281 L9.32996759,482.061409 L9.6893223,481.242835 L10.3064109,481.326753 L10.4345415,480.119504 L13.7659364,477.859593 L14.8012899,476.167973 L16.9854007,474.985752 L16.3609483,474.52052 L12.9102598,475.171256 L10.4860883,477.878733 L10.142934,475.618822 L11.1105407,475.255175 L11.9161433,473.747586 L14.7085057,472.499114 L13.4006906,472.628672 L12.6348527,471.698207 L12.4036286,472.350416 L11.4860959,472.29447 L10.8233515,471.511231 L11.1134863,470.981219 L17.3550648,471.019498 L18.0767197,459.867168 L19.7335806,459.387213 L20.3919067,462.749843 L21.6187201,463.170907 L23.4596766,460.454597 L25.1032826,462.160941 L27.9516105,460.709297 L31.2447135,461.84735 L34.6512194,460.453125 L40.5363892,461.181891 L43.6041592,460.414847 L47.4245121,463.868756 L55.9356223,464.160263 L57.744178,463.272493 L59.5851345,459.982004 L73.6382601,455.621185 L74.7781804,456.286644 L73.5528397,458.172603 L74.0255974,459.328323 L73.6205869,461.271699 L76.1183967,462.187441 L80.7576072,462.268415 L83.4822228,461.112695 L83.2053429,459.980531 L85.5058022,458.113712 L86.698742,457.632285 L88.2024353,458.078378 L90.8107025,456.245421 L90.4145286,455.260483 L86.9903495,454.892419 L87.2201009,452.17022 L86.6943237,451.545984 L87.3791595,448.539639 L90.0492829,446.849491 Z" id="IN-GJ"></path>
            </g>
        </g>
    </g>
</svg>