<?xml version="1.0" encoding="UTF-8"?>
<svg width="109px" height="128px" viewBox="0 0 109 128" version="1.1" xmlns="http://www.w3.org/2000/svg" xmlns:xlink="http://www.w3.org/1999/xlink">
    <!-- Generator: Sketch 52.5 (67469) - http://www.bohemiancoding.com/sketch -->
    <title>IN-HR</title>
    <desc>Created with Sketch.</desc>
    <defs>
        <filter x="-2.5%" y="-2.2%" width="105.1%" height="104.5%" filterUnits="objectBoundingBox" id="filter-1">
            <feOffset dx="4" dy="4" in="SourceAlpha" result="shadowOffsetOuter1"></feOffset>
            <feGaussianBlur stdDeviation="4" in="shadowOffsetOuter1" result="shadowBlurOuter1"></feGaussianBlur>
            <feColorMatrix values="0 0 0 0 0   0 0 0 0 0   0 0 0 0 0  0 0 0 0.5 0" type="matrix" in="shadowBlurOuter1" result="shadowMatrixOuter1"></feColorMatrix>
            <feMerge>
                <feMergeNode in="shadowMatrixOuter1"></feMergeNode>
                <feMergeNode in="SourceGraphic"></feMergeNode>
            </feMerge>
        </filter>
    </defs>
    <g id="views" stroke="none" stroke-width="1" fill="none" fill-rule="evenodd" opacity="0.2">
        <g id="Overall-2" transform="translate(-716.000000, -256.000000)" fill="#FFFFFF">
            <g id="india" filter="url(#filter-1)" transform="translate(524.000000, 29.000000)">
                <polygon id="IN-HR" points="265.494042 229.863501 266.744813 229 266.918202 230.237389 268.056345 231.149852 269.59758 230.194362 271.199575 233.290801 271.986494 233.737389 272.570385 233.179525 272.279922 234.519288 273.040166 235.772997 273.678889 235.296736 275.017096 235.681009 277.342286 237.630564 277.518639 240.897626 276.092997 242.05638 276.699117 242.982196 278.384102 243.541543 278.919088 245.176558 280.444022 245.029674 282.272756 246.133531 283.369404 245.836795 285.061799 247.382789 286.610444 245.718101 286.697879 246.608309 285.552327 247.753709 287.736731 247.603858 288.449552 246.305638 289.475066 248.154303 290.467978 248.611276 290.467978 248.611276 291 249.099407 290.327192 251.234421 288.975647 252.27003 287.315855 255.621662 285.773138 256.341246 284.980292 258.118694 285.490085 258.534125 281.021985 260.632047 280.796727 262.281899 278.22405 265.703264 277.361552 269.725519 276.264904 270.523739 277.07998 272.833828 275.289776 276.574184 276.036682 278.272997 275.267547 278.961424 276.958459 282.209199 276.537584 283.326409 277.188163 284.066766 276.260458 284.531157 276.356785 285.48368 277.408974 285.989614 276.650212 288.210682 277.102209 289.255193 276.518318 289.909496 276.976243 291.424332 276.419027 294.123145 279.277722 297.651335 278.532297 299.428783 279.495569 301.247774 278.272955 301.752226 278.431524 302.563798 278.431524 302.563798 276.952532 303.451039 276.622055 302.614243 274.985975 301.939169 273.612201 303.624629 270.843906 304.191395 271.224769 308.256677 270.07477 309.951039 270.583081 310.64095 268.84771 310.642433 268.130443 312.235905 267.515431 312.268546 267.596938 313.479228 268.892169 315.164688 271.656018 314.514837 272.806016 314.976261 272.822318 313.979228 274.147187 314.948071 274.882238 314.77003 275.97444 315.698813 276.303434 317.507418 277.7765 318.700297 280.098726 317.98368 279.636355 316.749258 280.160968 316.025223 283.110062 315.167656 283.110062 315.167656 287.355868 318.523739 287.966434 320.462908 287.020946 321.175074 288.015339 322.262611 287.920494 323.188427 287.130611 323.571217 289.423198 324.34273 288.628869 324.973294 288.737052 325.954006 287.807865 325.596439 287.901228 326.538576 289.458765 326.660237 288.033122 327.422849 287.907156 329.590504 287.469979 329.24184 287.179515 330.010386 287.496654 331.476261 289.237953 333.253709 288.473264 334.133531 289.303159 334.498516 288.740016 335.405045 287.17507 335.367953 286.856449 337.032641 285.423397 336.652819 285.42636 337.949555 283.160449 337.931751 281.189446 339.783383 281.189446 339.783383 280.777462 339.451039 279.823082 340.508902 278.646408 339.246291 277.866899 340.540059 278.23887 339.710682 277.306719 339.468843 277.331912 340.29822 276.558331 340.835312 273.821157 339.313056 273.274315 340.777448 274.722187 341.278932 275.091194 342.163205 272.432563 342.048961 271.71826 345 270.591973 344.373887 269.6124 344.951039 268.939591 343.526706 269.982889 343.476261 269.0374 342.425816 269.647967 338.872404 270.357824 338.817507 270.735723 335.853116 270.123675 335.649852 270.108855 333.103858 271.447062 327.979228 267.995585 325.081602 266.470651 325.609792 266.165368 327.514837 261.814343 329.633531 262.088505 332.354599 260.193082 332.676558 258.308033 334.051929 258.316925 331.652819 255.687934 331.283383 257.049852 330.755193 255.527882 329.759644 255.910227 329.103858 257.054298 329.289318 256.221438 327.602374 253.299019 328.186944 252.031946 326.810089 250.268418 326.761128 252.642512 328.523739 250.837489 329.48368 252.611391 330.424332 252.197925 331.759644 250.830079 332.11276 250.358817 330.958457 249.401473 330.538576 247.11185 330.946588 248.245546 331.912463 246.418294 333.05638 247.178538 333.97181 246.773963 335.992582 247.772802 336.553412 247.600895 337.780415 248.537492 338.583086 246.97551 339.752226 244.343554 337.621662 243.152061 338.341246 240.465273 337.752226 240.90986 336.194362 239.404192 335.931751 239.241177 335.362018 239.703548 334.731454 240.468237 335.227003 241.20477 333.557864 240.259281 332.985163 241.317398 332.664688 240.680157 331.937685 241.923519 331.735905 241.776805 331.11276 242.716366 330.431751 242.096908 329.910979 241.132154 331.244807 241.055092 330.21365 239.62945 329.747774 242.471843 326.97181 243.669264 327.145401 243.629251 327.961424 244.493232 327.586053 243.009793 325.913947 243.255798 325.166172 241.957604 324.551929 242.191753 323.176558 240.204449 321.85905 239.202646 320.090504 238.174168 319.221068 234.485578 318.72997 234.731582 316.973294 230.104913 313.866469 229.762581 311.888724 227.828628 311.452522 226.99725 306.673591 226.054725 305.356083 226.514132 303.630564 225.078116 300.467359 226.611941 298.731454 226.44448 297.480712 224.074831 297.277448 223.937009 295.574184 222.397256 295.376855 222.880374 293.321958 221.792618 292.820475 223.018196 291.182493 222.864072 288.596439 221.694809 288.856083 221.300608 289.863501 220.359565 289.51632 220.492942 287.480712 217.521618 289.551929 216.171556 288.35905 213.945656 289.84273 213.010542 289.64095 211.826458 287.703264 210.310416 288.249258 209.133743 287.888724 208.32904 284.956973 205.660036 283.559347 203.038454 285.264095 199.736655 284.683976 199.477312 286.142433 198.048706 286.244807 198.078345 285.04451 196.87055 283.041543 196.048064 282.816024 195.979894 281.945104 196.405216 281.341246 197.525575 281.623145 198.626669 279.191395 197.141748 277.89911 198.348061 271.164688 197.765652 270.608309 195.879121 271.575668 194.208956 271.480712 194 269.930267 196.738656 267.148368 196.122162 265.830861 195.23447 265.648368 195.668683 264.378338 195.668683 264.378338 199.637364 265.75816 199.416552 265.123145 200.996318 263.454006 202.026278 263.718101 204.42112 262.621662 205.923824 263.816024 206.91229 263.486647 207.029364 264.531157 207.974853 264.172107 210.276331 267.476261 212.620787 266.670623 213.219498 265.385757 213.822654 266.879822 213.109833 267.728487 213.911571 268.543027 213.386959 269.249258 215.368335 270.163205 215.40983 268.781899 216.245653 268.109792 217.754285 271.194362 216.598359 272.149852 216.647264 273.482196 215.48541 274.372404 215.965564 275.534125 217.451966 276.369436 217.521618 278.514837 219.774193 277.735905 220.035017 277.011869 219.292557 276.243323 220.445519 274.089021 221.460659 274.495549 220.992361 273.265579 222.33946 272.643917 224.371223 269.207715 226.463746 270.909496 227.849375 270.703264 228.233202 271.529674 229.612904 271.394659 229.989321 270.440653 232.225594 271.081602 232.4879 269.179525 234.52559 268.583086 235.284352 269.232938 236.306903 269.047478 237.865921 271.37092 240.521588 271.930267 242.157668 271.051929 242.717848 271.385757 244.020488 269.281899 245.222355 269.615727 249.118419 267.02819 247.338589 266.330861 246.769518 264.903561 247.935818 264.351632 247.534207 261.772997 248.294451 261.390208 247.765392 261.004451 249.521511 258.624629 247.523834 257.538576 248.186268 257.535608 247.935818 256.682493 249.402955 258.108309 251.628854 258.494065 252.43652 257.799703 251.720735 257.02819 253.709521 257.804154 254.071119 256.725519 253.430913 255.813056 254.336389 255.132047 255.636065 258.762611 256.837932 258.890208 257.156553 259.623145 258.825236 258.832344 259.503972 259.676558 260.256806 259.494065 261.052617 258.586053 261.431998 255.001484 260.357579 254.672107 260.597656 254.106825 259.727748 253.192878 258.13168 254.243323 258.599979 252.891691 260.529486 252.688427 262.53902 250.707715 263.797201 250.458457 264.521878 249.501484 263.678645 249.304154 263.331867 248.284866 265.12207 246.663205 266.691463 247.630564 267.435405 246.841246 268.918844 248.548961 268.918844 249.5 270.378571 248.462908 269.184114 246.583086 269.187078 245.023739 270.162206 243.823442 269.067039 243.020772 269.948804 240.891691 268.247517 239.422849 268.360146 238.034125 267.509503 238.878338 267.044168 237.79822 267.044168 237.79822 267.303511 234.995549 267.303511 234.995549 267.881474 233.962908 267.290173 232.522255 265.468848 230.939169"></polygon>
            </g>
        </g>
    </g>
</svg>