<?xml version="1.0" encoding="UTF-8"?>
<svg width="118px" height="116px" viewBox="0 0 118 116" version="1.1" xmlns="http://www.w3.org/2000/svg" xmlns:xlink="http://www.w3.org/1999/xlink">
    <!-- Generator: Sketch 52.5 (67469) - http://www.bohemiancoding.com/sketch -->
    <title>IN-HP</title>
    <desc>Created with Sketch.</desc>
    <defs>
        <filter x="-2.5%" y="-2.2%" width="105.1%" height="104.5%" filterUnits="objectBoundingBox" id="filter-1">
            <feOffset dx="4" dy="4" in="SourceAlpha" result="shadowOffsetOuter1"></feOffset>
            <feGaussianBlur stdDeviation="4" in="shadowOffsetOuter1" result="shadowBlurOuter1"></feGaussianBlur>
            <feColorMatrix values="0 0 0 0 0   0 0 0 0 0   0 0 0 0 0  0 0 0 0.5 0" type="matrix" in="shadowBlurOuter1" result="shadowMatrixOuter1"></feColorMatrix>
            <feMerge>
                <feMergeNode in="shadowMatrixOuter1"></feMergeNode>
                <feMergeNode in="SourceGraphic"></feMergeNode>
            </feMerge>
        </filter>
    </defs>
    <g id="views" stroke="none" stroke-width="1" fill="none" fill-rule="evenodd" opacity="0.2">
        <g id="Overall-2" transform="translate(-751.000000, -171.000000)" fill="#FFFFFF">
            <g id="india" filter="url(#filter-1)" transform="translate(524.000000, 29.000000)">
                <polygon id="IN-HP" points="238.111493 168.912081 239.695263 166.445246 238.85671 164.71403 239.350064 162.297418 238.150013 160.226458 235.696577 158.156975 236.108446 155.972275 237.942597 155.957504 240.382699 157.608954 244.613988 154.542397 244.969558 153.220351 249.42456 152.201119 250.593498 149.579184 254.211427 146.539215 256.611528 146.788853 259.044223 145.698719 260.110934 145.796211 261.509511 147.428458 264.700756 146.806579 265.490419 144.228958 266.20156 144 266.961592 144.700168 267.754218 144.342698 266.982333 147.679573 268.253498 149.273414 269.269837 149.202511 270.520259 152.161236 273.029994 153.780189 274.173746 153.409425 275.401946 154.374002 277.308692 154.114024 277.612409 156.551317 278.470222 155.923529 280.157701 157.226373 280.486603 158.341619 281.089591 157.930972 282.542986 158.749311 283.246719 160.000455 284.134164 159.802517 285.095685 157.594182 287.196514 158.467176 288.106182 157.558731 289.192153 157.527711 291.187793 155.459705 293.340475 154.886572 293.70938 153.910178 295.174626 154.431611 297.585098 156.865949 296.693209 158.353436 299.365913 159.687299 300.398549 161.62827 301.459334 161.970968 301.091912 164.638696 303.551274 168.533932 305.201714 168.335994 305.143933 166.740676 306.118789 167.155754 306.988455 165.771667 307.859603 166.493992 308.822606 165.15422 310.696759 165.513166 313.264274 163.917848 313.013893 163.003494 315.609557 162.124592 315.354732 165.411243 316.150321 167.192682 313.292423 168.863336 313.370945 170.625572 312.729437 171.404028 313.719108 172.572451 315.953275 170.6108 316.831831 171.265176 316.831831 171.265176 317.894098 171.77036 317.679274 173.284436 320.181601 174.665568 318.485233 177.080703 318.54894 179.563787 317.713349 180.931625 320.821628 180.803113 322.480957 181.941994 321.903155 184.125217 322.61874 185.454649 324.184732 185.996762 326.775951 189.608386 328.004151 189.893475 325.532936 197.376701 326.567054 198.443201 326.153703 199.26154 326.867807 201.044456 328.272311 201.122745 329.867933 203.818538 326.008512 207.316422 326.316673 208.524728 327.318196 208.317927 328.762701 209.684288 328.173047 211.542539 329.747928 212.261909 329.802745 214.102434 332.219143 216.659376 332.219143 216.659376 332.490265 217.88393 334.319971 219.576741 335 221.833821 331.116874 222.121865 329.484213 220.689032 328.749368 218.607732 324.178806 218.98145 323.768418 218.002102 322.556515 217.480669 320.749032 218.548646 318.671908 218.655001 317.865948 217.198534 317.101472 216.635741 316.421443 217.070022 315.142871 215.519018 313.345759 215.615033 313.191678 216.412692 312.436091 216.22214 311.305673 217.529415 308.675933 217.653495 306.813633 219.120302 305.020965 219.31824 304.533537 220.409851 302.689016 219.553106 300.603002 220.418714 299.217759 223.056899 297.908074 223.746726 298.674032 225.684743 297.777699 227.059966 298.420688 227.641962 296.768767 226.801466 295.860581 227.427776 296.202818 228.764594 297.753994 228.709939 297.559912 231.04974 296.168742 230.238786 296.165779 232.079311 294.424965 234.26992 296.062071 236.346789 295.823543 237.234554 297.239898 238.024827 297.331754 239.61276 295.703538 240.363151 296.706543 241.627589 297.991041 241.599523 298.219199 242.692611 297.86511 243.471068 294.139027 245.601114 291.100382 246.366276 290.540358 247.286538 290.540358 247.286538 290.907781 248 290.907781 248 289.915147 247.545039 288.889919 245.704514 288.177296 246.997017 285.993501 247.146209 287.138734 246.005852 287.051323 245.119564 285.50311 246.776922 283.811187 245.237735 282.714845 245.533165 280.88662 244.434168 279.362112 244.580405 278.827274 242.952589 277.142759 242.395705 276.536808 241.473965 277.962053 240.320314 277.785749 237.067636 275.461207 235.126665 274.123373 234.744084 273.484828 235.218248 272.724796 233.970059 273.015179 232.636196 272.431451 233.191603 271.644751 232.746982 270.043202 229.664176 268.502397 230.615459 267.364572 229.707014 267.191231 228.475073 265.940808 229.334773 265.940808 229.334773 264.164437 227.288924 260.985045 225.825072 260.641327 224.053973 261.470991 222.016987 260.340573 221.3892 260.374649 219.406869 261.771744 218.322643 261.478399 217.814504 260.070932 218.201517 260.722812 216.957759 259.758327 215.906031 258.656058 216.798227 258.724209 215.768656 258.133073 216.547112 258.01455 215.799676 257.217479 216.148283 256.540414 214.823282 255.435182 215.808539 255.967057 214.973951 253.826226 211.905917 253.326946 210.096412 253.203978 211.02406 251.860218 211.501179 252.506171 213.281141 251.243896 213.66963 251.246859 214.49831 247.424476 214.947362 247.221505 213.697696 246.252575 212.965031 246.825933 211.081669 242.150181 202.687044 239.640446 196.514047 241.17977 196.610062 238.793003 191.707411 235.373601 190.091413 232.444589 187.65412 231.189721 187.085419 229.613359 187.490157 229 186.921456 231.576404 183.905122 230.28598 183.16064 230.358575 181.359998 233.889094 179.937505 237.222567 176.093969 239.961941 174.727608 237.443317 171.405505"></polygon>
            </g>
        </g>
    </g>
</svg>