<?xml version="1.0" encoding="UTF-8"?>
<svg width="157px" height="127px" viewBox="0 0 157 127" version="1.1" xmlns="http://www.w3.org/2000/svg" xmlns:xlink="http://www.w3.org/1999/xlink">
    <!-- Generator: Sketch 52.5 (67469) - http://www.bohemiancoding.com/sketch -->
    <title>IN-JH</title>
    <desc>Created with Sketch.</desc>
    <defs>
        <filter x="-2.5%" y="-2.2%" width="105.1%" height="104.5%" filterUnits="objectBoundingBox" id="filter-1">
            <feOffset dx="4" dy="4" in="SourceAlpha" result="shadowOffsetOuter1"></feOffset>
            <feGaussianBlur stdDeviation="4" in="shadowOffsetOuter1" result="shadowBlurOuter1"></feGaussianBlur>
            <feColorMatrix values="0 0 0 0 0   0 0 0 0 0   0 0 0 0 0  0 0 0 0.5 0" type="matrix" in="shadowBlurOuter1" result="shadowMatrixOuter1"></feColorMatrix>
            <feMerge>
                <feMergeNode in="shadowMatrixOuter1"></feMergeNode>
                <feMergeNode in="SourceGraphic"></feMergeNode>
            </feMerge>
        </filter>
    </defs>
    <g id="views" stroke="none" stroke-width="1" fill="none" fill-rule="evenodd" opacity="0.2">
        <g id="Overall-2" transform="translate(-991.000000, -451.000000)" fill="#FFFFFF">
            <g id="india" filter="url(#filter-1)" transform="translate(524.000000, 29.000000)">
                <polygon id="IN-JH" points="474.446233 451.966098 481.259983 452.715044 485.979258 451.767367 487.86518 451.257194 489.852399 448.197638 491.552113 449.072644 493.518477 453.514414 494.459948 452.719493 494.647647 451.515247 495.684457 452.529661 495.484841 451.283889 495.966005 451.006557 496.877683 451.690248 497.422902 451.079227 498.114109 451.840037 498.82915 451.122236 498.490995 450.702529 499.231361 450.643207 500.27264 452.79068 499.268603 453.53666 499.23732 454.551075 500.399262 455.216969 499.919589 455.479471 500.569085 456.416766 502.014065 456.624395 503.271346 457.659572 503.111951 458.601317 504.267935 458.355128 505.486485 460.102175 506.483074 458.32695 506.359432 457.079695 507.737376 456.818676 507.94593 455.856169 510.621377 456.487953 511.266404 454.364209 514.89524 451.883046 516.058672 452.492585 516.11528 454.493235 517.542384 454.144716 518.09952 457.220586 520.296783 457.090076 520.979052 455.860618 522.940947 455.762736 523.65301 454.92184 523.319324 456.72376 524.067138 456.98033 526.560845 455.274809 525.978384 454.143233 530.071997 452.977546 530.088384 451.977962 536.449274 451.162278 537.441394 452.052115 538.019386 450.669902 539.001079 450.671385 539.258792 449.387053 542.005743 450.103372 541.533518 446.532159 543.002332 445.634907 544.253655 441.922803 545.516895 442.728105 548.65116 442.68213 550.913969 445.001639 554.040786 443.388068 553.680286 444.688713 555.161018 444.519644 556.342326 445.916688 556.619405 449.369256 558.542569 449.993625 559.241224 449.090441 560.698121 450.309518 562.530415 450.029219 561.943485 450.905708 562.205667 452.594916 561.167367 454.171411 563.400382 454.792814 565.421864 456.98033 566.564441 457.337748 566.988997 455.532862 567.69957 455.427564 568.232871 452.28199 569.511008 451.694697 571.26435 449.317349 573.305197 450.825623 575.276031 450.311001 575.877857 448.878363 576.697176 448.817557 577.590978 449.67625 577.419666 450.692148 578.563732 450.56757 579.11342 451.171177 579.79271 450.598715 580.8757 451.57012 580.46902 449.946167 581.467099 448.034501 585.219577 449.25951 586.660088 442.642088 586.095503 441.934667 587.215735 440.803091 588.355333 440.703726 588.577293 439.778295 588.224242 435.056226 590.236786 432.831633 591.459805 432.276968 592.723045 432.842015 593.733041 428.27715 595.181 428.892621 595.864759 428.127361 598.368894 429.248556 598.38528 427.670578 599.104791 426.933496 598.662359 425.816751 600.476777 426.279466 600.718103 424.594708 601.735548 424 602.572742 425.263569 604.980049 425.305094 605.717435 427.141125 608.072603 427.489645 608.206674 428.366134 608.206674 428.366134 607.86107 432.775277 610.993846 434.928683 613.785488 438.281886 614 439.410496 611.367753 440.890592 611.662708 441.859031 610.70336 441.910938 610.983418 442.907556 610.293701 443.905656 609.693364 443.942733 609.764868 443.106286 609.158573 443.8493 609.833393 444.794011 611.737191 445.359057 611.294759 446.972628 612.130464 447.499115 611.230704 448.584717 611.762516 449.062263 610.861266 449.124551 612.021718 449.698496 611.317104 450.755919 610.095575 451.150414 607.639109 450.107821 608.790624 451.350627 608.442042 453.186658 608.801052 452.522246 609.30754 453.072462 608.117294 455.782016 608.906819 456.05045 607.23094 459.540095 605.797877 459.931623 604.893648 461.476974 603.471013 461.610449 603.53209 462.657491 605.24372 463.517667 605.149871 464.747125 601.403351 464.549878 602.593598 465.453062 601.397393 466.204975 601.613395 466.931675 599.039245 465.917261 598.964762 468.055836 599.566588 468.468127 598.6996 469.353515 597.175668 469.532966 597.926462 470.442083 594.766872 469.503304 593.87158 469.949706 593.481287 469.664958 594.011609 468.76474 591.066532 468.420669 591.800939 470.958188 592.746879 471.311157 592.831791 473.24062 592.079507 474.105245 591.386811 472.954389 591.215499 475.684706 590.463215 475.528985 589.527703 475.189364 589.748174 474.73703 587.729671 474.306942 588.836496 475.907166 588.285318 476.75696 587.518138 476.734714 582.614145 474.363298 581.663735 475.052922 580.372191 473.869439 579.755468 474.46118 579.630336 475.076651 578.057244 476.185981 577.187277 475.508222 578.025961 477.879638 577.161953 480.36525 575.480115 480.694489 575.27901 480.148722 574.099191 480.12351 570.912788 480.912499 568.947913 482.334756 566.178617 482.31251 566.171168 483.003617 564.341854 483.837097 563.625322 485.228209 563.492742 486.797289 564.061796 487.261487 561.821332 488.572514 562.262274 489.090103 561.816863 489.368918 561.146512 488.658532 560.045646 489.383749 559.467654 488.842431 559.907106 487.697507 559.352949 488.15874 557.00076 487.584795 556.976926 484.394729 553.923102 483.853411 552.798401 484.937529 553.93502 486.892205 550.712864 488.206198 548.284702 487.679711 548.186383 489.707056 549.209787 491.031431 548.29215 491.224229 548.657119 492.606442 547.046786 494.644169 547.21065 496.928085 548.01954 496.95478 549.811613 499.130431 553.613251 498.657335 553.958854 499.830437 556.720702 500.689129 557.142279 502.105454 559.087788 503.748686 561.763235 503.032367 564.72023 504.338945 565.44272 503.650804 567.972179 503.813941 568.436956 504.607379 569.311392 503.904408 568.627634 505.342978 567.572948 505.679633 567.132005 505.170942 565.959635 506.044466 566.901106 506.941718 565.959635 508.15338 565.43974 510.963782 568.259685 513.476089 569.27862 512.835406 571.730616 514.41635 572.785303 517.680569 576.160895 517.793282 577.367527 520.252199 577.074062 521.064916 575.706545 521.024874 576.232399 522.709632 578.779734 523.684004 578.319426 526.07025 580.098092 527.086148 580.081706 528.489124 577.920195 528.582557 577.780166 528.09463 577.7176 528.959255 577.413707 529.77049 576.661424 529.76604 576.382855 529.847609 575.001931 529.717099 575.001931 529.717099 572.767427 529.117942 572.594625 528.180647 570.890442 527.73128 570.501639 526.963054 569.064107 526.951189 568.052621 525.524484 566.133926 526.110293 565.976021 526.838476 563.462948 525.374694 561.188222 522.033356 555.809024 520.71788 553.66241 518.088411 553.148474 519.526981 551.503878 520.219571 551.012287 521.684836 552.735835 522.740776 553.124639 524.385492 552.241265 525.616433 553.099315 525.908597 552.725408 526.558178 553.811377 526.684238 551.520265 528.779804 553.295951 530.718166 552.476633 533.258651 550.672642 536.25147 549.725212 536.727533 549.51219 538 545.001469 537.230291 545.849091 534.317557 547.183836 534.324973 546.288544 533.196363 542.530107 535.265234 541.380082 533.881537 539.710162 534.41099 538.104297 534.004631 533.577191 531.605037 532.605926 531.739996 532.446531 532.905682 531.351624 532.726232 530.636582 533.322423 528.47954 536.878805 527.850899 535.450617 526.656184 534.617136 526.605535 535.283031 526.128841 534.542983 524.986264 534.676458 524.254836 533.576026 522.647482 533.200812 521.34998 534.227091 520.649835 534.068403 522.017352 533.159286 523.477229 527.81878 524.847725 527.207759 524.834318 526.415804 524.020958 526.420253 524.177373 525.520034 523.587464 525.269397 523.226964 520.934407 519.863289 522.255815 519.63537 521.847973 517.96694 522.951371 517.427679 522.108992 516.057183 522.672556 515.284044 521.988864 513.567944 522.150518 513.290866 523.059635 506.517337 522.88315 504.959142 523.353281 504.988935 524.097778 504.060871 524.250533 503.381582 525.261982 499.113677 525.646095 497.783402 524.429984 496.147744 524.493756 494.848752 523.520867 494.303533 521.185044 490.172678 519.5166 490.172678 519.5166 490.251631 517.888198 492.60084 515.648775 494.76831 515.719961 496.974511 514.566139 497.123478 512.348962 498.021749 511.417599 498.990035 511.404251 500.369469 508.184524 501.62824 508.018421 502.225598 505.529843 501.649095 504.31225 498.781481 504.774965 498.55803 503.849534 496.864276 504.266275 496.016653 502.680882 494.708723 504.687464 494.130731 500.74252 491.145433 498.832336 492.28503 492.39733 491.447836 490.915752 490.297811 491.629104 489.028612 490.674013 489.143317 488.178019 490.801319 485.186684 490.312707 482.22056 488.157155 482.554249 488.075223 484.554899 483.074401 483.326924 481.198907 480.528386 481.656236 478.093199 480.59708 475.870089 476.411108 474.4419 476.877374 473.718166 475.837585 473.251002 474.712884 468.859656 472.868673 468.37766 472.174487 466.982099 469 466.387391 469 466.387391 471.443059 460.815528 470.632678 459.169329 472.986357 457.46974 472.316005 456.145366 471.387941 455.980746 470.80548 454.387938 471.16747 452.842587"></polygon>
            </g>
        </g>
    </g>
</svg>