<?xml version="1.0" encoding="UTF-8"?>
<svg width="252px" height="193px" viewBox="0 0 252 193" version="1.1" xmlns="http://www.w3.org/2000/svg" xmlns:xlink="http://www.w3.org/1999/xlink">
    <!-- Generator: Sketch 52.5 (67469) - http://www.bohemiancoding.com/sketch -->
    <title>IN-JK</title>
    <desc>Created with Sketch.</desc>
    <defs>
        <filter x="-2.5%" y="-2.2%" width="105.1%" height="104.5%" filterUnits="objectBoundingBox" id="filter-1">
            <feOffset dx="4" dy="4" in="SourceAlpha" result="shadowOffsetOuter1"></feOffset>
            <feGaussianBlur stdDeviation="4" in="shadowOffsetOuter1" result="shadowBlurOuter1"></feGaussianBlur>
            <feColorMatrix values="0 0 0 0 0   0 0 0 0 0   0 0 0 0 0  0 0 0 0.5 0" type="matrix" in="shadowBlurOuter1" result="shadowMatrixOuter1"></feColorMatrix>
            <feMerge>
                <feMergeNode in="shadowMatrixOuter1"></feMergeNode>
                <feMergeNode in="SourceGraphic"></feMergeNode>
            </feMerge>
        </filter>
    </defs>
    <g id="views" stroke="none" stroke-width="1" fill="none" fill-rule="evenodd" opacity="0.2">
        <g id="Overall-2" transform="translate(-657.000000, -26.000000)" fill="#FFFFFF">
            <g id="india" filter="url(#filter-1)" transform="translate(524.000000, 29.000000)">
                <polygon id="IN-JK" points="206.817923 1.77501012 208.590554 3.84585525 212.132848 3.69868105 214.642716 3.55002023 216.855908 1.77501012 219.217438 0.887505059 221.580451 2.07084514 224.088835 5.76952618 227.040748 10.0598773 230.879717 14.4974026 232.547028 17.8110521 237.56528 21.0652373 242.436677 23.4319175 246.569354 27.2792593 251.440751 28.9056086 255.278237 32.9001247 257.64125 34.9709698 261.625591 35.4139791 265.021031 39.1126601 265.167885 41.7751753 264.430649 43.9946812 265.46456 46.8058572 267.235707 49.4683724 271.220047 50.6517125 276.091445 50.6517125 281.553224 52.2795484 284.800328 55.2378986 286.12943 59.0837539 287.605386 61.746269 292.771975 62.3379391 298.708434 59.6189328 303.842388 58.343423 307.975065 58.343423 310.971479 53.6100627 314.36692 50.6517125 318.352743 49.7642074 321.599847 48.4322065 324.551759 46.2141872 329.718347 45.7696914 333.999362 47.1016923 336.656083 48.5808674 338.427231 47.5447015 338.427231 43.6988462 340.050041 41.7751753 342.708245 41.0363311 346.397394 43.9946812 348.316879 46.2141872 350.678409 46.8058572 355.254615 47.8405365 358.79691 48.8767024 361.748822 47.5447015 363.815161 46.8058572 365.734645 49.9113816 367.505793 52.8712184 370.01566 54.2017327 373.114426 56.4212387 374 58.7879188 373.262764 61.3032598 373.704809 63.965775 373.557955 65.8879593 372.230336 68.4033003 372.081999 70.1783104 370.606042 72.2491555 370.310851 74.4686615 370.457705 78.3145167 369.27694 81.2728669 368.096175 84.0840429 367.210602 86.1548881 366.620219 89.4090733 364.405543 90.5939 361.984678 91.6583114 358.885912 93.1374865 358.885912 96.0958367 357.705147 98.0195076 354.900088 97.8708468 351.799839 98.0195076 350.323883 99.3500219 350.619074 100.977858 351.948176 103.344538 352.704696 106.445603 351.412678 111.992137 348.368797 115.320653 346.523481 116.059497 343.571568 115.320653 340.250296 114.211643 338.219558 115.136314 335.267646 115.690819 333.515782 116.245323 332.777063 118.002494 333.42233 120.590679 334.53041 122.902355 335.822428 125.029691 337.851682 128.35672 337.298384 130.391886 335.728975 131.778892 333.515782 132.702075 333.146423 134.737242 333.42233 137.141087 332.713278 138.205499 337.295417 142.425979 337.556491 144.919021 340.987533 146.303053 347.954936 146.763902 348.129974 147.914537 346.249057 152.242053 346.173405 154.147884 349.157951 157.461534 349.86107 160.645849 351.789455 162.229086 352.750681 165.51003 352.163265 167.841032 349.140151 168.622988 344.922921 172.260718 343.25116 170.927231 341.530447 171.388079 339.15705 173.096192 338.471732 176.493091 336.756953 176.066435 334.520026 177.55453 332.579774 176.662565 328.433746 172.693321 327.890832 169.294935 328.407046 168.174032 327.339017 164.577927 324.496874 166.300906 323.605367 167.851438 321.096983 167.658179 319.256117 169.095729 318.234073 168.865305 316.977656 169.726051 316.931672 171.355374 316.052031 170.696806 313.815105 172.671022 312.824212 171.495115 313.466512 170.711672 313.387893 168.938149 316.24932 167.256795 315.452749 165.463946 315.707889 162.156243 313.109019 163.040774 313.359709 163.960985 310.789024 165.566522 308.912557 165.205276 307.948364 166.553629 307.076141 165.826678 306.205401 167.21963 305.229342 166.801893 305.287193 168.40743 303.634716 168.606635 301.172316 164.68645 301.540193 162.001635 300.478098 161.656742 299.444187 159.703339 296.768182 158.360932 297.661172 156.863918 295.247724 154.413987 293.780668 153.889215 293.411308 154.871863 291.255967 155.448667 289.257864 157.529918 288.170551 157.561137 287.25976 158.475401 285.156337 157.596815 284.193628 159.819295 283.305088 160.0185 282.600486 158.759343 281.145297 157.935762 280.541564 158.349039 280.212255 157.22665 278.522693 155.915462 277.66382 156.54727 277.359729 154.094367 275.450627 154.35601 274.220911 153.385254 273.075747 153.758393 270.562913 152.129071 269.310946 149.151395 268.293352 149.222752 267.020618 147.618702 267.793456 144.260454 266.999851 144.620213 266.238881 143.915561 265.526862 144.145985 264.736224 146.740116 261.541038 147.365978 260.140734 145.723276 259.072705 145.62516 256.637007 146.722277 254.233943 146.47104 250.611546 149.53048 249.441164 152.169209 244.980661 153.194969 244.624652 154.525483 240.388138 157.611681 237.945023 155.949654 236.108607 155.96452 235.696229 158.163213 238.152695 160.245951 239.354227 162.330176 238.860264 164.762267 239.699853 166.504571 238.114128 168.987207 235.995871 172.262205 234.183189 172.654669 233.11516 174.789438 227.453125 177.330052 226.585352 180 226.242693 178.748276 225.544024 178.4792 225.683461 177.654132 223.90638 178.232423 221.028637 177.753735 217.090281 175.26218 216.873709 174.559014 215.350285 174.92026 213.585071 172.519388 212.156582 172.077865 210.378018 173.702728 205.907132 171.924745 201.655784 172.339508 199.909854 167.705751 200.966016 165.979799 200.156094 163.755833 201.612767 159.287089 199.902438 159.907004 199.040598 162.307877 196.472879 162.933739 194.715082 164.026396 190.434067 163.5819 188.367729 162.102725 185.267479 160.62355 182.905949 158.404044 179.215317 157.073529 176.116551 154.854023 171.393491 154.854023 170.35958 152.636004 168.735286 151.155342 166.668948 149.380332 167.554521 145.683138 166.226902 143.019136 165.783374 138.434436 167.407667 136.510766 166.226902 131.777405 166.964139 130.000908 167.112476 127.782889 164.8978 125.563383 165.046137 123.492538 166.522094 121.717528 165.339845 117.131342 163.126653 114.913322 163.273507 110.622971 162.831461 107.160661 161.355505 103.463467 161.945888 99.7647856 161.945888 97.2494446 163.863889 95.1785994 167.112476 94.2910944 169.62086 93.2564151 169.769197 90.4452391 171.687199 87.0423931 173.753537 86.7465581 178.773272 86.5993839 180.544419 85.267383 181.725184 80.8298577 183.054286 78.0186817 183.054286 75.0603315 180.396082 72.3978163 176.706933 70.7699804 173.753537 69.8824754 171.98239 68.5504745 170.949962 66.3324551 171.540345 63.965775 173.606683 62.6337741 174.492257 60.858764 173.016301 57.6045788 169.916051 57.751753 166.373756 57.3087437 163.421844 56.4212387 158.255256 55.9767428 155.450197 53.4034242 154.122578 50.740909 153.088667 46.8950537 149.104327 44.9713828 144.528118 43.9352169 141.574723 45.8588879 138.329102 46.0060621 137.146854 44.2310519 137 40.9768667 137.73872 39.3490308 137 36.9823507 137.590382 34.6156705 139.066339 31.2128245 142.608634 28.6989701 146.299266 25.5919591 149.69471 21.8932781 152.941813 17.7515878 154.270915 13.6098975 157.221345 11.6877132 161.79755 12.1307224 167.554521 12.7223924 174.050212 13.0182275 177.148978 12.2778966 174.345403 9.17237221 171.871137 7.80469273 173.100853 6.03562904 176.116551 5.62086537 178.773272 7.98903214 182.610758 8.87505059 184.528759 6.50985704 187.186964 5.918187 189.695348 4.73336031 191.761686 3.69868105 195.010273 2.07084514 197.224949 0.29583502 200.472053 0 202.980437 0.444495833"></polygon>
            </g>
        </g>
    </g>
</svg>