<?xml version="1.0" encoding="UTF-8"?>
<svg width="91px" height="153px" viewBox="0 0 91 153" version="1.1" xmlns="http://www.w3.org/2000/svg" xmlns:xlink="http://www.w3.org/1999/xlink">
    <!-- Generator: Sketch 52.5 (67469) - http://www.bohemiancoding.com/sketch -->
    <title>IN-KL</title>
    <desc>Created with Sketch.</desc>
    <defs>
        <filter x="-2.5%" y="-2.2%" width="105.1%" height="104.5%" filterUnits="objectBoundingBox" id="filter-1">
            <feOffset dx="4" dy="4" in="SourceAlpha" result="shadowOffsetOuter1"></feOffset>
            <feGaussianBlur stdDeviation="4" in="shadowOffsetOuter1" result="shadowBlurOuter1"></feGaussianBlur>
            <feColorMatrix values="0 0 0 0 0   0 0 0 0 0   0 0 0 0 0  0 0 0 0.5 0" type="matrix" in="shadowBlurOuter1" result="shadowMatrixOuter1"></feColorMatrix>
            <feMerge>
                <feMergeNode in="shadowMatrixOuter1"></feMergeNode>
                <feMergeNode in="SourceGraphic"></feMergeNode>
            </feMerge>
        </filter>
    </defs>
    <g id="views" stroke="none" stroke-width="1" fill="none" fill-rule="evenodd" opacity="0.2">
        <g id="Overall-2" transform="translate(-728.000000, -861.000000)" fill="#FFFFFF">
            <g id="india" filter="url(#filter-1)" transform="translate(524.000000, 29.000000)">
                <polygon id="IN-KL" points="206 835.13907 209.91098 834 210.421302 834.949225 209.676709 835.916249 210.533215 836.13724 210.375045 836.568841 211.704569 836.395311 211.646374 838.123197 212.749089 837.92297 212.843095 836.930733 214.859018 837.608539 214.618779 838.968601 215.124625 839.483259 216.445196 839.228155 217.11518 841.202247 218.795365 839.653823 220.39348 840.490328 218.799841 841.154786 218.934137 842.606804 220.612829 843.489287 220.79935 844.570513 223.100278 843.286093 223.350962 844.444444 221.605122 844.709931 221.573787 846.118937 223.316642 847.390009 223.24651 849.927704 225.23259 849.935119 228.172166 854.2096 229.991123 854.473603 230.844644 856.090252 232.068224 855.802518 232.550195 857.008331 235.131651 856.72208 235.903103 859.462968 237.538523 860.836379 241.215231 861.385149 244.759137 859.893086 244.763614 863.658841 247.136165 863.261353 248.213513 865.269557 249.884744 865.159803 251.851425 867.457225 254.121017 866.74234 254.471677 867.885859 253.768865 868.390135 254.613433 869.705702 254.613433 869.705702 254.655214 870.841806 253.25705 870.869986 252.322951 872.120294 250.692008 872.700211 249.850424 871.801414 248.43883 872.697245 248.886482 875.995803 250.071265 875.527123 251.409743 876.467449 251.809644 876.025466 254.206071 876.815993 255.392346 878.457856 257.300833 879.550948 258.197628 879.395216 258.260299 881.259554 255.331167 883.206949 255.529626 884.788002 256.618911 884.077566 260.847723 884.615955 263.156111 883.178769 264.049922 883.886238 262.975559 885.909275 264.461761 886.638991 264.411027 888.958661 266.140453 889.118843 263.456038 889.46442 261.66394 892.832686 266.923843 894.791947 267.638592 896.491653 269.133748 896.736375 269.421737 897.650005 268.110118 900.64748 268.644316 902.08615 266.531402 902.182555 267.304346 903.478841 266.604518 908.81675 267.604273 910.549086 266.989498 912.569156 267.578906 913.120894 268.383186 912.730821 268.320515 913.451639 269.669437 914.777588 271.709234 915.283348 273.825133 914.044905 274.241448 912.874688 277.712238 910.968822 279.561037 911.157184 279.32229 912.238411 280.448879 913.871375 280.323537 914.90959 281.382978 915.327842 280.736868 918.089495 278.488167 918.923033 280.371286 921.187825 280.712993 923.282054 279.953478 923.612799 278.841811 926.018492 279.608787 926.549465 279.147706 927.629209 279.929604 928.443466 279.174565 928.713402 279.125323 930.536211 278.553822 930.729023 277.366054 934.156616 278.741836 934.214459 280.587651 935.441036 282.127571 934.563003 282.767712 935.495913 283.270574 934.499227 283.571993 936.649815 285 937.57976 284.447897 939.012496 283.063162 939.62801 282.34692 942.853893 281.497875 942.868724 280.957709 944.010761 280.957709 946.575152 280.014657 947.50213 280.487675 948.632301 278.741836 950.336457 278.31209 951.959039 276.752772 952.730285 278.252404 954.754805 278.259864 955.730727 279.017887 955.678816 280.213116 957.494209 279.328259 960.101613 278.137506 961.372685 277.474983 961.292594 280.905483 967.535233 280.354872 968.660955 278.447878 968.910127 279.165612 970.645429 276.833349 972.490486 277.609278 974.550601 276.430463 974.224305 275.635136 975 275.635136 975 271.837561 972.284326 261.12079 958.212061 258.448312 956.147496 257.588822 952.522642 251.940955 940.101139 248.799936 922.906813 249.295336 922.776295 250.621876 925.27246 252.649737 927.411184 252.652721 931.203635 253.57339 931.836947 252.540808 936.679479 253.355533 937.268295 253.355533 936.657231 257.060593 936.4926 254.379162 935.406924 254.820845 933.990501 254.543301 932.765408 253.961355 932.86033 254.30903 931.31339 253.336135 931.104263 253.171996 926.052605 252.009595 924.33955 251.497781 924.504181 251.863362 925.453407 251.342595 925.303607 249.181932 920.88526 249.650473 919.335353 247.810627 917.211461 248.990934 922.415886 248.38362 922.537505 244.487562 909.889078 238.578566 896.970715 236.93867 889.867841 233.13065 879.340339 231.472848 876.351762 229.433051 875.442583 227.090342 868.995266 222.804828 864.068194 221.251478 863.393354 218.456642 858.779229 217.35542 858.205245 216.443704 858.795544 215.827437 855.965666 209.32008 843.220834 206 835.13907"></polygon>
            </g>
        </g>
    </g>
</svg>