<?xml version="1.0" encoding="UTF-8"?>
<svg width="153px" height="232px" viewBox="0 0 153 232" version="1.1" xmlns="http://www.w3.org/2000/svg" xmlns:xlink="http://www.w3.org/1999/xlink">
    <!-- Generator: Sketch 52.5 (67469) - http://www.bohemiancoding.com/sketch -->
    <title>IN-KA</title>
    <desc>Created with Sketch.</desc>
    <defs>
        <filter x="-2.5%" y="-2.2%" width="105.1%" height="104.5%" filterUnits="objectBoundingBox" id="filter-1">
            <feOffset dx="4" dy="4" in="SourceAlpha" result="shadowOffsetOuter1"></feOffset>
            <feGaussianBlur stdDeviation="4" in="shadowOffsetOuter1" result="shadowBlurOuter1"></feGaussianBlur>
            <feColorMatrix values="0 0 0 0 0   0 0 0 0 0   0 0 0 0 0  0 0 0 0.5 0" type="matrix" in="shadowBlurOuter1" result="shadowMatrixOuter1"></feColorMatrix>
            <feMerge>
                <feMergeNode in="shadowMatrixOuter1"></feMergeNode>
                <feMergeNode in="SourceGraphic"></feMergeNode>
            </feMerge>
        </filter>
    </defs>
    <g id="views" stroke="none" stroke-width="1" fill="none" fill-rule="evenodd" opacity="0.2">
        <g id="Overall-2" transform="translate(-703.000000, -680.000000)" fill="#FFFFFF">
            <g id="india" filter="url(#filter-1)" transform="translate(524.000000, 29.000000)">
                <polygon id="IN-KA" points="182.957006 743.1246 182.042962 742.468783 183.192554 742.228021 183.099224 740.966608 185.386558 739.833699 186.097647 738.804184 186.802809 740.223644 188.107953 740.284203 190.361214 739.186744 191.119708 736.937174 189.730123 736.684596 190.648612 735.421705 191.247112 736.693458 191.808575 736.666871 191.198224 735.114476 193.629258 730.659648 192.575958 730.141198 191.14193 730.832464 190.463433 730.262317 192.524108 728.417463 194.214424 729.163381 194.113687 727.253536 194.95366 725.934517 194.649966 724.5638 192.149305 723.718919 192.109306 722.97891 190.002707 722.618506 189.399763 723.380671 189.861971 722.630322 189.064959 721.553542 189.140512 719.819468 189.687162 719.454633 190.263439 720.284743 190.494543 719.337944 189.673829 719.140018 189.556795 717.484228 188.236838 717.265622 188.347945 715.868319 187.38205 716.720585 186.897621 716.116466 187.909441 715.843209 187.61908 714.522712 188.789413 715.884566 189.263471 714.237639 190.386399 714.122428 190.293068 714.708823 191.140448 715.055933 191.561176 713.428207 193.700367 712.590711 193.854436 710.796077 194.494415 711.890583 196.150659 711.679362 196.852858 714.283428 198.784649 713.521262 198.984642 712.527198 200.46015 712.601051 199.534254 711.539041 200.639404 710.338187 200.703106 709.047232 205.565172 707.262938 207.699919 707.291002 207.332523 704.530368 208.948768 703.825807 209.046543 702.942523 207.799175 702.292614 208.151756 701.797797 211.002036 701.780072 211.052404 702.291137 212.867161 701.552604 214.440444 703.966129 215.945581 703.966129 215.745588 704.977918 216.758889 705.03257 218.834378 703.943973 219.010668 701.356155 220.773575 701.428531 222.306859 700.661934 223.431268 701.076989 224.574935 700.373907 225.337874 701.737238 227.75113 701.071081 227.920013 699.653099 228.965906 699.803759 229.00146 700.88054 230.066611 701.477274 230.983619 701.180384 230.911029 698.755043 230.028094 698.732887 231.102134 697.883575 231.105097 696.876217 229.539221 694.433151 230.596965 693.20571 230.527337 691.496746 228.854798 690.149662 229.077013 688.89268 228.200004 688.651918 228.005936 687.585478 229.161455 687.29745 229.774769 684.538292 231.075468 685.168999 231.497677 686.629816 232.919853 686.331449 234.944974 687.997579 235.639766 686.300431 236.793804 687.4939 237.577482 686.479156 237.775994 688.529322 238.93892 689.480552 242.765464 688.508643 243.51507 689.288534 244.832065 688.120175 246.131283 688.939946 246.522381 690.347589 246.415718 688.687368 248.649721 687.854303 249.625986 689.27524 251.726659 688.650441 251.994799 689.916286 252.907362 689.877882 253.725114 688.025643 252.297012 687.84101 252.643667 685.929688 251.418521 685.997633 251.329635 684.821889 252.701443 684.025751 251.722215 683.997687 252.424415 683.101108 251.615552 682.445291 251.356301 680.75996 253.960662 680.458639 254.365094 679.161776 256.243552 678.637418 256.151703 676.932885 257.308703 676.878233 257.310185 675.469113 258.847913 675.433664 258.846432 677.300674 260.124909 675.167792 261.635972 677.762995 262.484834 678.018527 262.720382 676.531123 263.634427 676.178104 263.26555 674.730581 264.724762 674.563672 265.512885 673.291919 263.941084 672.30524 264.04034 670.98179 265.966204 671.940405 269.490536 670.429367 269.529053 666.612631 270.674202 666.404365 270.437172 665.302475 271.09641 664.546217 269.678678 663.931758 270.657906 661.708775 271.70528 661.592087 272.823763 662.426629 273.099309 661.744225 273.869655 662.760446 275.457752 662.748629 275.044432 661.377913 276.733267 660.682215 277.370284 658.601031 278.475434 658.695563 278.14063 657.570039 279.67984 655.695644 279.530215 654.462294 281.924212 653 282.690114 653.762166 283.544901 653.199404 283.547864 654.720781 284.799676 655.115157 283.208616 657.636507 285.614465 657.77092 286.513695 659.279003 287.90328 658.680792 287.881059 657.765012 289.135834 658.262783 289.135834 658.262783 290.780226 658.695563 289.580264 661.202142 290.618749 662.775216 290.706154 664.470887 289.005467 665.946475 290.448384 667.355595 292.120923 667.903586 292.34462 668.674614 292.052777 669.416101 291.424649 669.048311 291.202434 670.82079 290.229132 670.647973 290.586158 671.868029 289.843959 671.791221 289.129908 673.559268 288.393635 673.277149 287.925502 674.09692 287.72699 674.705471 289.633596 675.299251 289.510636 675.848719 286.047044 677.649261 285.724091 681.191263 287.278115 681.680172 287.638104 682.498466 288.438078 681.457135 289.088428 682.223732 290.372831 681.793906 290.432089 682.764337 293.343107 683.635806 293.292738 684.691907 292.178699 684.423081 292.32388 683.712613 291.94167 684.591467 291.027625 684.787916 291.017255 685.61655 289.857292 685.29455 289.838033 686.089211 287.901799 686.163064 288.688441 686.908982 288.455855 687.938496 287.559588 688.518983 286.085561 687.99167 285.540393 690.638571 286.175928 691.037379 283.876743 692.845306 284.448576 693.198325 283.245652 694.713793 286.427772 696.564556 287.568476 699.673778 286.141855 702.831743 286.692949 707.002974 285.650019 706.872993 285.211515 709.075297 286.558138 709.158012 286.503325 710.237747 284.99967 710.734041 285.507802 711.541995 286.638136 711.245105 286.476659 713.255391 284.221917 713.863941 284.962634 715.382364 283.839707 715.609832 283.442682 716.462099 281.282751 716.227245 281.139052 716.79887 279.377627 716.977594 280.912393 719.061733 282.719743 719.807651 284.853008 720.352688 287.418852 719.933202 290.430607 721.159166 290.390608 722.78246 289.605448 722.43535 288.638072 723.557919 287.627734 723.392488 287.204044 723.97002 287.241079 724.78536 287.922539 724.816379 287.081085 726.888701 287.175896 728.25794 287.881059 728.649362 287.301818 730.981648 287.901799 731.888566 287.881059 734.489677 287.881059 734.489677 279.801317 733.309502 276.530311 733.857494 274.127425 735.17799 272.771912 737.335982 274.062242 737.612193 273.420781 740.443727 275.955514 742.851343 275.68293 743.934031 274.604446 743.047792 272.98672 743.654866 272.90376 747.923584 271.207518 747.721226 271.160112 748.213089 272.927463 749.989998 273.986688 753.601422 275.478493 753.428605 275.656265 754.622074 276.66364 754.75501 277.167327 755.601368 275.825148 756.806653 276.980667 757.679598 276.965852 759.10792 276.171804 759.307324 276.851782 760.013361 274.520005 763.849299 273.346709 763.676482 273.528925 762.920225 272.096378 762.908408 271.511212 763.519913 268.252057 762.936473 265.778062 760.96016 265.074381 761.577573 265.394371 763.319033 264.749947 764.806437 266.738031 765.406125 267.871328 764.992547 267.383937 770.079559 265.262523 770.865358 265.812135 772.284817 264.637358 776.497407 265.863985 778.85628 266.727661 779.003986 268.050582 780.73806 271.25048 780.4264 270.33199 781.479547 270.263844 782.925594 269.38091 782.480997 268.452051 783.21953 268.32761 784.609448 270.529021 786.271146 269.746824 786.963889 270.148293 787.98011 273.614848 787.997835 274.41186 788.954973 275.334793 788.8309 275.546639 786.476458 276.794006 784.882705 279.268001 785.729063 280.793878 785.092448 280.744991 786.838339 283.214542 787.05399 283.094545 788.299156 283.974517 789.51035 284.964115 788.872257 283.701933 786.232742 284.032293 785.290375 285.790755 785.770421 286.174447 786.962412 287.463295 786.975706 287.592179 790.804259 284.159696 790.3508 283.756746 791.482231 282.858997 791.647663 282.759741 792.544241 284.161178 791.830819 284.33895 792.309388 282.190871 794.860279 283.964147 795.353619 283.724155 796.563335 285.429286 796.575152 284.718197 797.609097 285.330029 798.459887 284.227842 799.38896 284.183399 798.824722 282.878256 798.860171 283.047139 796.143849 281.79829 794.799719 276.645863 795.85139 275.832555 794.250251 272.811911 793.89871 272.334889 792.477773 272.691915 790.112992 270.266807 789.588634 270.121627 790.330121 268.708339 790.548726 268.468346 791.434965 269.812007 791.556085 271.300848 793.519104 269.93941 794.866187 273.188195 797.941437 273.357079 798.833584 272.613399 798.962089 271.097892 801.461283 271.847498 803.733009 272.432664 804.043192 272.896353 802.818705 273.942245 803.849697 275.034062 803.152522 277.245843 803.348972 277.111033 801.260402 275.921441 800.353484 277.119922 800.112722 276.916965 798.756777 277.570278 798.199923 277.625091 800.022621 278.435435 799.347603 278.639873 799.972401 279.331703 798.911868 279.847242 800.666622 281.598297 800.10386 282.00421 801.100879 283.227874 800.470172 285.245588 800.803989 284.753752 801.939852 286.266296 802.009274 286.027785 805.845212 287.057382 805.721138 287.193674 804.864441 287.966982 805.532074 288.195123 803.691651 289.323976 804.558688 290.550603 803.700513 291.346133 804.213055 291.826118 803.964908 291.011329 803.325339 292.209809 802.679861 292.864603 802.626687 292.663128 803.425779 293.649763 803.136274 294.058639 804.043192 294.186043 802.21754 296.221533 801.510026 296.14598 800.781833 297.748892 800.000465 297.086691 798.480565 297.457049 797.648978 299.587351 797.765666 300.35029 798.840969 302.050976 797.152684 302.410965 798.963566 301.307296 799.378621 301.372479 801.286989 302.030236 801.279604 302.631698 799.966493 304.264239 800.244181 304.367939 799.171832 306.613793 800.62231 306.758974 802.644412 305.726414 804.019559 306.484909 804.755138 306.360468 805.571955 305.079028 805.452312 304.901255 806.1229 305.596048 807.12435 307.9219 806.701909 308.070043 807.501002 309.107047 807.729947 308.775206 809.619113 310.152939 808.645727 315.210555 808.932278 314.105406 815.977878 315.414993 816.695731 314.472801 817.084199 315.22537 817.601172 316.254967 817.115218 316.611992 817.769558 317.721586 817.468236 319.243019 819.119595 320.322985 817.735585 321 818.91576 320.727416 820.739935 319.866703 821.27611 320.739268 822.245065 318.868216 823.408992 319.463753 824.112075 318.656371 824.606892 318.739332 825.518241 317.09494 826.187351 317.29197 828.339435 316.198672 828.17105 316.606066 830.312794 314.823901 830.48561 313.803193 829.448711 312.490642 831.999602 310.567741 831.992217 309.933687 834.978842 309.933687 834.978842 306.833046 834.429374 304.539786 832.150263 303.55315 832.039483 303.136867 833.628805 302.514665 833.622897 301.40359 831.93018 300.759166 833.052749 300.276218 832.791309 301.058415 831.717483 300.539913 831.012923 296.420045 832.417611 296.873364 833.897631 294.76232 837.767541 293.906051 837.460311 293.116447 838.237248 292.369804 837.445541 290.386164 837.968422 290.618749 839.119055 289.756555 841.104231 290.018768 842.706846 290.882444 842.934314 289.920994 843.922471 291.46613 843.643306 291.307616 845.808683 290.803928 847.527987 288.909174 849.731768 286.660357 850.418603 286.519621 852.292998 294.603807 853.391935 295.90895 855.331321 293.458658 858.335671 292.559428 860.589673 287.098862 860.769875 286.866277 862.540876 286.118152 862.146499 286.226297 863.698895 285.078186 866.4743 283.224912 865.592492 282.189389 866.214336 280.90943 864.978033 279.573176 864.849528 279.116895 865.435923 275.263685 866.082878 275.46516 867.660383 274.296308 867.276346 273.828175 865.642712 272.767468 866.032657 273.056348 865.430015 272.21193 864.831803 271.22974 864.892363 270.820864 866.019364 268.963145 865.450694 266.755809 869.816898 267.450601 871.143302 267.028392 872 266.383969 871.288055 264.204779 870.870045 258.43163 870.883339 257.821279 868.989741 256.698352 868.125658 255.059886 869.471265 254.194729 869.339806 254.194729 869.339806 253.356237 868.029649 254.053992 867.527447 253.705855 866.38863 251.452594 867.100575 249.500064 864.812602 247.840858 864.921904 246.771262 862.921958 244.415782 863.317812 244.411338 859.567544 240.892932 861.053471 237.242678 860.506957 235.619026 859.139195 234.853125 856.409579 232.290244 856.694652 231.811741 855.493798 230.596965 855.780349 229.749584 854.170348 227.943716 853.907431 225.025291 849.650529 223.053502 849.643144 223.12313 847.115886 221.392815 845.850041 221.423925 844.446829 223.157203 844.182434 222.908322 843.028847 220.62395 844.307985 220.438771 843.231205 218.772158 842.352351 218.638828 840.906304 220.221 840.244579 218.634384 839.411514 216.966289 840.95357 216.301125 838.987597 214.990056 839.241652 214.48785 838.72911 214.726361 837.374642 212.724944 836.699623 212.631613 837.687779 211.536833 837.887183 211.594609 836.166403 210.274651 836.339219 210.431684 835.909393 209.58134 835.689311 210.320576 834.726264 209.813925 833.780942 205.931087 834.915328 205.931087 834.915328 204.501503 831.831217 200.599405 816.206823 199.840911 807.168662 197.860234 799.805493 196.722492 797.272326 195.524012 796.69184 194.595153 794.863233 193.647035 789.768836 192.741879 788.492652 190.011596 779.637647 191.23526 778.738114 190.347881 778.024692 190.079742 779.030573 188.641269 779.074885 188.17758 776.509223 187.401309 775.7057 187.875368 775.283259 187.306497 772.909616 186.315418 771.859423 185.393966 772.813607 182 770.246468 182.869602 770.051495 183.102187 768.73543 182.515539 768.717705 182.059257 767.163833 182.059257 767.163833 183.361438 766.37508 184.478439 766.741392 184.377702 765.403171 185.608774 766.345539 187.416123 764.9054 187.155391 764.138804 188.416091 762.576069 187.672411 760.793251 188.020548 759.288122 189.021998 757.986828 188.550902 756.740185 187.026506 755.642726 189.635311 754.518679 189.223473 752.149467 187.80574 751.46854 187.801296 749.731511 186.98947 748.251492 187.947958 747.087565 186.925768 745.817289 187.367236 744.42294 186.955397 742.999049 186.220606 742.60615 185.651735 743.16448 184.936202 742.145305 184.4177 743.068471 182.957006 743.1246"></polygon>
            </g>
        </g>
    </g>
</svg>