<?xml version="1.0" encoding="UTF-8"?>
<svg width="48px" height="108px" viewBox="0 0 48 108" version="1.1" xmlns="http://www.w3.org/2000/svg" xmlns:xlink="http://www.w3.org/1999/xlink">
    <!-- Generator: Sketch 52.5 (67469) - http://www.bohemiancoding.com/sketch -->
    <title>IN-LD</title>
    <desc>Created with Sketch.</desc>
    <defs>
        <filter x="-2.5%" y="-2.2%" width="105.1%" height="104.5%" filterUnits="objectBoundingBox" id="filter-1">
            <feOffset dx="4" dy="4" in="SourceAlpha" result="shadowOffsetOuter1"></feOffset>
            <feGaussianBlur stdDeviation="4" in="shadowOffsetOuter1" result="shadowBlurOuter1"></feGaussianBlur>
            <feColorMatrix values="0 0 0 0 0   0 0 0 0 0   0 0 0 0 0  0 0 0 0.5 0" type="matrix" in="shadowBlurOuter1" result="shadowMatrixOuter1"></feColorMatrix>
            <feMerge>
                <feMergeNode in="shadowMatrixOuter1"></feMergeNode>
                <feMergeNode in="SourceGraphic"></feMergeNode>
            </feMerge>
        </filter>
    </defs>
    <g id="views" stroke="none" stroke-width="1" fill="none" fill-rule="evenodd" opacity="0.2">
        <g id="Overall-2" transform="translate(-647.000000, -897.000000)" fill="#FFFFFF">
            <g id="india" filter="url(#filter-1)" transform="translate(524.000000, 29.000000)">
                <path d="M151.122273,974.709631 L151.062324,975.402387 L150.504794,975.992567 L149.945766,976 L149.544105,975.845394 L149.527619,975.653622 L149.701472,975.809715 L150.241017,975.766604 L150.702627,975.497529 L151.122273,974.709631 Z M169.397852,918.441823 L169.283948,919.794629 L169.09211,919.92545 L168.891279,919.454198 L169.065133,919.480956 L169.195523,919.280265 L169.397852,918.441823 Z M127.872389,917.432422 L127.993786,917.796639 L127.81094,917.735688 L127.872389,917.432422 Z M169.694602,916.819942 L169.824991,917.265922 L169.729072,917.639059 L169.694602,916.819942 Z M137.728072,903.575823 L137.954381,903.740836 L137.945389,904.064915 L136.890279,904.726452 L137.728072,903.575823 Z M170.243139,895.891588 L170.199675,896.014976 L171,896.102686 L170.067787,896.426764 L169.727574,896.304863 L169.711088,896.016463 L170.243139,895.891588 Z M123,895.945106 L123.514066,895.017468 L123.678927,894.344038 L123.879758,894.125508 L124.062603,894.134427 L123,895.945106 Z M126.72136,891.974397 L126.625441,892.044268 L126.712367,892.280637 L126.502545,892.307396 L126.546008,892.010076 L126.72136,891.974397 Z M127.827427,891.746948 L127.418272,892.06062 L127.461735,891.895608 L127.827427,891.746948 Z M140.533705,885.97894 L140.577168,886.242068 L140.175507,886.784677 L140.019639,886.591419 L140.046616,886.328291 L140.533705,885.97894 Z M142.372653,882.084048 L141.997969,883.423475 L141.467417,884.596402 L141.990476,882.678688 L142.372653,882.084048 Z M148.952104,874.575232 L149.239861,874.90823 L149.317796,875.407728 L149.194899,875.531115 L149.012054,874.777409 L148.854686,874.654021 L148.952104,874.575232 Z M123.42714,871.315118 L123.514066,871.481617 L123.383676,871.438506 L123.42714,871.315118 Z M139.985168,868 L140.064601,868.447467 L139.697411,868.807224 L139.985168,868 Z" id="IN-LD"></path>
            </g>
        </g>
    </g>
</svg>