<?xml version="1.0" encoding="UTF-8"?>
<svg width="270px" height="223px" viewBox="0 0 270 223" version="1.1" xmlns="http://www.w3.org/2000/svg" xmlns:xlink="http://www.w3.org/1999/xlink">
    <!-- Generator: Sketch 52.5 (67469) - http://www.bohemiancoding.com/sketch -->
    <title>IN-MH</title>
    <desc>Created with Sketch.</desc>
    <defs>
        <filter x="-2.5%" y="-2.2%" width="105.1%" height="104.5%" filterUnits="objectBoundingBox" id="filter-1">
            <feOffset dx="4" dy="4" in="SourceAlpha" result="shadowOffsetOuter1"></feOffset>
            <feGaussianBlur stdDeviation="4" in="shadowOffsetOuter1" result="shadowBlurOuter1"></feGaussianBlur>
            <feColorMatrix values="0 0 0 0 0   0 0 0 0 0   0 0 0 0 0  0 0 0 0.5 0" type="matrix" in="shadowBlurOuter1" result="shadowMatrixOuter1"></feColorMatrix>
            <feMerge>
                <feMergeNode in="shadowMatrixOuter1"></feMergeNode>
                <feMergeNode in="SourceGraphic"></feMergeNode>
            </feMerge>
        </filter>
    </defs>
    <g id="views" stroke="none" stroke-width="1" fill="none" fill-rule="evenodd" opacity="0.2">
        <g id="Overall-2" transform="translate(-659.000000, -562.000000)" fill="#FFFFFF">
            <g id="india" filter="url(#filter-1)" transform="translate(524.000000, 29.000000)">
                <polygon id="IN-MH" points="184.449407 537.420167 186.147002 538.36861 188.914498 538.029668 189.297347 536.972703 190.931134 536.580244 191.977292 535.212582 193.769857 535 193.851472 536.84783 195.241897 537.403814 196.299926 538.927568 195.559454 542.314017 195.795396 544.994337 197.073044 545.273816 197.274856 546.482412 204.488151 548.862441 207.929342 548.208342 212.771346 550.381735 214.553524 553.884138 217.807743 555.503033 220.285875 555.345455 220.355619 556.222542 222.203089 555.75724 223.353121 556.430665 225.527051 556.057531 228.0037 556.778527 229.891236 556.030772 231.894517 556.516887 238.563216 555.876167 241.068059 556.063477 243.666388 557.435599 245.104299 556.729469 246.984415 560.541083 246.524402 561.23978 247.402878 562.892866 247.220357 563.475609 245.577667 563.677785 247.39991 566.331346 250.180761 565.998351 250.790648 566.640557 253.728794 566.57366 256.100084 565.329386 257.177404 562.6342 261.402101 562.747181 262.574391 559.768057 261.439199 558.018342 266.398432 553.650744 266.635858 552.874744 265.739575 551.785075 266.512693 551.202332 266.745667 549.293552 267.932796 549.442211 268.511522 548.712296 270.032532 549.185031 275.350871 545.120697 278.005589 545.43734 278.431472 544.975011 279.547373 546.08252 280.081582 545.287195 281.900857 545.076099 281.995828 543.793173 287.873602 543.503288 289.945143 545.849125 290.850329 548.310917 290.839942 550.454578 291.961779 551.114623 290.715293 551.54722 287.314167 550.655267 286.054326 551.435726 286.717635 553.436675 287.680694 553.967387 288.231225 556.600136 291.256921 557.040166 291.889067 556.956917 291.788161 556.073883 293.322526 556.07983 293.827056 556.806772 294.569012 555.956443 295.00825 557.220043 295.897113 557.032733 296.395707 556.334037 297.747551 556.167539 297.931556 555.452489 300.494271 556.601623 302.26161 556.295385 309.424452 552.586346 309.785042 550.583911 312.528795 550.184018 312.432341 549.3991 313.612051 550.160233 314.627046 549.523973 315.377906 549.931298 315.953663 548.587422 317.290668 549.143406 317.523642 552.477825 319.961709 551.588845 321.761694 552.012523 322.331516 552.971373 326.522083 553.710207 327.351589 552.739465 328.151418 553.628445 328.537235 552.89853 331.494671 553.036782 331.988813 552.517963 333.109167 552.956507 333.382207 552.080906 332.257401 550.711758 332.984518 550.530394 332.530441 549.463023 335.053091 548.584449 335.522007 549.159759 337.961558 549.237061 339.816448 547.194488 342.05567 547.518565 342.32871 545.085019 346.066684 546.584987 347.486787 546.729186 348.141192 546.167255 350.40119 546.744052 351.894005 551.067052 355.33668 550.635941 357.981011 549.125567 361.846601 551.508569 363.670328 551.724125 364.309894 550.647834 366.084653 551.383696 368.260067 550.722164 369.855273 548.976908 372.131593 548.073062 374.369332 548.539851 377.798652 551.841565 379.062945 554.593241 378.372926 555.616014 378.816615 556.64176 379.966647 556.788933 380.212976 555.783999 381.368943 555.938604 384.712197 558.360257 386.681347 558.161054 386.681347 558.161054 387.191813 559.240318 386.022491 560.836914 380.493436 563.404253 379.748512 565.915102 380.184782 567.92051 379.45173 568.81841 380.440015 571.385749 383.119959 571.326285 383.234221 576.905453 384.308573 579.608071 382.055995 580.568408 381.248747 581.80971 382.189547 582.866674 383.910884 581.964315 385.618867 582.246767 384.491094 589.125213 385.477895 591.169273 383.125895 592.053793 382.156901 593.281716 378.184469 594.201914 379.147528 595.899599 378.279439 596.803445 378.522801 597.421866 381.759212 597.58985 383.075442 598.5487 383.254995 600.002584 383.235704 602.587762 382.453683 604.441538 381.214617 604.542626 380.072005 603.723516 378.910102 604.386534 378.953135 605.260649 381.282877 605.49107 381.744373 606.482625 379.699543 608.406271 378.64003 608.210041 378.550995 608.922117 380.345044 608.977121 381.141905 609.650545 380.864414 607.932049 383.140734 608.108953 383.054667 609.577703 386.973678 612.284781 386.694703 614.911583 388.686112 615.03943 390.097312 616.355061 391.998203 616.540885 392.550218 617.639474 393.596376 617.97247 394 619.723671 390.765072 621.002138 392.536863 623.160665 389.56162 625.591238 387.677052 625.696785 387.159167 624.288986 385.240469 624.922273 383.925723 621.849493 381.06029 624.008021 379.861289 626.434133 378.193372 627.152156 378.297246 628.79335 376.377064 630.348322 376.292482 632.530634 374.602306 635.395291 374.600822 637.310017 377.111601 640.738091 374.87683 642.66917 373.808413 642.835668 374.59637 644.200357 374.59637 644.200357 372.557476 644.869322 372.155336 645.582884 371.196729 644.918379 369.727656 645.565045 366.669314 642.606734 364.173375 642.029937 362.993665 640.51213 364.39151 639.594905 364.252022 634.27143 363.680716 633.431507 361.925248 633.847752 361.877763 631.573271 364.523578 629.396905 363.808332 627.569887 365.100819 625.240403 365.449539 621.848007 364.430091 619.765296 360.951802 617.386754 359.622217 615.528518 358.221405 615.214847 355.096287 616.138019 353.802316 618.474937 352.386664 617.941251 352.080978 617.007674 349.837304 618.683059 346.686959 616.262893 344.986396 616.450203 344.692582 615.641498 342.79911 614.905637 342.57504 617.71975 341.649079 618.873343 342.149157 619.656775 340.74686 619.888683 338.420087 617.681098 335.795047 617.288639 335.002638 616.563184 333.812541 616.899153 334.619789 615.807996 334.259198 613.7015 332.612056 613.093485 330.837298 613.468106 330.427738 610.115848 328.540203 609.445396 326.415241 609.839342 322.911725 608.172876 320.507788 608.034623 319.50318 608.972661 318.952649 608.208554 316.513098 607.549995 316.093151 606.142196 314.604788 606.011376 314.085419 604.948465 313.297461 607.117398 314.690855 607.457827 315.584169 609.36958 314.886731 611.586084 313.039261 612.371003 312.539183 613.243631 313.821282 615.180656 313.825734 616.245054 312.830029 616.69103 313.75599 620.031395 309.819172 621.495685 310.283637 624.119515 309.442259 627.247298 306.714829 626.643743 305.748803 627.068907 305.581121 626.116003 302.573232 623.807331 299.838382 625.090257 299.871028 625.680433 301.231775 626.233444 300.040194 626.625903 299.393209 628.534684 299.761219 629.065396 298.912421 630.541578 299.442178 632.034114 298.029494 631.644627 297.858844 633.302174 296.756298 632.951339 296.622746 634.046955 296.931399 635.590034 298.477635 635.558816 298.339631 636.636593 299.614312 636.542938 299.203268 637.882354 300.479432 637.973036 302.372903 640.791609 299.108298 641.276237 297.52348 645.304892 296.628681 644.554165 295.858531 645.570992 295.971308 649.526805 293.519886 650.426191 293.24833 649.595188 291.64719 649.761686 291.764419 652.153607 291.003172 651.841423 290.060888 652.505929 291.273244 653.091645 289.431709 653.680334 290.341347 653.991031 289.231381 656.225374 290.704906 657.24666 290.178117 658.113342 290.178117 658.113342 288.921244 657.612361 288.943502 658.534046 287.551593 659.136115 286.650859 657.618308 284.240986 657.483028 285.834707 654.945421 284.580802 654.548502 284.577834 653.017315 283.721617 653.583706 282.954435 652.816626 280.556433 654.288349 280.706309 655.52965 279.164524 657.416132 279.499888 658.548912 278.39289 658.453771 277.754808 660.548374 276.063149 661.248558 276.47716 662.628112 274.886407 662.640005 274.114773 661.617232 273.838765 662.304036 272.718412 661.464113 271.669286 661.581554 270.688421 663.81887 272.108524 664.437291 271.448183 665.198424 271.685609 666.307419 270.538545 666.517029 270.499964 670.358374 266.969738 671.879154 265.040653 670.914358 264.94123 672.246342 266.515661 673.239383 265.72622 674.519336 264.264567 674.687321 264.634061 676.144178 263.718487 676.499473 263.482545 677.996468 262.632264 677.739288 261.118674 675.127351 259.838058 677.273985 259.839542 675.394937 258.299242 675.430615 258.297758 676.848821 257.138823 676.903825 257.230825 678.619348 255.349225 679.147087 254.944117 680.452312 252.3354 680.755576 252.595085 682.451774 253.405301 683.11182 252.701927 684.014179 253.682792 684.042424 252.30869 684.843696 252.397725 686.027021 253.62492 685.958637 253.277684 687.882283 254.708175 688.068107 253.889056 689.932289 252.98387 689.981347 252.715282 688.70734 250.611095 689.336167 249.633197 687.906069 247.395458 688.744505 247.5023 690.415431 247.110547 688.998712 245.809157 688.173655 244.489959 689.349547 243.7391 688.564628 239.906156 689.542803 238.741285 688.58544 238.542441 686.522055 237.757452 687.543341 236.601485 686.342177 235.90553 688.050268 233.877023 686.373396 232.452467 686.673687 232.029553 685.20345 230.726678 684.568677 230.112339 687.345625 228.954888 687.63551 229.14928 688.708827 230.027756 688.951141 229.805169 690.216228 231.480505 691.571997 231.550249 693.29198 230.490736 694.527336 232.059231 696.986153 232.056263 698.000007 230.980427 698.854796 231.864838 698.877094 231.93755 701.318073 231.019009 701.616878 229.952076 701.016296 229.916462 699.932573 228.868821 699.780941 228.699655 701.208066 226.282363 701.878517 225.518148 700.506396 224.372568 701.214012 223.246279 700.796281 221.710431 701.56782 219.944576 701.494977 219.76799 704.099481 217.68903 705.195097 216.674034 705.140093 216.874362 704.12178 215.366708 704.12178 213.790794 701.692694 211.973002 702.435988 211.922549 701.921628 209.067503 701.939468 208.714332 702.437475 209.963785 703.091574 209.865847 703.980554 208.2469 704.689657 208.61491 707.468091 206.476593 707.439846 201.606395 709.235646 201.542586 710.534924 200.435588 711.743521 201.363033 712.812378 199.885057 712.738049 199.684729 713.738523 197.749708 714.505603 197.046334 711.884747 195.387321 712.097329 194.746271 710.995767 194.591944 712.801972 192.449175 713.644868 192.027745 715.283089 191.178947 714.933741 191.272433 714.343565 190.147628 714.459519 189.672777 716.117065 188.500486 714.74643 188.791333 716.075441 187.777821 716.35046 188.263061 716.958475 189.230571 716.100713 189.119278 717.507026 190.441443 717.727041 190.558672 719.393507 191.380759 719.59271 191.149269 720.545614 190.572027 719.710151 190.024464 720.077338 189.948784 721.822593 190.747129 722.906317 190.284148 723.661504 190.8881 722.894424 192.998223 723.257152 193.038288 724.001933 195.543131 724.852261 195.847333 726.231816 195.005955 727.55934 195.106861 729.481499 193.413718 728.730772 191.349597 730.587521 192.029228 731.161344 193.465655 730.465621 194.520716 730.987414 192.085617 735.470966 192.696989 737.03337 192.134586 737.060129 191.535086 735.780176 190.615061 737.051209 192.00697 737.305416 191.247207 739.569491 188.990177 740.674026 187.682851 740.613076 186.976509 739.184464 186.264231 740.220617 183.973072 741.360831 184.066558 742.630377 182.915043 742.872691 183.830616 743.532737 183.830616 743.532737 180.782662 745 179.875992 744.788904 178.961902 743.72302 178.219946 740.599697 176.265634 740.346977 175.738846 738.800925 174.729786 740.720111 169.981268 741.149735 169.981268 741.149735 168.997435 740.464417 169.807651 740.196831 167.192998 735.106751 164.691123 734.302507 163.8631 731.130126 162.999464 730.541437 163.379345 729.995859 162.386608 725.882467 160.927923 720.645215 160.280937 720.582778 161.445808 719.250795 160.212677 719.493109 160.185967 718.131393 158.675345 715.746905 158.718378 714.365864 159.494464 714.043274 158.691668 712.923872 159.408397 711.721222 158.856382 711.614188 158.519534 706.275847 157.458537 703.519711 157.992745 700.484097 157.268597 700.466258 157.664801 699.638228 156.750711 699.14468 158.112942 697.491594 157.112786 696.376652 155.792104 691.402526 154.731108 690.350021 155.750555 690.223661 155.922689 690.916411 156.43167 690.079462 155.284607 687.586452 154.042572 686.911541 155.241573 685.812952 154.628718 685.72227 154.567877 683.649965 153.118096 682.02661 154.085606 681.162902 152.799054 679.387915 152.393947 677.529679 153.049836 676.817603 151.600054 673.831046 151.211269 670.951523 150.823968 671.150726 149.779294 669.415877 150.037495 668.107679 148.535776 665.801979 148.940884 665.133014 147.948147 663.298564 148.466032 661.247071 146.70611 660.423501 146.844114 658.432958 147.749303 658.477556 148.274608 659.717371 150.993134 660.359578 150.579123 661.508711 151.588183 662.66379 151.346305 660.069693 150.544993 658.794199 148.629263 658.694598 147.326388 656.649052 146.177837 656.04401 146.557719 655.012317 145.599112 652.204151 146.625979 649.946023 144.348174 644.888647 144.787412 641.368405 146.246097 641.768297 147.00586 640.607272 147.93034 641.851546 148.308738 641.206367 148.498678 639.362997 146.566622 639.853571 145.987897 638.181159 147.534136 637.97155 146.964311 636.728761 147.473295 635.829375 148.206348 636.202509 149.85349 635.007291 148.9394 634.928502 148.629263 633.046481 147.688463 633.074726 147.464392 634.0752 146.032414 635.265958 144.566309 634.883904 144.023198 637.454217 142.876134 638.543886 143.367309 636.890799 142.383475 636.591995 143.091301 634.091553 143.462279 634.374005 143.824353 633.69166 143.134335 633.583139 143.471182 631.900321 142.019917 629.536644 141.959076 625.840985 142.606062 624.129921 141.320994 622.665631 140.915887 619.812867 142.019917 618.882262 142.209858 617.742049 141.545065 618.454125 140.095283 617.324317 139.92315 615.445269 140.708139 615.381345 139.129257 608.928063 138 607.438501 138.03413 606.817107 138.94822 606.592632 138.421431 604.370182 140.035927 603.070903 139.768823 599.842032 140.700719 597.66418 140.700719 597.66418 142.695097 598.044746 142.701032 597.270234 143.735319 597.396594 143.71306 596.040825 144.952126 594.720734 147.931824 595.165224 147.931824 595.165224 148.436354 596.51802 148.017891 597.852976 148.515001 598.431259 149.391993 597.71621 149.166439 598.524915 150.490088 599.931228 150.733449 598.898048 153.183388 599.385649 154.622782 600.418829 155.568034 598.142861 155.568034 598.142861 157.828031 597.236042 158.513598 595.336181 159.809053 595.623093 160.267582 595.132519 160.476814 595.814863 162.204087 595.3674 162.002275 590.556798 161.005086 589.299144 162.198151 588.500846 164.403244 584.344344 163.815615 584.243255 163.784453 582.911272 162.52758 582.530705 161.358257 580.960867 162.514224 580.225006 162.941591 578.717605 163.839358 578.494616 164.330532 580.602599 165.571083 579.927688 167.710883 581.16899 168.626457 583.055471 169.680034 583.614428 170.620834 583.085203 172.086939 583.449417 174.885596 581.849847 175.105215 580.152163 174.400357 579.267643 175.67207 579.25129 176.354669 578.084318 177.45128 578.286494 178.341627 577.6651 178.203623 574.427309 176.648484 571.115189 177.003138 569.689551 174.205965 569.2629 173.935893 568.382839 172.914962 568.785705 171.899966 567.291683 172.223459 565.350198 169.346154 565.538995 167.120286 563.564805 167.893404 563.292759 168.614586 564.733263 170.009463 564.086597 171.729316 564.54744 171.883643 563.590077 174.397389 563.431012 174.695656 560.260118 176.554997 560.426616 178.310465 559.26113 178.445501 555.778052 178.938159 556.119968 181.417776 555.210175 181.996501 553.134897 183.294924 554.261732 183.913715 553.745885 186.823666 553.896031 187.023994 553.2122 187.665044 553.768184 190.089756 552.675541 190.11795 551.165167 189.407156 550.365382 188.301642 551.349504 187.307421 550.867849 186.38146 551.493703 185.700345 550.551206 182.0796 550.554179 175.587487 552.674055 174.459714 549.26382 173.314134 548.373353 176.359121 547.707361 176.693001 545.869938 174.668945 543.78574 175.096312 542.859595 174.026412 541.771412 184.449407 537.420167"></polygon>
            </g>
        </g>
    </g>
</svg>