<?xml version="1.0" encoding="UTF-8"?>
<svg width="105px" height="50px" viewBox="0 0 105 50" version="1.1" xmlns="http://www.w3.org/2000/svg" xmlns:xlink="http://www.w3.org/1999/xlink">
    <!-- Generator: Sketch 52.5 (67469) - http://www.bohemiancoding.com/sketch -->
    <title>IN-ML</title>
    <desc>Created with Sketch.</desc>
    <defs>
        <filter x="-2.5%" y="-2.2%" width="105.1%" height="104.5%" filterUnits="objectBoundingBox" id="filter-1">
            <feOffset dx="4" dy="4" in="SourceAlpha" result="shadowOffsetOuter1"></feOffset>
            <feGaussianBlur stdDeviation="4" in="shadowOffsetOuter1" result="shadowBlurOuter1"></feGaussianBlur>
            <feColorMatrix values="0 0 0 0 0   0 0 0 0 0   0 0 0 0 0  0 0 0 0.5 0" type="matrix" in="shadowBlurOuter1" result="shadowMatrixOuter1"></feColorMatrix>
            <feMerge>
                <feMergeNode in="shadowMatrixOuter1"></feMergeNode>
                <feMergeNode in="SourceGraphic"></feMergeNode>
            </feMerge>
        </filter>
    </defs>
    <g id="views" stroke="none" stroke-width="1" fill="none" fill-rule="evenodd" opacity="0.2">
        <g id="Overall-2" transform="translate(-1191.000000, -424.000000)" fill="#FFFFFF">
            <g id="india" filter="url(#filter-1)" transform="translate(524.000000, 29.000000)">
                <polygon id="IN-ML" points="671.49554 416.599514 676.035202 414.627616 672.188056 410.102723 673.449319 409.776777 674.119733 408.757643 673.791156 407.051222 675.756723 406.288715 676.176652 405.650098 675.646215 405.201738 679.160365 402.381791 681.130351 402.955515 685.503515 401.934907 686.757411 400.706342 687.72988 400.575079 688.721504 401.433452 690.222938 400.538207 691.98517 402.492406 691.310335 404.602942 693.465975 402.431937 694.901103 403.195918 694.208588 404.055766 694.771441 404.5115 696.661862 402.738709 698.553756 402.517479 698.341581 403.955475 699.49823 404.191454 700.47954 402.692988 701.310559 403.169371 702.736847 402.707737 703.850766 404.020369 703.750573 402.999761 704.578645 402.849324 705.340412 404.912664 707.245568 404.883167 706.368872 407.127915 707.858518 406.220871 708.767629 406.091083 707.883566 406.900785 708.296129 407.191334 712.404074 405.872803 711.894265 408.694224 712.267045 410.287081 713.249828 410.496512 714.845561 409.695659 716.632842 406.561566 719.265875 406.018815 720.052691 406.486348 722.551642 405.39937 722.684252 404.827122 722.007944 405.585203 720.988325 405.455415 722.734349 403.664926 721.81787 403.765217 724.10612 399.927612 725.84183 400.293379 726.021589 402.259377 725.19499 403.110376 726.989638 404.29027 728.558849 402.628094 728.900687 399.035317 731.61476 397 733.357837 397.71826 733.183972 399.27572 734.787072 401.075059 736.913243 399.656236 738.818399 399.937936 741.295248 399.491051 742.687647 398.342129 744.626692 398.921752 746.359455 398.353928 742.011339 402.945191 742.236775 404.071989 744.143404 404.234225 742.736271 405.492287 741.912619 407.450911 742.146895 412.254554 744.252438 410.742815 747.477794 410.436043 749.066161 409.46853 750.549913 410.223662 750.517497 411.601188 751.545957 411.893212 752.664296 413.921154 754.388219 414.292821 754.847932 416.047913 755.774724 416.152629 757.343936 414.96831 757.074297 416.831068 754.690274 419.211504 755.637694 419.068442 755.976585 420.942998 757.368984 420.304381 757.548744 421.153904 757.970147 420.923825 759.338971 422.355921 759.922452 422.142066 760.647384 423.705425 761.382629 423.798342 761.624273 425.405947 760.7741 426.622713 762 427.641846 757.759445 429.075418 756.362626 431.090086 753.371547 430.332005 753.935873 431.703631 752.126491 431.416032 751.478179 433.821541 750.32595 434 750.32595 434 747.897724 433.311237 747.918352 432.427791 744.392415 431.792123 739.261904 428.638857 730.461058 429.374816 729.566681 428.982501 729.292622 429.952964 728.162495 429.696337 726.224924 430.919002 725.024071 430.137322 725.388011 429.115239 720.967696 430.541436 719.293871 429.312871 716.903954 429.239128 714.789571 428.150676 708.889925 428.38223 702.241772 429.786304 699.726613 428.842388 698.303272 429.843823 696.869617 429.258301 691.438524 429.143261 689.453803 430.180093 686.033953 428.517918 679.052804 427.383745 674.613335 424.799777 670.388988 425.049029 670.794183 424.554949 670 422.003428 671.031407 418.91948 671.031407 418.91948 671.799068 418.491769"></polygon>
            </g>
        </g>
    </g>
</svg>