<?xml version="1.0" encoding="UTF-8"?>
<svg width="284px" height="209px" viewBox="0 0 284 209" version="1.1" xmlns="http://www.w3.org/2000/svg" xmlns:xlink="http://www.w3.org/1999/xlink">
    <!-- Generator: Sketch 52.5 (67469) - http://www.bohemiancoding.com/sketch -->
    <title>IN-MP</title>
    <desc>Created with Sketch.</desc>
    <defs>
        <filter x="-2.5%" y="-2.2%" width="105.1%" height="104.5%" filterUnits="objectBoundingBox" id="filter-1">
            <feOffset dx="4" dy="4" in="SourceAlpha" result="shadowOffsetOuter1"></feOffset>
            <feGaussianBlur stdDeviation="4" in="shadowOffsetOuter1" result="shadowBlurOuter1"></feGaussianBlur>
            <feColorMatrix values="0 0 0 0 0   0 0 0 0 0   0 0 0 0 0  0 0 0 0.5 0" type="matrix" in="shadowBlurOuter1" result="shadowMatrixOuter1"></feColorMatrix>
            <feMerge>
                <feMergeNode in="shadowMatrixOuter1"></feMergeNode>
                <feMergeNode in="SourceGraphic"></feMergeNode>
            </feMerge>
        </filter>
    </defs>
    <g id="views" stroke="none" stroke-width="1" fill="none" fill-rule="evenodd" opacity="0.2">
        <g id="Overall-2" transform="translate(-703.000000, -398.000000)" fill="#FFFFFF">
            <g id="india" filter="url(#filter-1)" transform="translate(524.000000, 29.000000)">
                <polygon id="IN-MP" points="310.445524 373.318754 312.028788 373.83947 312.686383 372.355503 314.833935 372 316.024715 373.703759 317.144404 373.448564 317.916042 374.627181 321.48394 376.016741 324.373507 375.618459 326.119689 374.553426 326.355179 375.271807 326.916505 374.817471 327.701472 375.780722 329.098121 375.74827 330.756919 377.839984 331.966954 377.540535 333.336943 378.111405 333.019994 379.282647 334.733593 378.530338 335.120152 381.076388 334.312969 382.327287 334.675831 382.044064 334.8817 383.120899 335.582246 383.097297 336.83375 384.756803 336.447191 386.377955 338.874664 386.764435 338.579932 387.712935 337.63649 387.689333 337.325465 389.578957 339.092382 390.186704 338.531056 390.524506 338.870221 391.177982 337.854207 391.318118 337.535777 392.672275 337.029251 392.151559 336.093215 392.858139 336.713783 394.026431 335.577802 393.979227 335.407479 395.238976 334.243358 395.306832 334.966121 396.693441 333.16662 397.234808 335.043136 399.196712 333.218458 400.729358 332.760807 403.722368 331.112376 404.872958 331.307877 406.42183 330.18967 406.755206 330.663612 408.848396 329.093678 407.792213 328.708599 408.199345 329.434324 408.301128 329.379524 408.84102 327.094233 410.55658 329.095159 413.09968 328.905582 414.800489 324.931871 415.837495 324.050634 416.806646 322.810978 416.008609 321.959363 416.852375 319.016477 416.241677 318.053781 417.272783 317.251041 416.867126 316.611219 417.921834 316.984449 419.802607 315.641118 420.796835 314.71693 420.577043 314.180783 422.407662 313.102564 423.298632 314.211886 424.593783 313.490604 425.467052 314.641396 425.909587 314.933167 427.67235 316.273535 428.632651 315.888457 429.399711 317.782746 430.286256 316.910395 430.814347 317.673146 431.652213 316.198001 431.593208 314.102286 433.00932 314.094881 436.033307 309.068129 440.022021 309.019254 440.856936 310.420346 442.346804 310.772841 444.569803 312.264278 447.282541 311.968064 450.961481 310.753587 452.156324 312.299824 453.728798 312.215403 454.700899 315.13163 456.777863 314.047487 458.670436 315.710729 460.492205 317.419883 459.747271 319.608905 456.503491 321.874942 457.747014 324.686013 461.52036 325.60872 461.877338 326.642507 461.225337 327.066093 461.715076 327.511895 461.0675 328.486439 463.703532 329.163288 462.691602 331.189392 462.260869 332.085439 459.627787 333.917523 457.862073 334.461076 454.904465 332.110617 454.045948 332.273535 452.896833 332.797834 453.447051 333.902712 453.026643 331.278256 448.208914 328.027307 449.782863 327.177173 449.381631 326.885402 447.522985 327.888087 446.030168 327.645191 442.958977 328.14135 442.281898 327.642229 440.712375 324.663797 439.324291 324.207628 437.906705 323.227159 437.2075 323.843284 433.934217 322.455522 432.70102 321.569842 427.246042 319.340831 426.048248 318.018236 426.83891 317.190318 426.225262 317.600574 425.698645 318.421087 426.07775 319.20013 425.030418 319.45043 425.70012 320.220587 425.617514 320.728594 424.937485 320.222068 423.699863 321.805332 424.076018 321.337314 422.587626 322.181524 422.71006 322.651023 421.861869 323.430066 422.221797 324.178006 420.945822 325.202907 420.817487 325.687217 421.460637 324.686013 422.310304 324.295011 421.758611 324.337962 422.850196 325.922707 423.164396 326.06637 424.040615 327.639267 423.856225 326.980191 422.00938 329.144034 421.407533 327.350458 421.290999 326.408498 420.289395 326.629177 419.017845 327.396371 419.852761 329.669814 420.208264 330.161529 420.593269 329.173655 420.86764 329.807553 421.338202 330.516986 420.15811 329.62242 418.700695 331.100528 418.213907 331.04869 417.10167 332.165417 417.022013 332.366843 417.635661 332.797834 417.008737 333.142923 417.980839 332.352032 418.334866 332.950384 419.72 331.944738 420.846989 332.747478 421.478338 333.708692 421.119885 334.278904 423.257328 332.732667 424.080443 331.610016 423.28093 332.809682 423.218975 333.37397 422.435689 331.06202 422.861997 329.914191 424.068642 330.091919 424.741295 328.493844 425.337242 328.22429 425.921388 329.105526 425.846157 328.918911 426.827109 330.0386 428.24617 331.115338 424.329738 332.700083 424.763422 333.482088 424.145348 334.015274 426.343271 333.104415 427.107381 332.110617 426.710575 331.586319 427.693002 331.096084 427.341924 330.971675 430.389514 333.342868 428.550044 334.815051 429.373159 334.779506 428.089808 334.050819 427.710703 335.099417 426.622068 335.320096 427.598594 336.694529 428.362705 335.706656 429.691784 335.619272 431.16395 336.27983 431.333588 337.557993 429.488218 338.677682 430.451469 338.288161 431.146248 338.950199 432.262911 340.503842 432.028368 340.115801 431.191977 340.675646 430.894003 341.343608 432.161128 342.335925 432.072621 342.4944 431.245081 341.576136 430.988411 342.257428 430.560627 342.980191 430.821723 343.008331 431.879381 344.345737 431.498801 344.696751 430.868926 343.58891 429.32448 343.427474 427.60302 345.256595 429.207946 345.702397 428.752135 345.148477 428.221093 345.489123 426.765154 344.55753 427.133933 343.865871 426.170682 342.987596 426.810883 343.009812 425.492129 344.082107 424.474299 345.669814 424.717693 345.200315 426.042347 345.887531 427.015924 346.336295 426.033496 347.820328 427.22539 349.12515 426.387524 350.14857 426.84776 349.181431 426.877263 348.184671 428.384831 348.670462 428.809665 347.64408 428.938 346.845784 430.244952 347.319726 432.171454 347.815884 431.302611 348.309081 432.373545 349.465797 431.460448 349.222901 432.75265 350.132278 433.212886 352.478293 429.997133 353.227715 431.023814 353.633528 430.771569 353.480978 431.562231 358.061927 431.140348 361.481718 432.678894 361.225493 431.495851 361.98232 430.922031 361.209201 427.871491 362.922799 427.303571 363.264926 428.101609 364.168379 426.794656 365.847913 426.90529 366.59141 424.373991 368.531612 423.943257 369.771267 424.534779 371.773674 422.997708 371.960289 421.891371 373.550958 422.274901 373.881237 421.465062 375.582986 422.873798 375.375636 426.217886 377.668333 427.962948 378.320004 427.777084 379.085717 430.113667 376.840415 431.10642 374.224845 434.993351 375.765158 435.910873 377.074424 435.134962 377.797186 435.68813 377.289179 434.061077 379.611497 433.236488 380.526798 434.503612 381.270295 434.482961 381.449505 432.982768 380.710451 432.552034 381.744238 432.593337 382.795797 433.724751 383.386744 432.919338 384.761177 433.571339 384.383505 430.753867 385.555031 431.838078 384.592335 432.478278 386.297047 433.494633 387.009442 433.245338 386.831713 434.182037 388.494955 433.58314 390.005647 433.926842 390.007128 433.161257 388.434231 432.69807 388.437193 431.852829 387.638897 431.368991 390.738776 431.053316 391.611127 432.279137 391.876238 429.483793 393.170693 429.38496 394.004536 430.582754 392.766361 431.826277 392.942609 433.609692 391.578543 434.689477 392.245025 436.080511 390.441081 436.974431 390.818754 437.900804 391.833287 438.235655 393.381005 437.750342 393.381005 437.750342 393.853467 438.064542 393.769046 437.484821 393.769046 437.484821 394.993891 436.950829 395.564103 438.535104 397.473202 438.306461 397.248079 437.565953 399.321577 437.635283 401.058873 439.673893 401.957882 437.424342 403.122003 438.22828 402.670277 438.41562 403.544108 438.235655 403.206424 436.163118 405.063686 433.698199 404.57049 432.439925 405.296214 430.330509 406.451449 430.389514 406.707674 432.075571 406.655836 430.47212 407.181616 430.169722 409.081829 431.843978 410.290382 431.488475 410.542164 432.274712 409.381005 432.364694 411.949181 433.478407 412.689716 432.397147 411.612978 431.368991 412.312043 430.8527 413.218458 431.147723 412.75044 429.675558 414.512913 429.380535 414.989818 430.312808 416.143571 430.604881 415.31121 431.394068 415.592613 432.621364 416.073961 431.860204 416.544941 432.518106 415.363047 433.313194 415.690364 433.959294 417.37434 433.316144 418.094141 434.53459 419.659632 434.367901 421.420624 435.674854 422.666204 435.36213 424.425715 436.26195 424.809312 435.692556 425.229936 438.35809 424.745626 439.657667 426.690271 441.753807 428.107655 441.073778 431.43562 443.051909 432.898917 443.051909 434.031936 441.960323 433.506156 442.632976 434.451078 443.416263 433.827548 443.388235 433.316579 444.833849 434.584375 445.202628 434.141535 444.411966 434.864297 444.422292 434.806535 443.904526 435.345645 444.33231 435.510044 443.609503 435.084976 447.19551 435.801814 447.314994 436.121725 446.63054 437.146626 447.185184 437.06961 449.086608 438.180413 448.747332 440.641951 449.62355 440.407942 446.717572 441.36027 445.959362 441.872721 446.916713 444.03064 446.901962 444.365361 447.794407 448.355364 446.157028 449.532815 446.991944 449.509118 448.054027 451.604832 448.006823 451.521892 449.555695 452.646024 449.55717 452.783764 451.147345 451.086457 451.524975 450.048227 451.027861 450.144497 452.47495 450.793206 452.932235 449.880866 456.798514 451.536703 457.207121 451.647783 459.92281 451.206424 461.819809 450.495511 462.253493 450.291123 465.090141 448.755253 464.435189 448.337591 465.231752 449.919374 467.049095 451.71295 467.146453 450.960567 469.046402 452.675646 469.592195 453 471.006831 453 471.006831 451.150143 472.377214 448.310932 472.861052 448.171712 474.585462 446.123392 475.715401 444.306119 475.674098 444.837823 476.678652 443.961029 477.012028 442.21781 476.100406 438.133019 476.360027 435.871425 475.747854 434.967972 476.250868 434.134129 475.410052 434.277793 474.703471 432.990743 475.812759 429.363603 475.792107 427.978802 474.36272 426.428122 474.707897 425.366195 474.032294 423.396371 475.666722 421.217717 476.08418 419.246413 475.125355 419.367861 474.502856 417.464686 472.265105 415.881422 472.890554 415.506711 474.67987 416.50199 475.448405 416.784875 477.451612 417.851245 478.026908 418.261501 479.119969 416.891512 481.167429 415.965843 481.145303 415.638526 483.188338 414.616588 483.570393 414.844673 484.698857 415.731834 484.847844 415.773304 486.308208 416.429418 486.861377 417.245487 485.480668 418.440711 485.756515 419.772193 484.279924 421.89901 485.004206 422.598075 486.159222 425.363232 485.464442 427.216051 489.447255 428.452745 489.100603 428.406831 490.289546 429.37397 490.625873 431.010553 489.963546 431.39415 491.361956 432.229473 491.16134 433.71943 492.379786 433.83051 493.745743 432.373137 495.647167 432.63973 498.516268 431.549662 499.784868 430.03749 499.349708 428.703045 500.57553 426.037119 500.652236 425.4284 501.881007 426.103767 504.677827 423.61557 506.082137 423.503008 506.886076 420.80598 507.465796 420.542349 508.771274 421.268074 511.025251 420.099509 512.361706 420.600111 514.454895 419.911413 514.972661 419.36638 514.035963 418.873183 514.919557 417.307692 515.506653 417.064797 517.602793 416.285754 517.75768 416.04434 518.598496 413.045173 518.566044 411.829214 520.117866 410.533278 520.095739 410.842821 520.979333 410.111173 520.584002 409.247709 521.845226 408.69527 519.718109 406.963899 519.08676 406.375914 520.501396 405.493196 519.912824 403.723318 521.501524 402.535499 520.222599 400.36277 521.852602 400.481255 526.72196 399.577802 528.303284 397.554661 528.88448 397.442099 532.084006 396.048412 532.682903 397.067389 533.271474 396.925206 534.444191 395.818847 534.548925 395.418958 532.737482 394.188188 532.533916 392.170971 537.775003 391.323799 537.910714 391.885125 538.611394 391.734055 542.939384 391.098676 544.834908 388.983708 544.488256 388.2254 546.013526 387.938073 550.14385 388.588263 553.930473 386.304452 558.588889 386.304452 558.588889 384.339072 558.786555 381.000741 556.383591 379.848468 556.228703 379.60261 557.225882 378.454781 557.08132 378.01046 556.062015 378.700639 555.047136 377.438767 552.316696 374.017495 549.040464 371.784041 548.577277 369.51208 549.474148 367.91993 551.205934 365.748681 551.86236 363.97584 551.132178 363.33898 552.200162 361.517264 551.98627 357.659076 549.623134 355.018328 551.121852 351.582246 551.549636 350.092289 547.258524 347.835138 546.687654 347.181986 547.245247 345.766083 547.102161 342.035268 545.613769 341.762751 548.028534 339.527816 547.706959 337.676479 549.733768 335.240118 549.657062 334.7721 549.087667 332.254281 549.957986 332.707489 551.017119 331.981764 551.197083 333.104415 552.555665 332.831899 553.424508 331.713691 552.989349 331.219013 553.504164 328.267241 553.366979 327.882162 554.091261 327.083866 553.210616 326.255947 554.173867 322.073406 553.440734 321.506156 552.489285 319.708137 552.068877 317.274738 552.950996 317.04221 549.642311 315.707766 549.090618 315.13163 550.424122 314.382209 550.018465 313.369157 550.649815 312.191706 549.894556 312.287976 550.674892 309.550958 551.070223 309.191058 553.057204 302.041933 556.737618 300.277978 557.041492 297.72017 555.901228 297.536518 556.610759 296.187263 556.777447 295.689623 557.469276 294.802462 557.655141 294.364066 556.402767 293.623531 557.246533 293.119967 556.525202 291.587059 556.519301 291.687772 557.394045 291.056836 557.476652 288.036934 557.040017 287.487457 554.429062 286.526243 553.900971 285.864204 551.91694 287.121633 551.141029 290.516245 552.026098 291.760344 551.596839 290.640655 550.940413 290.651023 548.813296 289.746089 546.370504 287.678515 544.042771 281.811997 544.330418 281.715727 545.603443 279.899935 545.81291 279.36675 546.602097 278.252985 545.503136 277.827918 545.960422 275.179765 545.647697 269.87161 549.680664 268.353513 549.211577 267.775896 549.935859 266.59104 549.788347 266.358512 551.682396 265.586874 552.260642 266.48144 553.341902 266.24595 554.113387 261.296214 558.445803 262.429233 560.182014 261.259187 563.138146 257.044062 563.026038 255.968805 565.698948 253.602055 566.93362 250.668055 567 250.059335 566.364225 247.285291 566.693176 245.466537 564.060094 247.106082 563.859478 247.288253 563.282708 246.409979 561.640904 246.86911 560.949074 244.992595 557.165402 243.557438 557.866082 240.964084 556.50455 238.464038 556.318686 231.808109 556.954461 229.807183 556.470622 227.923262 557.212606 225.451356 556.497175 223.281588 556.867429 222.133759 556.199201 220.289827 556.659437 220.218736 555.790594 217.745349 555.946956 214.498843 554.340555 212.718597 550.865182 207.887346 548.708562 204.451264 549.357613 197.253263 546.997428 197.050356 545.796684 195.775155 545.520837 195.541146 542.861203 196.278719 539.500889 195.222716 537.98742 193.834953 537.435727 193.753494 535.602157 191.964362 535.813099 190.920207 537.170206 189.29103 537.558161 188.907433 538.606969 186.145237 538.943295 184.452374 538.002171 184.452374 538.002171 184.69527 536.929762 182.955012 535.967986 185.529112 533.612226 184.720448 532.986777 183.963621 533.243447 183.732574 529.425847 182.275201 529.126399 182.765436 528.405067 181.759789 527.009607 182.156716 524.537313 183.396371 524.158208 184.088031 525.463686 185.849023 525.807388 186.336295 524.290969 186.964269 524.593367 187.924003 523.215609 189.046654 523.399998 187.801074 522.116648 186.269647 521.983887 185.841618 520.631206 185.714246 521.750819 184.918911 522.1491 184.397575 521.333361 183.738499 522.525255 183.128298 520.963107 182.346293 521.036863 182.568453 519.611901 181.256225 520.200472 181 519.616326 181.995279 518.203165 184.678978 519.315402 188.152087 515.080345 191.83699 515.121648 192.422012 512.220095 194.773952 507.961435 193.922336 505.781214 192.339072 506.602853 191.149773 505.478815 190.517356 504.424107 191.42229 503.913717 189.932334 501.15525 189.932334 501.15525 192.053226 499.510496 195.807739 500.284932 196.844488 498.839318 198.777284 498.414485 200.671573 496.523386 202.109692 496.749079 203.044247 496.167883 203.047209 495.479004 201.474313 495.802055 202.314079 495.151528 201.66389 494.160251 199.96214 494.576233 197.656114 493.19995 197.084421 493.815073 195.994353 492.269152 197.620568 490.630298 197.721281 489.13158 198.943164 487.832003 200.22429 487.73022 201.649079 486.414417 202.671017 486.5221 204.263168 484.928975 204.818569 485.398062 206.136721 484.723934 208.016199 482.419803 209.060354 482.170508 208.065075 480.41217 209.085532 478.667108 208.004351 474.001316 208.490142 471.924353 210.711747 468.76613 207.244562 462.582444 208.010275 461.902415 207.651856 460.959816 206.889105 460.319616 203.264926 460.253236 204.221698 459.102645 204.325373 457.2558 206.530686 454.026771 205.295473 454.208211 205.251041 453.222833 204.076553 453.485404 201.998611 452.556081 203.387855 451.08244 203.115338 449.657478 204.421642 449.185441 204.215773 448.307747 205.258447 447.127654 203.96251 446.584812 204.707489 442.93685 207.607424 447.679348 209.158104 447.508234 209.756457 446.142277 210.925021 445.884132 210.725076 444.388364 211.557438 444.386889 211.148662 442.922099 208.355364 443.223022 206.544016 442.346804 206.243358 443.037158 206.461076 440.988222 205.459872 438.439221 206.164862 436.888875 206.812089 438.153049 207.354161 437.72084 208.230954 438.443647 208.451634 439.681269 212.274276 440.784656 212.675646 440.01612 214.614366 439.775676 214.516616 437.191273 216.025826 436.300303 215.862908 434.47706 221.643525 434.567042 221.828659 435.165939 220.818569 435.797289 221.393224 437.267979 220.660094 439.390671 219.482644 436.806268 219.18643 437.307808 220.015829 438.620661 219.035361 439.75355 220.580117 440.438004 221.036286 439.843532 224.081366 439.650292 223.860687 440.626818 220.408313 442.337953 219.577432 440.979371 217.979358 440.787606 218.678423 439.551459 217.856429 439.743224 217.383967 439.067621 217.170693 439.937939 218.739147 441.53254 217.329168 442.454487 216.680459 443.869123 217.655003 445.41357 219.21457 445.065442 224.938906 446.398947 228.970379 445.404719 229.944923 446.562685 234.48144 443.981232 236.934092 445.161325 236.574192 447.133555 237.245117 447.756054 236.605295 449.098409 236.922244 449.695831 237.699806 449.11316 239.371934 450.513045 239.037212 451.165047 239.608905 451.797871 238.555864 452.600334 239.198649 453.180055 239.111265 454.404401 237.197723 455.659725 235.457466 453.762726 234.142275 455.3411 234.345182 455.98425 233.465426 456.121436 233.807553 458.053838 234.650282 459.309162 236.079515 459.552556 236.565306 461.474632 234.910951 462.334624 233.980839 465.069489 234.996853 465.090141 235.410071 466.072568 236.842266 466.019464 236.780061 467.227584 235.100528 467.677494 234.555494 469.834114 232.644913 470.80474 231.676294 468.637795 230.608442 469.770684 229.031102 470.03768 228.506804 469.002148 226.876146 468.127405 225.338795 470.413834 225.08257 472.427368 228.309821 474.470403 228.79265 475.089952 228.16912 475.612143 228.989633 476.47066 231.137184 476.417556 232.150236 477.804165 232.242062 475.83636 233.185504 475.843736 233.535037 474.529408 232.573822 473.893633 232.704156 472.989387 234.174859 473.459949 235.02055 474.673969 235.552254 473.986565 237.612422 473.272609 238.169305 473.642863 241.183282 472.01876 240.698973 468.912166 243.388596 467.221683 246.109321 466.560832 245.694622 463.159214 246.722484 461.564614 246.367028 460.164729 247.683699 458.607006 248.326483 459.300311 247.968064 460.180955 248.616773 462.47181 250.699158 462.508688 252.067666 461.231238 254.782468 462.787485 255.066833 462.129583 255.985097 462.47181 256.503471 461.980597 258.409608 464.268501 259.90697 463.687306 259.474498 463.010227 260.453485 462.029275 260.164676 461.368423 260.968898 461.617718 261.04147 460.921463 263.417106 460.172104 263.71332 461.3935 262.835046 463.258047 263.670369 463.998555 265.341016 463.976428 266.770249 465.717065 268.471999 465.091616 269.834583 465.355662 270.336666 463.417359 271.21494 462.825838 269.036286 460.644142 267.981764 458.365087 268.326854 453.967767 267.187911 451.765419 268.788948 451.259454 269.203647 452.072243 270.235953 451.455644 270.290753 453.340843 271.862168 454.246564 272.983338 453.671269 273.928261 451.954234 274.496992 452.03094 274.942794 450.566149 274.779876 448.115982 273.763862 445.803 272.068037 445.09937 271.440063 443.95763 270.127835 444.58898 268.202444 444.46802 266.78506 442.118161 267.718134 441.427806 270.659539 441.103281 271.35268 440.322944 270.265574 439.814029 270.483292 438.837503 269.563547 438.73867 268.421642 435.668954 272.741924 433.308768 275.332315 434.053702 276.486069 433.676072 278.195224 432.162603 281.068499 431.975263 282.325928 433.174533 285.292511 432.177354 285.051097 429.637205 285.896788 429.471992 285.536888 428.343528 283.777377 426.799082 284.464593 425.152852 283.36712 424.971413 284.140239 422.00053 282.401463 421.203967 281.709803 421.640601 279.765158 423.34436 279.29714 425.452301 275.277516 424.492 273.686846 425.803378 271.65778 425.936139 271.133481 426.676647 269.625752 425.079096 268.069147 424.80325 265.809035 425.425749 265.70536 424.61001 263.04832 424.294335 260.613441 422.816269 260.192817 421.37213 259.428585 421.000401 258.064519 418.023617 257.769786 413.155734 256.744886 412.399 256.888549 411.612763 258.38443 411.072871 258.344441 408.889699 260.309821 406.28907 261.3599 406.402654 261.965658 405.106027 264.670092 405.321394 265.570582 404.654641 265.369157 403.983464 266.931686 403.598458 267.983245 401.607052 267.678145 400.981603 269.45691 398.802856 272.503471 397.466401 274.014163 395.771493 275.779598 395.464669 276.782283 393.852367 279.233454 393.871544 281.926039 391.878662 283.312321 389.766296 286.344071 389.500775 286.197445 388.062537 289.147737 387.788166 293.638341 384.584214 295.072017 384.72435 296.013978 383.317089 298.142275 382.989614 298.371841 381.442217 300.200963 380.740062 300.671943 379.298874 302.324817 379.201516 303.69925 377.909314 306.599185 378.583442 306.704341 376.689394 307.539665 376.121474 307.036101 374.662584 309.40137 374.852874 308.93039 373.630003"></polygon>
            </g>
        </g>
    </g>
</svg>