<?xml version="1.0" encoding="UTF-8"?>
<svg width="69px" height="74px" viewBox="0 0 69 74" version="1.1" xmlns="http://www.w3.org/2000/svg" xmlns:xlink="http://www.w3.org/1999/xlink">
    <!-- Generator: Sketch 52.5 (67469) - http://www.bohemiancoding.com/sketch -->
    <title>IN-MN</title>
    <desc>Created with Sketch.</desc>
    <defs>
        <filter x="-2.5%" y="-2.2%" width="105.1%" height="104.5%" filterUnits="objectBoundingBox" id="filter-1">
            <feOffset dx="4" dy="4" in="SourceAlpha" result="shadowOffsetOuter1"></feOffset>
            <feGaussianBlur stdDeviation="4" in="shadowOffsetOuter1" result="shadowBlurOuter1"></feGaussianBlur>
            <feColorMatrix values="0 0 0 0 0   0 0 0 0 0   0 0 0 0 0  0 0 0 0.5 0" type="matrix" in="shadowBlurOuter1" result="shadowMatrixOuter1"></feColorMatrix>
            <feMerge>
                <feMergeNode in="shadowMatrixOuter1"></feMergeNode>
                <feMergeNode in="SourceGraphic"></feMergeNode>
            </feMerge>
        </filter>
    </defs>
    <g id="views" stroke="none" stroke-width="1" fill="none" fill-rule="evenodd" opacity="0.2">
        <g id="Overall-2" transform="translate(-1289.000000, -439.000000)" fill="#FFFFFF">
            <g id="india" filter="url(#filter-1)" transform="translate(524.000000, 29.000000)">
                <polygon id="IN-MN" points="783.46926 425.058923 783.555391 426.075006 784.614197 426.190172 784.435996 427.245615 785.977428 427.031319 787.63469 428.658218 790.270567 423.302281 791.054648 423.302281 793.882091 419.807947 793.729136 418.683988 792.53965 418.654832 792.69112 417.297625 796.461538 416.350059 798.739531 416.748037 800.145827 416.252387 800.276507 415.418528 802.493614 416.643075 802.683695 417.551281 804.133056 417.854503 804.798337 416.793228 805.879418 416.887985 806.500149 418.64317 808.735076 418.258312 809.566677 418.837056 812.88714 417.217447 813.19008 415.532236 814.556282 414.559887 815.530443 414.715871 817.633205 412 818.337095 412.214296 817.728245 413.782883 818.32373 413.812039 817.097119 415.764025 817.149094 418.223325 819.498366 419.805032 821.033858 420.00475 821.033858 420.00475 820.766558 421.468375 819.443421 422.439266 818.01782 428.197555 823 430.853656 822.89308 434.584152 821.678349 436.157113 822.172854 437.35542 819.648352 440.703974 818.810811 444.724571 816.948619 444.911169 816.342738 447.720339 814.290466 449.618387 813.17523 452.360498 812.361449 452.544181 812.377784 454.767317 811.177903 455.483094 811.737749 456.158053 809.966142 457.506513 810.016632 459.053233 807.986635 463.205032 807.446094 467.310181 805.912088 470.846791 805.129492 470.935716 804.839917 473.667623 803.632611 474 802.80695 472.313332 798.384615 470.432777 796.929314 470.203903 794.098901 471.109194 792.264924 468.464754 788.02673 468.307312 787.495099 469.791347 786.253638 469.125135 784.746362 470.533365 783.30888 469.645568 781.647164 466.148319 779.732997 465.534587 779.116721 465.78387 779.222156 467.005502 779.222156 467.005502 777.692605 467.066729 776.669439 467.989513 777.021384 466.778086 776.445203 465.944228 775.692308 465.987961 775.471042 467.117752 774.014256 466.953021 773.33264 465.852387 771.871399 467.282483 771.204633 465.358194 770.402732 465.766377 768 464.963132 769.427086 461.796802 768.989011 459.452669 770.081972 457.357818 769.403326 457.24411 769.490941 455.789231 768.749926 455.363555 768.749926 455.363555 769.951292 455.099694 769.845857 452.238044 770.993763 450.100917 770.632908 449.641712 772.059994 449.350153 771.078408 448.927392 771.990199 446.285869 771.093258 445.116718 772.067419 444.062732 772.147609 441.794404 772.54856 441.457653 773.488565 442.462074 774.869617 441.743381 774.863677 440.231648 775.855658 439.53628 776.607069 438.147002 776.194238 437.476417 776.890704 437.05803 776.468963 434.799906 777.070389 433.76633 778.203445 433.821726 779.171666 432.218152 780.818533 427.185845"></polygon>
            </g>
        </g>
    </g>
</svg>