<?xml version="1.0" encoding="UTF-8"?>
<svg width="50px" height="96px" viewBox="0 0 50 96" version="1.1" xmlns="http://www.w3.org/2000/svg" xmlns:xlink="http://www.w3.org/1999/xlink">
    <!-- Generator: Sketch 52.5 (67469) - http://www.bohemiancoding.com/sketch -->
    <title>IN-MZ</title>
    <desc>Created with Sketch.</desc>
    <defs>
        <filter x="-2.5%" y="-2.2%" width="105.1%" height="104.5%" filterUnits="objectBoundingBox" id="filter-1">
            <feOffset dx="4" dy="4" in="SourceAlpha" result="shadowOffsetOuter1"></feOffset>
            <feGaussianBlur stdDeviation="4" in="shadowOffsetOuter1" result="shadowBlurOuter1"></feGaussianBlur>
            <feColorMatrix values="0 0 0 0 0   0 0 0 0 0   0 0 0 0 0  0 0 0 0.5 0" type="matrix" in="shadowBlurOuter1" result="shadowMatrixOuter1"></feColorMatrix>
            <feMerge>
                <feMergeNode in="shadowMatrixOuter1"></feMergeNode>
                <feMergeNode in="SourceGraphic"></feMergeNode>
            </feMerge>
        </filter>
    </defs>
    <g id="views" stroke="none" stroke-width="1" fill="none" fill-rule="evenodd" opacity="0.2">
        <g id="Overall-2" transform="translate(-1268.000000, -480.000000)" fill="#FFFFFF">
            <g id="india" filter="url(#filter-1)" transform="translate(524.000000, 29.000000)">
                <polygon id="IN-MZ" points="748.131665 461.067842 751.948857 461.022134 752.381211 464.411885 753.726152 464.783445 753.87704 464.081609 755.265506 463.569976 755.845847 461.265417 757.695684 461.014762 758.08161 458.343066 760.099746 457.596996 762.363076 452 764.298513 456.824387 765.328618 456.091587 766.614073 456.261148 766.807037 455.638932 767.539717 456.225762 769.508524 455.964785 769.508524 455.964785 770.232499 456.395323 770.146899 457.86682 770.809938 457.981827 769.742111 460.100605 770.170112 462.471514 768.775843 465.67401 771.123322 466.48643 771.906783 466.073585 772.558215 468.019854 773.985854 466.573422 774.651795 467.686629 776.075082 467.853241 776.291259 466.710546 777.026841 466.666312 777.589771 467.509695 777.245919 468.73496 778.245557 467.801636 779.739935 467.739709 779.739935 467.739709 779.649982 469.973494 781.602829 471.875529 781.804498 477.535927 783 480.191404 781.557853 488.532344 782.072905 490.046599 780.603192 491.167178 781.482408 495.518268 780.851288 497.987964 781.449039 498.378693 778.535727 502.807928 777.183533 502.787285 775.398984 500.99141 773.530287 501.417525 773.41712 502.976015 774.606819 505.697841 773.707291 505.895417 773.022488 509.122979 772.507436 509.31908 772.916576 511.521902 772.279652 512.682291 773.878491 516.355136 772.886108 518.585972 773.5535 518.978175 773.80885 520.862517 775.28872 522.055343 775.826986 527.571245 773.96119 528.053389 774.651795 529.594185 774.184621 530.318137 771.831338 529.259485 770.910047 529.673805 771.484585 532.840914 769.895901 532.836491 769.77403 536.751144 769.1284 536.785057 768.150526 535.229516 767.417845 535.639412 766.786725 538 765.476605 534.055857 764.774392 534.120733 760.925281 531.165944 760.36235 531.307491 759.906783 535.626142 757.63765 536.985581 757.495466 534.312411 756.4465 531.944451 756.968807 531.595007 757.647806 532.202479 757.765325 530.492122 755.264055 517.568605 755.271309 514.451626 754.654697 511.775507 753.840769 511.321378 753.022488 508.96079 752.714908 506.548597 752.269496 506.769764 751.921291 505.663929 750.52412 505.172939 751.078346 501.062184 750.232499 499.468308 750.088865 495.07446 751.532463 494.789891 750.445774 492.222881 750.673558 490.898829 748.938339 487.177328 748.239028 482.106709 747.670294 481.945994 748.08959 479.846383 747.277113 478.641761 747.277113 478.641761 747 475.74595 747.831338 475.685497 747.467174 474.603254 747.989481 473.851287 748.846935 474.040016 749.17918 472.496271 748.581429 470.859636 749.115343 469.883553 748.662677 468.367823 749.351832 464.599139"></polygon>
            </g>
        </g>
    </g>
</svg>