<?xml version="1.0" encoding="UTF-8"?>
<svg width="72px" height="76px" viewBox="0 0 72 76" version="1.1" xmlns="http://www.w3.org/2000/svg" xmlns:xlink="http://www.w3.org/1999/xlink">
    <!-- Generator: Sketch 52.5 (67469) - http://www.bohemiancoding.com/sketch -->
    <title>IN-NL</title>
    <desc>Created with Sketch.</desc>
    <defs>
        <filter x="-2.5%" y="-2.2%" width="105.1%" height="104.5%" filterUnits="objectBoundingBox" id="filter-1">
            <feOffset dx="4" dy="4" in="SourceAlpha" result="shadowOffsetOuter1"></feOffset>
            <feGaussianBlur stdDeviation="4" in="shadowOffsetOuter1" result="shadowBlurOuter1"></feGaussianBlur>
            <feColorMatrix values="0 0 0 0 0   0 0 0 0 0   0 0 0 0 0  0 0 0 0.5 0" type="matrix" in="shadowBlurOuter1" result="shadowMatrixOuter1"></feColorMatrix>
            <feMerge>
                <feMergeNode in="shadowMatrixOuter1"></feMergeNode>
                <feMergeNode in="SourceGraphic"></feMergeNode>
            </feMerge>
        </filter>
    </defs>
    <g id="views" stroke="none" stroke-width="1" fill="none" fill-rule="evenodd" opacity="0.2">
        <g id="Overall-2" transform="translate(-1302.000000, -392.000000)" fill="#FFFFFF">
            <g id="india" filter="url(#filter-1)" transform="translate(524.000000, 29.000000)">
                <polygon id="IN-NL" points="837.476716 365 838.659692 370.327837 837.137881 371.237796 837.881845 371.732503 838.082199 373.562916 839 373.948187 838.11461 375.766607 838.776074 377.48009 838.776074 377.48009 836.218607 379.812705 836.212714 381.163403 833.519713 385.323433 834.721841 386.42378 834.679118 387.425185 835.633749 387.892907 835.185897 393.085824 835.842942 393.937318 835.087193 395.512883 835.165273 397.571161 837.174711 398.593554 834.73068 402.48974 832.579815 403.638059 832.109865 404.542022 831.924243 405.82526 833.068916 409.618008 829.522934 412.860583 828.970486 414.864893 828.023222 415.488522 828.516742 416.387988 826.803416 416.611356 825.666109 418.869015 821.653125 420.101284 821.653125 420.101284 820.129841 419.895906 817.799246 418.269371 817.747684 415.740373 818.964543 413.733065 818.373792 413.703083 818.977802 412.09004 818.279508 411.869671 816.193463 414.662513 815.227047 414.502108 813.871707 415.502014 813.571175 417.234985 810.277111 418.900497 809.452121 418.30535 807.234962 418.701115 806.619167 416.896187 805.54668 416.798744 804.886689 417.890097 803.44885 417.578282 803.260281 416.644336 801.060801 415.385084 800.931159 416.242575 799.536043 416.752272 797.276162 416.343015 793.535719 417.317437 793.385453 418.713108 794.565482 418.74309 794.717221 419.898904 791.912257 423.49227 791.13441 423.49227 788.519489 429 786.875403 427.326993 785.346226 427.547363 785.523009 426.462007 784.472621 426.343577 784.387176 425.298698 784.387176 425.298698 783.705086 424.093413 784.516817 422.861145 784.012984 420.967769 781.978501 419.949874 780 417.091071 782.953757 414.16181 785.185648 413.293826 787.448476 409.680971 791.52628 406.636278 790.976778 404.527031 792.95528 403.591586 793.609379 402.563197 794.390172 404.518036 793.818572 406.71723 794.310619 407.825073 795.745512 406.152066 796.991835 406.730722 798.014233 405.282582 799.973582 404.171742 799.21636 401.128549 800.334515 398.860395 800.757322 395.362972 803.939424 390.033636 806.022522 389.411506 806.361357 385.359412 809.14275 381.930947 809.544932 381.746557 809.671627 384.65483 810.369922 385.275461 811.436515 383.681908 812.927389 382.855898 813.188145 379.992598 814.870534 379.256535 815.039951 378.055748 817.417688 376.619601 818.331069 377.315188 819.240031 375.628689 819.985468 376.35126 821.782766 375.86255 825.347899 373.294575 827.939249 368.870702 829.231242 368.18261 831.006442 369.368406 832.106919 369.118055 834.84117 367.663918"></polygon>
            </g>
        </g>
    </g>
</svg>