<?xml version="1.0" encoding="UTF-8"?>
<svg width="202px" height="170px" viewBox="0 0 202 170" version="1.1" xmlns="http://www.w3.org/2000/svg" xmlns:xlink="http://www.w3.org/1999/xlink">
    <!-- Generator: Sketch 52.5 (67469) - http://www.bohemiancoding.com/sketch -->
    <title>IN-OR</title>
    <desc>Created with Sketch.</desc>
    <defs>
        <filter x="-2.5%" y="-2.2%" width="105.1%" height="104.5%" filterUnits="objectBoundingBox" id="filter-1">
            <feOffset dx="4" dy="4" in="SourceAlpha" result="shadowOffsetOuter1"></feOffset>
            <feGaussianBlur stdDeviation="4" in="shadowOffsetOuter1" result="shadowBlurOuter1"></feGaussianBlur>
            <feColorMatrix values="0 0 0 0 0   0 0 0 0 0   0 0 0 0 0  0 0 0 0.5 0" type="matrix" in="shadowBlurOuter1" result="shadowMatrixOuter1"></feColorMatrix>
            <feMerge>
                <feMergeNode in="shadowMatrixOuter1"></feMergeNode>
                <feMergeNode in="SourceGraphic"></feMergeNode>
            </feMerge>
        </filter>
    </defs>
    <g id="views" stroke="none" stroke-width="1" fill="none" fill-rule="evenodd" opacity="0.2">
        <g id="Overall-2" transform="translate(-931.000000, -544.000000)" fill="#FFFFFF">
            <g id="india" filter="url(#filter-1)" transform="translate(524.000000, 29.000000)">
                <path d="M579.045209,576.667494 L582.80655,576.689797 L583.099757,578.518628 L581.007326,578.68813 L578.252958,580.668621 L577.740586,579.957904 L576.714362,580.176472 L577.438494,581.06115 L576.039097,580.850017 L577.540672,577.107603 L579.045209,576.667494 Z M490.135391,518.433328 L494.241769,520.10604 L494.783758,522.447837 L496.075053,523.423214 L497.701019,523.359279 L499.024892,524.577013 L503.266027,524.191918 L503.941291,523.177883 L504.863856,523.02325 L504.83424,522.276849 L506.383201,521.807002 L513.116595,521.983938 L513.392032,521.072496 L515.097963,520.910429 L515.86652,521.595869 L517.230377,521.030864 L517.764961,521.875398 L519.423505,520.769178 L519.650074,521.176576 L522.993818,519.851788 L523.352182,524.197865 L523.938596,524.449144 L523.784588,525.351665 L524.593129,525.347204 L524.606456,526.141185 L523.244081,526.753769 L521.794335,532.107934 L520.43344,533.019376 L521.130917,533.176983 L522.420732,532.149566 L524.018561,532.525741 L524.744175,533.6275 L525.881462,533.493683 L526.353851,534.235624 L526.4042,533.569513 L527.591836,534.405125 L528.218232,535.836967 L530.361012,532.272975 L531.071817,531.675259 L532.160237,531.855169 L532.317206,530.686501 L533.282716,530.551197 L537.782998,532.956929 L539.379347,533.36284 L541.037891,532.83352 L542.181102,534.220755 L545.917269,532.146593 L546.807255,533.278089 L545.48042,533.270655 L544.639301,536.190838 L549.123294,536.962516 L549.335054,535.688281 L550.276871,535.211001 L552.070172,532.210527 L552.884635,529.662058 L551.120951,527.718738 L553.398488,525.617812 L552.318953,525.491429 L552.690645,524.840187 L551.837679,524.547276 L552.7173,523.313187 L552.329319,521.664264 L550.617465,520.605624 L551.106143,519.138098 L552.740993,518.442249 L553.251884,517 L555.385779,519.636194 L560.733104,520.955034 L562.99287,524.304919 L565.492533,525.772445 L565.648022,525.042399 L567.555347,524.453604 L568.562321,525.883959 L569.991334,525.897341 L570.377834,526.667532 L572.071919,527.118049 L572.243697,528.059228 L574.464961,528.658431 L574.238392,531.056728 L576.558873,530.707317 L577.850168,532.672939 L581.732939,533.065469 L583.604725,534.46906 L584.12302,536.208681 L582.994617,538.935573 L583.995667,540.342138 L585.993324,540.507179 L585.959265,538.920704 L587.967288,538.165382 L588.250129,536.735027 L590.338118,537.369914 L591.192564,542.054995 L593.973588,542.9932 L594.531866,543.848142 L596.810883,543.819892 L596.78867,544.881506 L597.653483,545.610065 L597.275868,547.682741 L598,548.890067 L594.836919,550.990994 L589.285239,550.894348 L586.588623,552.229544 L582.47336,555.470888 L579.717512,558.609639 L577.555481,562.676188 L577.582136,564.519888 L582.129805,575.003703 L581.740343,576.236306 L579.38136,575.814039 L577.718373,576.668981 L576.040578,580.850017 L577.493285,581.038848 L576.749902,580.179445 L577.742067,579.957904 L578.254439,580.668621 L581.008807,578.68813 L583.058294,579.198121 L584.45769,578.729762 L576.375249,584.470509 L574.670798,588.794284 L576.230126,589.231419 L576.264186,590.745038 L573.138126,593.465982 L569.219815,595.224932 L564.81875,600.94635 L564.112387,602.895617 L562.664123,602.593786 L561.06037,600.137501 L559.737977,600.394727 L559.39146,601.25859 L561.199569,601.34334 L563.346792,603.670269 L541.628747,610.72837 L533.00876,615.098237 L525.406111,620.41523 L523.063418,623.030608 L518.348413,626.468217 L515.594045,629.290268 L513.648218,632.634205 L512.348037,631.831304 L511.567633,631.056652 L511.823819,630.021801 L510.674685,629.838918 L510.556217,630.980822 L508.406033,630.915401 L509.273807,632.466191 L510.340014,632.317505 L510.35038,633.258684 L509.054642,633.17542 L508.278681,634.544814 L507.61082,632.840878 L505.234067,634.284614 L504.683194,635.584126 L502.929875,634.515077 L503.720646,636.050998 L502.944684,636.995151 L503.372647,637.792105 L502.39381,638.69314 L501.385356,638.361571 L502.078391,638.968208 L500.955912,638.788298 L501.579347,639.311671 L501.296506,639.839505 L500.47908,639.32654 L500.362094,641.769443 L494.754141,642.30025 L493.87452,643.19831 L492.598033,643.314285 L490.900987,641.4349 L488.195487,641.617784 L486.037899,640.904093 L483.461232,634.692013 L481.989274,635.67185 L483.245029,637.98391 L482.183264,637.64342 L480.942318,635.450309 L481.482825,634.577525 L480.671323,634.425866 L478.384902,629.935563 L477.48603,631.025428 L477.799969,632.078121 L477.004756,633.334514 L476.002225,632.547968 L475.53576,634.788658 L474.422166,634.602801 L474.364413,634.088349 L474.987848,634.153771 L474.731662,632.845339 L474.367374,633.22746 L473.735054,632.420098 L473.30561,632.684758 L473.881658,634.271233 L473.777999,634.955186 L472.969459,634.977489 L473.185662,636.743873 L471.738878,635.09049 L469.800454,634.64146 L468.52841,635.301623 L469.262908,637.682078 L469.782684,636.369185 L470.851853,637.473918 L469.81082,637.356457 L471.815882,639.564437 L471.350897,640.501155 L470.191397,640.459523 L470.109951,641.501809 L467.731717,641.843786 L467.3156,642.909861 L465.867335,642.622898 L465.423082,644.253978 L465.319423,643.393088 L463.18849,642.405817 L460.647363,646.270153 L459.425668,646.763789 L459.316086,648.415685 L460.740657,648.47962 L459.901019,649.08477 L460.074277,649.737499 L461.83648,650.06312 L459.544135,653.114147 L460.228285,653.945299 L460.873932,653.615217 L460.722886,655.368219 L459.598927,655.069361 L456.979315,656.148818 L455.714675,655.643287 L455.491068,654.147511 L454.260487,654.244157 L452.84184,653.279188 L452.131035,653.921509 L452.659696,654.728872 L451.846713,656.808982 L448.491123,658.260152 L447.50192,660.145485 L446.071425,658.798394 L445.938149,657.601475 L447.017684,656.309398 L446.683013,655.5853 L444.65722,654.905807 L445.233268,653.337175 L444.501732,653.445716 L444.284048,651.175288 L443.540664,651.246657 L442.761741,650.100292 L439.266951,654.241183 L439.98516,655.571918 L438.434718,657.265446 L440.251712,657.61337 L439.595699,658.667551 L438.511721,658.924776 L438.38585,660.567751 L437.558058,661.221968 L439.38838,663.044852 L439.152926,663.519159 L438.402139,662.955641 L438.291076,666.274301 L437.538807,666.360539 L437.301873,665.573992 L436.342286,666.020049 L436.351171,668.033251 L435.55892,668.250331 L433.565706,667.246704 L433.037045,666.171708 L428.83145,665.706322 L426.571684,667.845907 L421.899624,669.667304 L420.574269,671.057514 L418.865376,672.105747 L418.403353,671.335556 L417.621468,671.591295 L416.013273,673.592602 L414.698284,673.18669 L411.983899,674 L411.308634,673.289283 L409,673.878078 L409.275437,671.325148 L410.621523,671.624006 L411.86395,668.565545 L411.75733,666.66237 L412.835384,664.583747 L413.26779,662.470926 L412.715435,661.60855 L413.433644,659.156726 L415.462399,657.781385 L417.485231,657.461711 L417.467461,656.542835 L420.158152,656.345083 L420.691256,654.196577 L423.661827,650.877917 L424.867233,650.376847 L425.233002,649.208179 L426.420638,649.374706 L426.657573,648.475159 L424.606605,647.355557 L424.513312,646.396536 L426.436927,647.099818 L427.064805,645.082156 L429.11133,644.161793 L430.501841,644.38036 L430.590692,642.951493 L432.068573,642.892018 L433.062219,641.805127 L433.422064,638.392795 L435.492282,637.897672 L435.043587,634.491287 L434.084001,632.996998 L434.642278,632.003779 L434.25874,631.122074 L433.019274,630.827676 L433.60865,629.767549 L432.770493,626.273439 L433.744888,624.496647 L432.432861,623.112385 L433.225112,622.980055 L433.741926,621.285041 L431.766481,621.078368 L430.922401,618.257804 L428.763332,618.522464 L429.499311,617.313651 L429.23424,611.883656 L429.924312,609.28166 L427.454266,608.86534 L426.841197,606.924994 L423.408603,605.170505 L423.026545,603.78773 L423.932821,600.956758 L426.251822,598.775542 L428.827008,601.813187 L429.865079,600.500294 L433.602727,602.86588 L435.219807,602.207203 L438.593168,607.739791 L440.122879,606.035855 L441.782904,605.337033 L446.468291,606.603834 L445.778218,607.991069 L446.206182,609.680137 L448.086853,607.892937 L449.853498,607.70708 L450.31256,606.398648 L449.78686,605.658194 L450.003064,602.467403 L447.655927,602.143268 L446.620818,602.617575 L440.188036,600.182107 L439.817825,597.380872 L440.892917,595.480671 L440.629327,593.460035 L441.378634,592.8192 L440.278367,591.085527 L441.375672,588.10587 L440.783335,586.535751 L440.102147,587.222678 L439.866693,585.329911 L438.116336,583.87428 L439.486116,581.553299 L438.459892,577.106116 L438.815294,572.956304 L440.513821,573.66702 L440.95067,574.857991 L442.299718,574.945716 L443.124548,572.309522 L445.209575,571.050155 L447.359759,567.898023 L446.95845,566.751657 L448.063159,565.734648 L447.781799,564.155608 L451.387652,563.813632 L452.521978,564.493124 L453.254995,563.85229 L455.325214,564.167503 L457.704928,563.290259 L460.326021,565.168157 L462.782739,565.759925 L464.961059,564.616533 L465.837718,560.480103 L467.580671,559.634082 L466.945389,558.74643 L467.43851,556.664833 L470.685999,557.830527 L471.54933,557.549511 L471.273893,555.85301 L469.924845,554.372102 L469.44061,552.659245 L470.869623,548.759224 L472.745851,547.542977 L473.102734,549.010503 L474.088976,548.332497 L472.080953,546.688035 L474.077129,544.471134 L473.552911,543.098767 L474.28889,542.038639 L475.701614,542.725566 L475.53724,541.458766 L477.18838,541.067723 L476.787072,540.126544 L477.684463,538.827032 L476.222871,538.114829 L475.65867,537.06957 L475.757886,534.002188 L477.67854,533.663185 L476.403534,532.383003 L479.088302,528.347678 L480.552856,527.648856 L482.406871,527.738067 L485.762462,524.361419 L490.200548,523.561491 L491.358568,520.333529 L489.328332,519.057807 L489.452723,518.39467 L490.135391,518.433328 Z" id="IN-OR"></path>
            </g>
        </g>
    </g>
</svg>