<?xml version="1.0" encoding="UTF-8"?>
<svg width="108px" height="120px" viewBox="0 0 108 120" version="1.1" xmlns="http://www.w3.org/2000/svg" xmlns:xlink="http://www.w3.org/1999/xlink">
    <!-- Generator: Sketch 52.5 (67469) - http://www.bohemiancoding.com/sketch -->
    <title>IN-PB</title>
    <desc>Created with Sketch.</desc>
    <defs>
        <filter x="-2.5%" y="-2.2%" width="105.1%" height="104.5%" filterUnits="objectBoundingBox" id="filter-1">
            <feOffset dx="4" dy="4" in="SourceAlpha" result="shadowOffsetOuter1"></feOffset>
            <feGaussianBlur stdDeviation="4" in="shadowOffsetOuter1" result="shadowBlurOuter1"></feGaussianBlur>
            <feColorMatrix values="0 0 0 0 0   0 0 0 0 0   0 0 0 0 0  0 0 0 0.5 0" type="matrix" in="shadowBlurOuter1" result="shadowMatrixOuter1"></feColorMatrix>
            <feMerge>
                <feMergeNode in="shadowMatrixOuter1"></feMergeNode>
                <feMergeNode in="SourceGraphic"></feMergeNode>
            </feMerge>
        </filter>
    </defs>
    <g id="views" stroke="none" stroke-width="1" fill="none" fill-rule="evenodd" opacity="0.2">
        <g id="Overall-2" transform="translate(-697.000000, -196.000000)" fill="#FFFFFF">
            <g id="india" filter="url(#filter-1)" transform="translate(524.000000, 29.000000)">
                <polygon id="IN-PB" points="237.21168 168 236.541955 170.496635 239.066418 173.823016 236.320693 175.191137 232.979492 179.039622 229.440788 180.463946 229.368025 182.266907 230.661441 183.012348 228.079063 186.032566 228.693844 186.602 230.273861 186.196741 231.531638 186.766175 234.46744 189.206606 237.89477 190.824685 240.28707 195.733649 238.744177 195.637511 241.259731 201.818457 245.946322 210.223893 245.371635 212.10968 246.342811 212.843289 246.546253 214.094564 250.377497 213.644933 250.374527 212.815187 251.639729 212.426197 250.992278 210.643943 252.339153 210.16621 252.462407 209.237367 252.962844 211.049202 255.108638 214.121187 254.575531 214.95685 255.683324 213.970324 256.36196 215.297031 257.160878 214.947975 257.279676 215.696374 257.872182 214.916915 257.803873 215.947813 258.908697 215.054467 259.875418 216.10755 259.222028 217.352909 260.632757 216.965398 260.926783 217.474191 259.526448 218.559813 259.492294 220.544697 260.625332 221.173293 259.793744 223.212902 260.138259 224.986281 263.325023 226.452019 265.105512 228.500502 265.105512 228.500502 265.080267 229.572813 266.905305 231.150958 267.497812 232.587115 266.91867 233.616533 266.91867 233.616533 265.828696 233.518916 265.92225 232.829679 265.087692 233.143237 264.778816 232.353425 262.643418 233.751126 263.751211 236.049568 265.867305 237.002076 266.658799 236.410456 266.658799 236.410456 267.125082 237.487204 267.97746 236.645625 267.864601 238.030015 269.569356 239.494274 268.685794 241.616709 269.783193 242.416875 268.806077 243.613425 268.803108 245.167906 270 247.041861 268.537296 248.075716 268.537296 247.127646 267.050833 245.425261 266.305374 246.212115 264.732782 245.247775 262.938928 246.864375 263.286413 247.880482 264.131366 248.077196 263.405211 249.031182 262.144465 249.279662 260.130834 251.254193 258.197393 251.456823 257.72814 252.804236 259.327461 251.75707 260.199143 252.668164 259.958577 253.231682 261.035186 253.56003 260.655032 257.133413 259.857598 258.038591 259.103229 258.220514 258.423109 257.378935 256.751024 258.167268 256.431754 257.436618 255.227436 257.30942 253.92511 253.690187 253.017788 254.36907 253.659299 255.278685 253.296964 256.353954 251.304124 255.580411 252.021368 256.349517 251.212055 257.041712 248.981618 256.657159 247.511489 255.235793 247.76245 256.086246 247.098665 256.089204 249.100416 257.171868 247.340717 259.544263 247.870854 259.928816 247.10906 260.31041 247.511489 262.880998 246.342811 263.431204 246.913043 264.854049 248.696502 265.549202 244.792494 268.128664 243.588176 267.795878 242.282881 269.893169 241.721559 269.560383 240.082143 270.43598 237.421062 269.878379 235.858865 267.562188 234.83423 267.747069 234.073921 267.099246 232.032076 267.693823 231.769234 269.589964 229.528402 268.951015 229.151218 269.902044 227.768703 270.036637 227.384094 269.212807 225.995639 269.418394 223.89885 267.721925 221.862944 271.147403 220.513099 271.767124 220.982352 272.993256 219.965142 272.587997 218.809829 274.735576 219.553803 275.501723 219.292447 276.223499 217.03528 277 216.965486 274.861295 215.476053 274.02859 214.99492 272.870495 216.159143 271.983066 216.110138 270.65488 217.268422 269.702372 215.756714 266.627429 214.919186 267.297438 214.877607 268.674433 212.892191 267.763339 213.417873 267.059311 212.6145 266.247313 213.328774 265.401297 212.724388 263.911895 212.124457 265.192751 209.775221 265.995875 207.46905 262.702033 206.521634 263.059963 206.404321 262.018712 205.41384 262.347061 203.908072 261.156426 201.508347 262.249444 200.476287 261.986173 198.8933 263.650103 199.114562 264.283136 195.13779 262.90762 195.13779 262.90762 175.619236 261.958071 175.733579 259.226267 177.966987 256.580249 177.955107 253.94902 177.955107 253.94902 177.692266 251.572188 175 247.757721 175.99939 246.036108 176.759699 245.888203 176.991356 244.386968 177.842248 244.577765 178.495639 243.042512 180.059321 241.766093 181.415106 242.011615 181.113656 241.099042 181.882874 240.366913 181.832385 239.026894 182.387767 239.281291 182.681793 238.33322 183.694548 238.316951 186.219011 235.200594 187.763388 234.820479 187.153062 233.46567 188.247491 232.937649 187.885156 232.334197 188.829603 230.612584 190.286366 230.676183 190.36507 229.253338 191.937662 228.513814 193.630537 226.360318 195.730297 225.370834 196.359927 222.710025 198.354253 223.446591 199.898631 222.924487 200.589146 221.705751 200.057523 220.439685 198.623034 220.775429 198.321584 220.208953 197.417232 220.340588 197.20191 221.713146 196.159455 222.059243 195.895129 220.760638 194.687842 220.155707 194.891284 215.335486 196.15797 214.393332 198.961609 208.5644 198.476022 207.598581 196.591584 207.05577 197.773627 205.885842 197.681558 204.665626 195.081361 199.054114 195.106606 198.246553 196.155 197.955181 196.297558 195.214503 197.663738 193.140876 198.357223 193.309488 199.515506 191.970948 200.863867 191.728384 201.048004 190.528875 201.879592 191.275795 202.246381 190.735942 204.156063 190.63093 204.442664 189.094198 205.894973 188.132816 206.122175 187.165518 207.786835 186.615312 210.241504 187.956809 213.701504 185.991153 215.199847 186.531006 216.160628 184.760584 217.522353 185.834374 221.375871 180.463946 221.496155 179.221545 220.1077 176.721952 220.1077 176.721952 222.988558 177.198206 224.767562 176.622856 224.627974 177.443728 225.327399 177.711436 225.670429 178.956795 226.539141 176.300423 232.207303 173.772729 233.276487 171.648814 235.091131 171.258345"></polygon>
            </g>
        </g>
    </g>
</svg>