<?xml version="1.0" encoding="UTF-8"?>
<svg width="285px" height="260px" viewBox="0 0 285 260" version="1.1" xmlns="http://www.w3.org/2000/svg" xmlns:xlink="http://www.w3.org/1999/xlink">
    <!-- Generator: Sketch 52.5 (67469) - http://www.bohemiancoding.com/sketch -->
    <title>IN-RJ</title>
    <desc>Created with Sketch.</desc>
    <defs>
        <filter x="-2.5%" y="-2.2%" width="105.1%" height="104.5%" filterUnits="objectBoundingBox" id="filter-1">
            <feOffset dx="4" dy="4" in="SourceAlpha" result="shadowOffsetOuter1"></feOffset>
            <feGaussianBlur stdDeviation="4" in="shadowOffsetOuter1" result="shadowBlurOuter1"></feGaussianBlur>
            <feColorMatrix values="0 0 0 0 0   0 0 0 0 0   0 0 0 0 0  0 0 0 0.5 0" type="matrix" in="shadowBlurOuter1" result="shadowMatrixOuter1"></feColorMatrix>
            <feMerge>
                <feMergeNode in="shadowMatrixOuter1"></feMergeNode>
                <feMergeNode in="SourceGraphic"></feMergeNode>
            </feMerge>
        </filter>
    </defs>
    <g id="views" stroke="none" stroke-width="1" fill="none" fill-rule="evenodd" opacity="0.2">
        <g id="Overall-2" transform="translate(-561.000000, -282.000000)" fill="#FFFFFF">
            <g id="india" filter="url(#filter-1)" transform="translate(524.000000, 29.000000)">
                <polygon id="IN-RJ" points="178.892233 255 178.904074 257.642482 176.677914 260.299817 176.563942 263.043304 196.019156 263.996915 196.019156 263.996915 195.58547 265.268396 196.472085 265.451097 197.087831 266.77011 194.352497 269.555187 194.561199 271.107404 196.229339 271.202468 198.113582 270.234004 198.695284 270.791019 197.490435 277.533135 198.973554 278.826897 197.873796 281.261426 196.754795 280.979205 196.32999 281.583752 196.398077 282.455667 197.219565 282.681444 198.425895 284.6867 198.396292 285.888368 199.823166 285.785878 200.082194 284.325754 203.379989 284.906536 205.99839 283.19984 208.664157 284.599063 209.467884 287.534164 210.64313 287.89511 212.157333 287.348492 213.339981 289.288391 214.273961 289.490402 216.49716 288.005027 217.845586 289.199269 220.813305 287.125686 220.680091 289.16362 221.619992 289.511197 222.013714 288.502628 223.18156 288.242687 223.335496 290.831696 222.111405 292.471549 223.197842 292.973606 222.71531 295.03085 224.253195 295.228405 224.39085 296.933615 226.757625 297.137112 226.924883 298.389282 225.392918 300.127171 226.827192 303.29399 226.368343 305.021481 227.309724 306.340494 228.140094 311.124886 230.071702 311.561586 230.413618 313.54159 235.034676 316.651965 234.788969 318.410649 238.473086 318.902308 239.500316 319.772738 240.500904 321.543304 242.485798 322.862317 242.251933 324.23926 243.548552 324.854205 243.302846 325.602834 244.784485 327.276851 243.921552 327.652651 243.961517 326.835695 242.765548 326.661906 239.926602 329.441042 241.350516 329.90745 241.427484 330.939785 242.391068 329.604433 243.009774 330.1258 242.071353 330.807587 242.217889 331.431444 240.976035 331.633455 241.612504 332.361289 240.55567 332.68213 241.500012 333.255484 240.764372 334.926531 240.00061 334.430416 239.538801 335.0617 239.701618 335.632084 241.20546 335.894995 240.761412 337.454639 243.444941 338.044333 244.634989 337.323926 247.263752 339.456924 248.82384 338.286449 247.888379 337.482861 248.060078 336.254456 247.06245 335.692984 247.466534 333.669904 246.707212 332.753428 248.532249 331.608204 247.399927 330.641225 249.686773 330.232747 250.642956 330.653108 251.113646 331.808729 252.479833 331.45521 252.892798 330.118373 251.121047 329.176645 252.923881 328.215608 250.552666 326.450983 252.314056 326.5 253.579592 327.878428 256.498466 327.29319 257.330316 328.982061 256.187633 328.796389 255.805751 329.452925 257.325875 330.449612 255.965609 330.978405 258.591411 331.348263 258.58253 333.750114 260.465293 332.373172 262.358417 332.050846 262.084587 329.326668 266.430335 327.205553 266.735248 325.298332 268.258332 324.769538 271.705623 327.670475 270.369039 332.80096 270.383841 335.349863 270.995146 335.553359 270.617706 338.521138 269.908709 338.576097 269.298884 342.133569 270.243225 343.185215 269.201193 343.235718 269.873186 344.661677 270.851571 344.083867 271.976492 344.710695 272.689929 341.756284 275.345335 341.870658 274.976775 340.985375 273.530659 340.483318 274.076838 339.017253 276.810692 340.541248 277.583336 340.003542 277.558173 339.173218 278.489193 339.415334 278.117673 340.245658 278.896237 338.950411 280.071483 340.214465 281.024706 339.155393 281.43619 339.488117 281.43619 339.488117 282.313925 340.137226 282.112623 342.559872 283.318953 343.345635 283.498052 344.854776 282.532988 346.297075 283.739318 346.934301 283.128012 347.712637 283.274548 349.146024 284.739906 349.616888 285.173593 350.967093 286.200823 351.516682 285.755295 352.794104 286.273351 353.70761 288.298209 354.328496 290.693107 356.231261 291.918679 355.65048 291.223004 357.141796 292.851179 359.288163 292.706123 360.039762 293.743715 360.627971 293.173854 361.489488 291.640409 361.73606 291.196361 363.313528 288.333733 364.283478 289.045689 365.254913 290.417797 364.879113 290.161729 366.308044 292.330163 367.050731 293.754076 365.79856 294.691017 367.578039 295.271239 367.576554 295.400013 366.493716 296.285149 366.798218 295.706406 367.9984 292.997715 368.497486 285.980279 372.202011 286.499815 373.861175 286.17122 375.560443 287.276899 375.579753 286.781046 376.369973 288.176836 375.668876 287.793475 374.946984 288.320411 372.863003 289.023487 373.761654 291.621167 373.388825 295.069938 371.705896 295.166148 370.489374 296.234823 369.749657 300.471039 371.423675 300.774472 370.207153 302.077012 371.065699 304.082628 370.689899 304.557759 372.415905 305.357045 371.931673 305.183866 370.523537 307.019264 370.885969 307.325657 369.211952 310.23565 369.709552 310.565726 369.1867 312 370.242802 310.895801 371.659849 309.797523 371.453382 310.376265 373.274452 310.376265 373.274452 308.862062 373.587866 309.332753 374.819241 306.968938 374.627628 307.472193 376.096664 306.637383 376.668533 306.532291 378.575754 303.63414 377.896938 302.260552 379.198126 300.608694 379.296161 300.138003 380.747372 298.310006 381.45441 298.080582 383.012569 295.953593 383.342322 295.012211 384.759369 293.579417 384.618259 289.091574 387.844493 286.143097 388.120772 286.289633 389.569013 283.259747 389.83638 281.874317 391.963437 279.183388 393.970178 276.733724 393.950868 275.731656 395.574383 273.967306 395.883341 272.457544 397.590037 269.412856 398.935786 267.635185 401.129685 267.940098 401.759484 266.889184 403.764739 265.327616 404.152422 265.528918 404.828268 264.628981 405.499657 261.92621 405.282793 261.320825 406.588437 260.271392 406.474063 258.307221 409.092779 258.347185 411.291133 256.852224 411.834781 256.708649 412.626485 257.732919 413.388483 258.027471 418.290219 259.390697 421.287706 260.15446 421.66202 260.574825 423.116202 263.008207 424.604548 265.663613 424.922418 265.767224 425.74383 268.025947 425.117002 269.581594 425.394767 271.088396 427.003428 271.612373 426.25777 273.640191 426.124086 275.229882 424.803588 279.247035 425.770567 279.714765 423.647966 281.658214 421.932358 282.349449 421.492687 284.087156 422.29479 283.314512 425.286335 284.41131 425.469036 283.724517 427.126714 285.482946 428.681901 285.842625 429.818213 284.997454 429.984575 285.23872 432.54239 282.27396 433.546504 281.017305 432.338894 278.145796 432.527537 276.437692 434.051531 275.284648 434.431787 272.695849 433.681673 268.378225 436.058272 269.519428 439.149337 270.438606 439.248857 270.221023 440.232176 271.30746 440.74463 270.614745 441.530393 267.675149 441.857176 266.742649 442.552331 268.159161 444.918533 270.083368 445.040334 271.394789 444.404593 272.022377 445.554273 273.717159 446.262797 274.732549 448.591865 274.895366 451.059072 274.449838 452.534049 273.881457 452.45681 272.937115 454.185786 271.816635 454.765082 270.246186 453.853062 270.19142 451.954753 269.159749 452.57564 268.745304 451.757198 267.145252 452.266682 268.283495 454.484346 267.938617 458.912249 268.992491 461.207153 271.169805 463.404022 270.292071 463.999657 269.790297 465.95144 268.42855 465.685558 266.727847 466.315356 265.299493 464.562614 263.629874 464.584895 262.795064 463.839237 263.672798 461.961723 263.376766 460.731833 261.002591 461.486403 260.930063 462.1875 260.126337 461.936472 260.414968 462.60192 259.436582 463.589694 259.868789 464.271481 258.372348 464.856718 256.467383 462.552902 255.949327 463.047532 255.031628 462.702925 254.747438 463.365402 252.034306 461.798332 250.666638 463.084666 248.585534 463.047532 247.937225 460.740745 248.295423 459.853976 247.653034 459.15585 246.337172 460.724406 246.692411 462.134027 245.66518 463.739717 246.079625 467.164991 243.360572 467.830439 240.672603 469.532678 241.156615 472.660878 238.14449 474.296275 237.587951 473.923446 235.529049 474.642367 234.997672 475.334552 234.152501 474.112089 232.682703 473.638254 232.552449 474.548789 233.513072 475.188985 233.163754 476.512454 232.220893 476.505027 232.129123 478.486517 231.116694 477.090265 228.970463 477.143739 228.150455 476.27925 228.773602 475.753428 228.29107 475.12957 225.065803 473.072326 225.32187 471.04479 226.858276 468.742459 228.487931 469.623286 229.011907 470.666019 230.588277 470.397166 231.655472 469.256399 232.623496 471.438414 234.532902 470.461037 235.0776 468.28942 236.756101 467.83638 236.818268 466.619858 235.386954 466.673332 234.973989 465.684072 233.9586 465.663277 234.88814 462.909392 236.541478 462.043419 236.055986 460.107975 234.627632 459.862888 233.785421 458.598835 233.443504 456.652994 234.322719 456.514854 234.119937 455.86723 235.434319 454.277879 237.173506 456.188071 239.085872 454.924017 239.173201 453.691156 238.530812 453.107404 239.583205 452.29936 239.011864 451.662134 239.34638 451.005599 237.67528 449.595978 236.898196 450.182701 236.581442 449.581124 237.220871 448.229433 236.550359 447.602605 236.910038 445.616659 234.458894 444.428359 229.925166 447.027765 228.951221 445.861746 224.922227 446.862888 219.201412 445.52011 217.642804 445.870658 216.668859 444.315471 217.317169 442.890996 218.72628 441.962637 217.158792 440.356947 217.371935 439.480576 217.844105 440.160878 218.665594 439.967779 217.966959 441.212523 219.564051 441.405622 220.39442 442.773652 223.844671 441.050617 224.065215 440.067299 221.022007 440.261883 220.566118 440.860489 219.022312 440.171275 220.002178 439.030507 219.173288 437.708524 219.46932 437.203496 220.646047 439.805873 221.378726 437.668419 220.804424 436.1875 221.813893 435.55176 221.628873 434.948697 215.851811 434.85809 216.014629 436.694013 214.506346 437.591179 214.604037 440.193556 212.666508 440.435672 212.265385 441.209552 208.445094 440.098492 208.22455 438.852262 207.348296 438.124429 206.806557 438.559644 206.159728 437.286677 205.455172 438.847806 206.45576 441.414534 206.238176 443.477719 206.538649 442.782564 208.348883 443.664877 211.140464 443.36186 211.548988 444.836837 210.717138 444.838323 210.91696 446.344493 209.749114 446.604433 209.15113 447.97989 207.601403 448.152194 204.703251 443.376714 203.958731 447.050046 205.25387 447.596664 204.211838 448.784963 204.41758 449.668761 203.11208 450.144081 203.384429 451.578953 201.99604 453.062843 204.072703 453.998629 205.246469 453.734232 205.290874 454.726463 206.525327 454.543761 204.32137 457.795247 204.217759 459.654936 203.261576 460.813528 206.883526 460.88037 207.645808 461.525023 208.004006 462.474177 207.238764 463.158935 210.703817 469.385626 208.483578 472.565814 207.998086 474.657221 209.078602 479.355462 208.058772 481.11266 209.053439 482.883227 208.009927 483.134255 206.131605 485.45441 204.814263 486.133227 204.259203 485.660878 202.668032 487.265082 201.646722 487.15665 200.222809 488.481604 198.942471 488.584095 197.721339 489.89271 197.620689 491.401851 195.995474 493.052102 197.084871 494.608775 197.656212 493.989374 199.960821 495.375229 201.661524 494.956353 202.311314 495.954525 201.472063 496.609575 203.043992 496.284278 203.041032 496.977948 202.107052 497.563186 200.669817 497.335923 198.776693 499.240174 196.845085 499.667962 195.808974 501.123629 192.05677 500.343807 189.937182 502 189.937182 502 188.690887 500.914191 188.865546 500.11803 187.560046 497.78005 186.367037 497.652308 185.606235 498.990631 183.871489 498.096435 184.081671 495.048446 183.087004 494.161677 181.313773 494.15128 180.948174 492.930302 179.650074 492.752057 179.038769 491.421161 178.303129 491.542962 178.042621 492.624314 176.660153 492.769881 174.734465 489.077239 173.214342 489.487203 172.64596 488.679159 171.449992 490.22692 170.770599 488.772738 169.191269 489.288163 168.55776 488.885626 169.352606 487.143282 168.692455 485.660878 169.425134 483.13574 166.837815 482.041019 164.861803 483.342207 164.707866 480.420475 163.802009 480.230347 161.979932 477.855233 160.598944 478.283021 160.18894 477.580439 160.171178 475.064214 162.110186 472.723263 161.501841 470.712066 161.77123 468.662249 160.405043 467.411563 160.523456 466.05096 159.336368 466.493601 159.253479 467.895795 157.968701 469.464351 156.56847 470.028793 155.114953 468.64888 155.886116 467.065471 152.489151 465.697441 151.513726 464.125914 153.442373 459.959438 154.548052 460.174817 154.929934 458.747372 155.490914 459.065242 156.122942 458.031421 155.489434 457.667505 154.217977 458.506741 151.584774 457.019881 152.308571 455.938528 151.876365 453.612431 150.53386 454.615059 149.348253 454.032793 148.961931 454.432358 147.814808 457.383798 148.686622 458.055187 146.593673 459.33261 144.864847 457.992802 140.664155 458.147281 139.453385 456.177674 139.570317 454.888368 136.201475 454.368487 134.841208 453.200983 133.476501 455.123058 133.698525 456.495544 132.364902 456.589122 131.497528 454.77548 131.676628 453.290105 131.676628 453.290105 130.066214 453.474292 129.056746 451.650251 129.056746 451.650251 127.110336 452.128542 125.744149 450.710009 126.618923 450.035649 128.067999 450.482747 128.927972 449.419218 127.729043 449.734118 125.092879 448.917162 124.493415 449.607861 123.091704 449.542505 120.597635 448.241316 120.607996 446.733661 119.592607 446.435101 116.237086 449.125114 115.491086 447.743716 114.1397 447.477834 113.57872 449.893053 112.134084 449.292962 111.738882 447.636769 107.480463 448.903793 106.087633 447.630827 102.111925 447.522395 98.8511345 449.297418 97.8579476 448.224977 96.20757 449.775708 90.3017343 447.290676 90.3017343 447.290676 85.2928752 438.642824 83.7076245 431.49223 79.745238 427.359918 79.0569639 425.443784 76.8870504 423.104319 77.3103759 418.720978 76.632463 412.552217 75.1152997 412.228405 72.6123503 413.254799 68.3805748 413.698926 64.6609344 412.412591 58.9741623 404.061814 58.5552772 399.60569 61.3468577 393.705782 61.6961753 385.360946 61.1944013 383.152194 58.0490627 381.472235 52.2586795 382.103519 50.2767461 381.720293 47.3800744 379.585809 40.7415598 376.310558 40 374.309758 40.9132583 367.003199 42.9247948 361.840037 51.7199015 353.582838 54.0215492 350.12043 56.5008161 348.239945 59.3368013 340.876942 60.8598853 338.52708 67.3429831 332.429616 70.9856552 331.526508 73.4293982 332.024109 76.8219234 335.719721 77.0173044 338.353291 79.4728887 342.61186 83.3938307 343.268396 95.4393673 338.252285 99.6770634 337.417505 107.378332 337.306101 114.78653 334.21058 115.89961 328.270567 117.838618 325.461723 123.680807 320.155964 127.321999 309.355804 129.885635 305.859232 140.005484 299.816728 147.145773 296.55633 148.95305 292.303702 151.716508 288.697212 157.358875 277.766339 161.078515 264.192984 167.888728 261.173218 173.343116 259.601691"></polygon>
            </g>
        </g>
    </g>
</svg>