<?xml version="1.0" encoding="UTF-8"?>
<svg width="153px" height="145px" viewBox="0 0 153 145" version="1.1" xmlns="http://www.w3.org/2000/svg" xmlns:xlink="http://www.w3.org/1999/xlink">
    <!-- Generator: Sketch 52.5 (67469) - http://www.bohemiancoding.com/sketch -->
    <title>IN-TG</title>
    <desc>Created with Sketch.</desc>
    <defs>
        <filter x="-2.5%" y="-2.2%" width="105.1%" height="104.5%" filterUnits="objectBoundingBox" id="filter-1">
            <feOffset dx="4" dy="4" in="SourceAlpha" result="shadowOffsetOuter1"></feOffset>
            <feGaussianBlur stdDeviation="4" in="shadowOffsetOuter1" result="shadowBlurOuter1"></feGaussianBlur>
            <feColorMatrix values="0 0 0 0 0   0 0 0 0 0   0 0 0 0 0  0 0 0 0.5 0" type="matrix" in="shadowBlurOuter1" result="shadowMatrixOuter1"></feColorMatrix>
            <feMerge>
                <feMergeNode in="shadowMatrixOuter1"></feMergeNode>
                <feMergeNode in="SourceGraphic"></feMergeNode>
            </feMerge>
        </filter>
    </defs>
    <g id="views" stroke="none" stroke-width="1" fill="none" fill-rule="evenodd" opacity="0.2">
        <g id="Overall-2" transform="translate(-803.000000, -633.000000)" fill="#FFFFFF">
            <g id="india" filter="url(#filter-1)" transform="translate(524.000000, 29.000000)">
                <polygon id="IN-TG" points="290.739222 658.80945 291.26387 657.948635 289.797814 656.935738 290.901789 654.716518 289.995849 654.407924 291.829897 653.821743 290.62247 653.241468 291.560923 652.581461 292.320553 652.891531 292.203801 650.514323 293.798432 650.348952 294.068884 651.172854 296.51034 650.279556 296.398021 646.350518 297.163562 645.340574 298.054723 646.08622 299.633098 642.084833 302.88591 641.603485 300.998658 638.803991 299.727682 638.713923 300.137055 637.383573 298.867557 637.475117 299.005 636.406112 297.46505 636.437119 297.157651 634.904484 297.289182 633.816284 298.388724 634.164745 298.557202 632.518417 299.964143 632.903791 299.43654 631.422835 300.281887 629.955167 299.915373 629.428047 300.559728 627.532187 301.746465 627.142384 300.39125 626.593116 300.358737 626.006935 303.082468 624.731216 306.078128 627.024262 306.245129 627.970716 307.207228 627.546952 309.92357 628.147899 310.761527 625.041287 310.298951 622.436694 314.218286 620.980839 313.297567 617.663083 314.289224 617.220126 314.283313 616.164409 313.006425 614.240495 313.50447 613.373774 315.34443 612.594168 316.039033 610.39119 315.14935 608.492377 313.761621 608.154252 314.547853 606 315.065111 607.055717 316.547423 607.184174 316.964185 608.583922 319.393818 609.238023 319.943589 609.996957 320.944113 609.065269 323.338277 609.202586 326.827549 610.857772 328.943872 610.466493 330.823734 611.132406 331.231629 614.461974 332.999172 614.089889 334.63814 614.693789 334.997264 616.786027 334.193298 617.871274 335.378557 617.537579 336.167745 618.258124 338.782112 618.647927 341.099427 620.842045 342.496022 620.610231 341.997977 619.832101 342.920174 618.686316 343.144811 615.891252 345.030585 616.622132 345.321727 617.425363 347.015376 617.23932 350.152913 619.643106 352.387466 617.97906 352.691909 618.906319 354.101806 619.436392 355.390516 617.115292 358.50293 616.198369 359.898047 616.509916 361.222227 618.355574 364.686375 620.718017 365.701678 622.786631 365.354377 626.156064 364.067144 628.469782 364.779482 630.285909 362.145901 632.447544 362.193193 634.70663 363.941524 634.293202 364.510508 635.12744 364.649428 640.414882 363.257266 641.327375 364.433658 642.833432 366.91945 643.406324 369.965359 646.344612 371.426981 645.702323 372.381691 646.363807 372.782196 645.653598 374.812802 644.989161 374.812802 644.989161 377.112382 649.254846 381.492815 647.903824 386.109709 651.444535 386.669825 652.953545 388.158049 654.127384 387.914199 654.667793 389.013741 655.002964 388.695997 655.847537 389.572379 658.459513 390.918727 660.017249 389.222122 661.157127 389.262025 662.680902 391.221692 662.856609 392.201526 660.662491 393.374962 661.530688 392.777899 661.842235 393.205006 663.941856 396.660287 662.796072 395.741046 665.611808 398.478078 675.018759 399.750532 675.129498 402.410714 672.988535 405.332481 674.295261 409.383347 674.47392 409.383347 674.47392 411.68736 673.889216 412.359795 674.594995 415.068748 673.787335 416.381104 674.190427 417.986081 672.204499 418.767879 671.950536 419.227499 672.713901 420.932971 671.672949 420.932971 671.672949 422 672.991488 421.677822 673.655925 415.312598 677.071131 415.144119 678.302554 413.033708 681.462321 413.675108 682.111992 412.986416 683.089453 412.73961 686.005593 410.332145 688.813946 408.97693 688.955693 407.518264 687.880782 405.738898 690.153156 403.090538 690.080806 402.509732 692.965939 398.914052 693.568362 397.202669 694.666898 394.545442 693.97293 394.792248 695.750668 393.462157 695.738856 393.105988 698.807078 392.290199 699.616215 388.988617 698.365597 386.324001 698.669761 386.851604 697.621428 383.866289 696.006107 381.884453 696.974709 381.45439 698.826273 380.341547 699.895278 379.546448 699.644269 378.758739 697.949216 377.891224 698.623989 378.562181 699.989776 377.619294 701.383617 381.627302 703.093435 381.736665 702.105639 384.609662 702.801083 384.689467 704.490229 384.015554 704.646741 383.693377 706.06716 385.225937 707.255763 383.94905 708.054564 380.656335 707.183414 380.538105 706.371324 378.902093 705.266882 378.074481 706.507165 377.631117 705.100035 376.413345 704.584727 375.85914 701.859059 374.64728 700.100516 372.762984 700.020783 372.170354 698.99755 370.677697 700.912605 367.955444 701.556371 366.832255 703.419747 366.279529 704.832783 367.56085 705.179767 368.692905 706.425956 368.018992 708.623027 365.242058 711.92897 363.507028 712.064811 362.262654 710.127608 360.666544 710.375664 359.571436 709.12357 355.647667 711.288158 350.980526 712.299578 348.79622 713.838119 343.832025 714.511415 342.569916 716.21828 342.364491 724.817571 341.06248 725.538116 336.556427 724.622669 333.294748 726.010604 332.674039 726.663229 332.830694 729.117216 331.660214 728.957751 331.358726 727.584581 330.58284 727.467936 330.541459 729.685679 328.639429 731.724762 326.741832 731.628788 323.752083 729.318024 321.959416 730.677905 317.212469 729.892393 314.445879 731.549055 312.602964 731.479659 312.025113 734.745735 310.232446 735.659705 309.756569 737.303079 308.555054 737.304556 308.052575 738 306.632333 737.444826 305.784031 735.608027 304.719958 736.976767 301.187827 735.804405 298.450795 736.781866 295.879286 736.102663 294.111742 736.424546 292.484598 735.299433 289.485981 735.008557 289.485981 735.008557 289.506671 732.408394 288.90813 731.501807 289.484503 729.170371 288.782511 728.779091 288.687926 727.410351 289.525884 725.338785 288.847537 725.306301 288.809113 724.492735 289.231786 723.915413 290.238222 724.080784 291.204754 722.9601 291.98803 723.307084 292.027933 721.684381 289.023405 720.458864 286.463719 720.878198 284.335573 720.333359 282.532561 719.587714 281 717.504335 282.758676 717.325675 282.90203 716.754259 285.058256 716.990503 285.452849 716.138547 286.573082 715.909686 285.83562 714.391816 288.084952 713.783488 288.247519 711.772458 287.119897 712.070717 286.612984 711.263057 288.111554 710.766944 288.167713 709.686126 286.824321 709.604917 287.261773 707.403416 288.300722 707.531874 287.752429 703.362163 289.175627 700.205349 288.03766 697.097261 284.863176 695.247173 286.063213 693.732257 285.492752 693.37789 287.78642 691.572098 287.15241 691.173436 287.69627 688.5275 289.166759 689.056097 290.060876 688.475822 290.292903 687.446683 289.508149 686.701037 291.438259 686.627211 291.45895 685.832839 292.616129 686.154722 292.626474 685.326391 293.538325 685.131489 293.919618 684.252956 293.774786 684.963165 294.886151 685.231893 294.936399 684.176176 292.032367 683.305026 291.973251 682.334948 290.69193 682.764617 290.041664 681.9983 289.243609 683.040728 288.884484 682.222732 287.335667 681.734001 287.657845 678.191814 291.113126 676.393405 291.234312 675.84266 289.332282 675.249097 289.530317 674.640768 289.997327 673.821296 290.731833 674.104789 291.444171 672.33591 292.186066 672.412689 291.829897 671.193078 292.799386 671.365832 293.022546 669.594 293.649166 669.961655 293.93883 669.220439 293.715671 668.449692 292.048623 667.9019 290.609169 666.491818 292.305774 665.016768 292.218579 663.321715 291.184064 661.749214 292.381146 659.242072"></polygon>
            </g>
        </g>
    </g>
</svg>