<?xml version="1.0" encoding="UTF-8"?>
<svg width="141px" height="185px" viewBox="0 0 141 185" version="1.1" xmlns="http://www.w3.org/2000/svg" xmlns:xlink="http://www.w3.org/1999/xlink">
    <!-- Generator: Sketch 52.5 (67469) - http://www.bohemiancoding.com/sketch -->
    <title>IN-TN</title>
    <desc>Created with Sketch.</desc>
    <defs>
        <filter x="-2.5%" y="-2.2%" width="105.1%" height="104.5%" filterUnits="objectBoundingBox" id="filter-1">
            <feOffset dx="4" dy="4" in="SourceAlpha" result="shadowOffsetOuter1"></feOffset>
            <feGaussianBlur stdDeviation="4" in="shadowOffsetOuter1" result="shadowBlurOuter1"></feGaussianBlur>
            <feColorMatrix values="0 0 0 0 0   0 0 0 0 0   0 0 0 0 0  0 0 0 0.5 0" type="matrix" in="shadowBlurOuter1" result="shadowMatrixOuter1"></feColorMatrix>
            <feMerge>
                <feMergeNode in="shadowMatrixOuter1"></feMergeNode>
                <feMergeNode in="SourceGraphic"></feMergeNode>
            </feMerge>
        </filter>
    </defs>
    <g id="views" stroke="none" stroke-width="1" fill="none" fill-rule="evenodd" opacity="0.2">
        <g id="Overall-2" transform="translate(-770.000000, -837.000000)" fill="#FFFFFF">
            <g id="india" filter="url(#filter-1)" transform="translate(524.000000, 29.000000)">
                <path d="M344.162733,943.06084 L344.865286,943.587085 L344.230485,944.49471 L344.582497,945.136255 L348.093787,948.364678 L343.742969,945.60485 L341.147796,945.380161 L340.831132,944.652879 L341.327484,944.193154 L342.782667,944.159155 L344.162733,943.06084 Z M310.503543,835.785244 L310.705324,836.96486 L309.553551,838.032132 L311.85268,837.699533 L312.655386,838.926452 L315.056143,840.221369 L317.870771,840.045462 L317.810384,838.632287 L318.763322,838.599767 L318.913554,837.334414 L319.440836,837.38763 L319.608742,837.332936 L319.867965,838.085348 L320.585246,837.899092 L320.52044,836.060192 L321.642757,835.213174 L322.991893,830.533143 L323.638478,830.539056 L322.620734,828.651374 L323.775453,827.420021 L325.090714,827.847225 L325.358774,826.213797 L326.702019,826.552308 L330.711135,825.264782 L330.892296,827.36237 L332.210503,827.396369 L331.248727,826.876037 L331.893838,825.845721 L333.904288,825.569295 L336.662948,827.5368 L339.24192,827.752619 L340.358345,825.312085 L341.264152,824.70306 L341.265624,823.703786 L342.778248,823.524922 L344.028703,824.923314 L345.466211,823.887085 L345.257066,822.836074 L347.60038,822.065923 L347.534102,821.400726 L348.27053,821.14056 L347.980377,820.728138 L347.201236,821.286904 L347.638675,819.100622 L346.083338,818.41473 L347.756503,817.765794 L351.052756,818.161955 L351.4519,819.55 L352.423986,820.23737 L355.145824,819.082884 L355.29311,820.739964 L355.99419,820.599533 L355.768843,821.436203 L356.820462,820.979435 L357.484721,821.829409 L358.733703,820.927697 L356.771858,819.387396 L357.78371,818.422121 L358.576107,819.076971 L359.207963,818.37334 L360.776555,818.401426 L363.06832,817.374066 L363.932886,816.169321 L363.283357,815.214393 L364.231876,814.785711 L364.189163,813.730265 L365.223109,813.471577 L365.547137,812.577256 L366.47651,812.680731 L366.374883,812.132313 L365.062567,811.870669 L365.184815,811.252775 L367.507509,811 L370.055551,812.858117 L372.46809,812.92168 L373.876141,815.694813 L374.98962,816.31862 L374.988148,814.642324 L376,819.357832 L374.587531,823.585529 L373.226611,834.822925 L370.211674,844.695928 L361.817864,857.438148 L360.362682,861.346551 L359.137266,860.623703 L357.256428,862.394606 L356.60248,860.50249 L357.739525,860.124066 L357.187204,859.658428 L356.297598,860.190586 L355.471326,858.873496 L354.403505,859.909725 L356.088453,860.357624 L355.444814,861.472199 L356.30349,861.719061 L356.885268,862.886852 L356.59217,863.407184 L355.589154,862.472951 L354.854199,863.69987 L356.234265,864.560192 L357.652626,863.860996 L357.724796,864.994787 L358.637967,864.498107 L359.212381,865.500337 L357.8765,873.181146 L360.377411,879.734077 L360.882601,891.605628 L359.244784,891.286333 L358.689517,891.877619 L357.101778,891.259725 L357.521542,892.627075 L356.229847,892.360996 L356.945655,894.0639 L359.477495,895.004046 L359.611525,896.674429 L360.779501,896.684777 L361.644067,912.859414 L360.299349,913.518698 L357.439062,913.527567 L346.425041,912.225259 L343.625141,913.978423 L341.595544,917.614834 L341.57787,919.246784 L342.776775,920.937863 L339.315562,924.232806 L338.288981,926.660036 L334.34909,931.218854 L332.516857,934.363019 L331.39454,938.336463 L332.662669,940.641001 L336.490624,943.937422 L340.404003,944.524274 L337.424415,945.199818 L333.150185,944.80957 L330.624236,945.303294 L326.136442,946.791857 L325.853654,947.371317 L323.986072,947.301841 L323.50592,947.88278 L323.968397,948.385373 L321.527874,949.207261 L316.364039,949.811852 L310.147112,954.559881 L308.904021,956.961981 L308.553481,960.401789 L309.469598,960.246577 L310.796641,961.111333 L308.921695,961.257676 L306.934812,964.134284 L306.677062,966.320565 L307.979067,966.087007 L307.72279,968.937007 L305.709395,971.33763 L305.230717,972.563071 L305.769782,972.864627 L297.660234,976.669554 L295.895752,978.870617 L290.61998,980.164056 L289.85704,982 L282.612059,980.620825 L275.844283,975.120384 L276.629316,974.347277 L277.792872,974.672484 L277.026987,972.619243 L279.329062,970.780342 L278.620618,969.05083 L280.502928,968.80249 L281.046412,967.680524 L277.660315,961.458714 L278.314264,961.538537 L279.489603,960.271706 L280.363007,957.673003 L279.183249,955.863667 L278.435038,955.915405 L278.427673,954.942739 L276.947453,952.924974 L278.486588,952.156302 L278.91077,950.539134 L280.634013,948.840664 L280.167117,947.714263 L281.097962,946.790379 L281.097962,944.234544 L281.631136,943.096317 L282.469192,943.081535 L283.176163,939.866416 L284.542974,939.252956 L285.087931,937.825 L283.678407,936.898159 L283.38089,934.754746 L282.884537,935.748107 L282.252682,934.818309 L280.732694,935.693413 L278.91077,934.470928 L277.552797,934.413278 L278.72519,930.997121 L279.289295,930.804953 L279.337899,928.988226 L280.083164,928.719191 L279.311387,927.90765 L279.7665,926.831509 L279.009452,926.302308 L280.10673,923.904642 L280.856414,923.575 L280.51913,921.487759 L278.660385,919.230524 L280.87998,918.399767 L281.517726,915.647329 L280.471998,915.230472 L280.595718,914.195721 L279.483712,912.568205 L279.719369,911.490586 L277.894499,911.302853 L274.468635,913.20236 L274.057708,914.368672 L271.969198,915.602982 L269.955803,915.098911 L268.62434,913.777386 L268.6862,913.058973 L267.892331,913.447744 L267.310552,912.897848 L267.917369,910.884518 L266.930555,909.157962 L267.621325,903.837863 L266.858385,902.545902 L268.94395,902.449818 L268.416668,901.015949 L269.711309,898.028475 L269.427047,897.117894 L267.951245,896.873989 L267.245747,895.179953 L262.053927,893.22723 L263.822828,889.870202 L266.472497,889.525778 L264.765456,889.366131 L264.815533,887.054201 L263.348568,886.326919 L264.409025,884.310633 L263.526784,883.605524 L261.248275,885.037915 L257.074199,884.501323 L255.999014,885.209388 L255.803124,883.63361 L258.694342,881.692713 L258.632482,879.834595 L257.747295,879.989808 L255.863511,878.900363 L254.69259,877.263978 L252.327183,876.476089 L251.932457,876.916598 L250.611305,875.979409 L249.441857,876.446525 L249,873.158973 L250.393322,872.266131 L251.224013,873.161929 L252.833846,872.583947 L253.755854,871.337811 L255.13592,871.309725 L255.09468,870.177412 L255.954829,870.308973 L257.583808,868.962318 L258.700233,869.827075 L259.30705,871.722147 L265.046772,871.708843 L267.213344,872.127178 L267.854036,872.839678 L268.273801,871.982313 L267.583031,870.654876 L269.777587,866.28527 L271.624549,866.854383 L272.031058,865.726504 L273.007561,865.665897 L273.84709,866.264575 L273.559883,866.867687 L274.614448,866.477438 L275.079871,868.112344 L276.241954,868.49668 L276.041646,866.917946 L279.872546,866.270488 L280.326186,865.683636 L281.654702,865.812241 L282.92725,867.049507 L283.956777,866.427178 L285.79932,867.309673 L286.940784,864.532106 L286.833266,862.978501 L287.577058,863.373185 L287.808297,861.600804 L293.237246,861.420462 L294.13127,859.164704 L296.567374,856.158013 L295.269788,854.217116 L287.23241,853.117324 L287.372331,851.241468 L289.608127,850.554098 L291.491911,848.3486 L291.992682,846.627956 L292.150278,844.460892 L290.614088,844.740275 L291.569972,843.751349 L290.711297,843.523703 L290.450601,841.919839 L291.307804,839.933117 L291.076565,838.781587 L293.04872,838.258299 L293.79104,839.050622 L294.576072,838.273081 L295.427384,838.58055 L297.526204,834.707624 L297.07551,833.226452 L301.171524,831.820669 L301.687024,832.525778 L300.909356,833.600441 L301.389507,833.862085 L302.030199,832.738641 L303.134842,834.432676 L303.753441,834.438589 L304.167314,832.848029 L305.148237,832.958895 L307.428219,835.239782 L310.503543,835.785244 Z" id="IN-TN"></path>
            </g>
        </g>
    </g>
</svg>