<?xml version="1.0" encoding="UTF-8"?>
<svg width="50px" height="65px" viewBox="0 0 50 65" version="1.1" xmlns="http://www.w3.org/2000/svg" xmlns:xlink="http://www.w3.org/1999/xlink">
    <!-- Generator: Sketch 52.5 (67469) - http://www.bohemiancoding.com/sketch -->
    <title>IN-TR</title>
    <desc>Created with Sketch.</desc>
    <defs>
        <filter x="-2.5%" y="-2.2%" width="105.1%" height="104.5%" filterUnits="objectBoundingBox" id="filter-1">
            <feOffset dx="4" dy="4" in="SourceAlpha" result="shadowOffsetOuter1"></feOffset>
            <feGaussianBlur stdDeviation="4" in="shadowOffsetOuter1" result="shadowBlurOuter1"></feGaussianBlur>
            <feColorMatrix values="0 0 0 0 0   0 0 0 0 0   0 0 0 0 0  0 0 0 0.5 0" type="matrix" in="shadowBlurOuter1" result="shadowMatrixOuter1"></feColorMatrix>
            <feMerge>
                <feMergeNode in="shadowMatrixOuter1"></feMergeNode>
                <feMergeNode in="SourceGraphic"></feMergeNode>
            </feMerge>
        </filter>
    </defs>
    <g id="views" stroke="none" stroke-width="1" fill="none" fill-rule="evenodd" opacity="0.2">
        <g id="Overall-2" transform="translate(-1233.000000, -479.000000)" fill="#FFFFFF">
            <g id="india" filter="url(#filter-1)" transform="translate(524.000000, 29.000000)">
                <polygon id="IN-TR" points="743.368677 452.04607 744.767996 452.683622 744.767996 452.683622 744.769455 454.169756 746.035992 456.923562 744.213521 461.338867 746.77286 461.255643 746.77286 461.255643 748 464.814934 747.306907 468.613493 747.76216 470.141239 747.225195 471.12506 747.826362 472.774668 747.492218 474.330651 746.629864 474.140426 746.104572 474.898354 746.470817 475.989176 745.634728 476.050108 745.913424 478.968875 745.913424 478.968875 745.269942 479.120461 744.554961 481.377899 744.360895 480.099823 743.409533 479.581163 743.219844 478.500743 742.694553 478.595856 739.86965 481.805905 738.417802 481.355607 737.211089 478.931722 736.555934 479.000084 735.950389 480.550122 736.952821 487.280823 735.935798 487.729636 735.934339 488.792222 734.764105 488.662928 733.048152 490.052463 730.83463 494.167569 732.684825 500.314219 732.064689 501.174691 730.944066 501.283179 729.282101 503.900261 728.497082 503.433615 727.086089 503.791773 725.641537 505 724.509241 504.451617 722.36284 498.374814 722.77286 497.39991 721.653696 497.171046 722.011187 496.384881 721.208658 494.95522 720.108463 494.944817 719.044747 497.487592 720.055934 501.531363 718.701848 501.369374 717.257296 498.220256 717.317121 495.02061 716.526265 493.746993 716.988813 493.356139 716.247568 492.723046 717.11284 491.329053 716.228599 491.593584 714.918288 487.035611 713.485409 486.088944 713.825389 485.056081 713.259241 485.06797 712.232004 483.238539 712.091926 480.929086 713.241732 481.72714 713.581712 480.356925 712 480.233575 712.065661 478.603286 713.139591 478.135154 714.026751 478.580994 715.036479 475.216387 714.268969 473.742142 714.786965 472.72414 714.35214 472.205479 715.605545 472.28573 715.469844 471.02103 715.831712 470.362673 716.319066 470.7134 716.526265 469.838067 718.717899 470.573704 719.27821 468.050248 718.713521 466.079634 723.820525 467.210582 726.534533 466.312957 727.332685 463.43283 726.962062 462.524802 727.557393 461.97939 728.088521 464.051061 729.518482 464.965034 730.447957 464.930853 729.875973 461.411687 732.077821 462.709082 733.052529 462.050725 732.877432 463.088046 734.298638 465.144856 734.95963 464.968006 735.937257 460.719149 735.282101 458.405238 736.402724 457.708241 737.571498 458.895662 736.92072 456.608502 741.353599 456.771977 741.962062 455.392844 742.9893 455.172896 742.367704 452.814401 742.472763 452"></polygon>
            </g>
        </g>
    </g>
</svg>