<?xml version="1.0" encoding="UTF-8"?>
<svg width="117px" height="110px" viewBox="0 0 117 110" version="1.1" xmlns="http://www.w3.org/2000/svg" xmlns:xlink="http://www.w3.org/1999/xlink">
    <!-- Generator: Sketch 52.5 (67469) - http://www.bohemiancoding.com/sketch -->
    <title>IN-UT</title>
    <desc>Created with Sketch.</desc>
    <defs>
        <filter x="-2.5%" y="-2.2%" width="105.1%" height="104.5%" filterUnits="objectBoundingBox" id="filter-1">
            <feOffset dx="4" dy="4" in="SourceAlpha" result="shadowOffsetOuter1"></feOffset>
            <feGaussianBlur stdDeviation="4" in="shadowOffsetOuter1" result="shadowBlurOuter1"></feGaussianBlur>
            <feColorMatrix values="0 0 0 0 0   0 0 0 0 0   0 0 0 0 0  0 0 0 0.5 0" type="matrix" in="shadowBlurOuter1" result="shadowMatrixOuter1"></feColorMatrix>
            <feMerge>
                <feMergeNode in="shadowMatrixOuter1"></feMergeNode>
                <feMergeNode in="SourceGraphic"></feMergeNode>
            </feMerge>
        </filter>
    </defs>
    <g id="views" stroke="none" stroke-width="1" fill="none" fill-rule="evenodd" opacity="0.2">
        <g id="Overall-2" transform="translate(-813.000000, -236.000000)" fill="#FFFFFF">
            <g id="india" filter="url(#filter-1)" transform="translate(524.000000, 29.000000)">
                <polygon id="IN-UT" points="340.511429 213.211018 342.161724 215.264813 341.722532 216.79851 342.926242 217.636281 343.300368 219.818623 344.545482 221.2681 346.302247 221.678859 347.269355 224.583723 349.997664 224.526098 350.923367 226.862105 352.65943 227.974701 354.725255 226.443959 356.298654 226.528179 357.455043 225.687453 359.401089 226.730603 360.946392 226.689232 362.808148 229.800953 366.803754 231.528209 368.63002 233.834665 370.305453 232.64967 371.333191 234.402044 372.33431 234.351808 372.783853 235.337334 372.239669 236.785333 371.02413 237.764949 371.90547 238.651479 372.115454 241.014082 374.896998 241.426318 376.838608 242.87875 377.83677 242.723608 381.734777 245.470374 383.521117 244.294244 388.266453 247.473932 390.551135 250.262069 397 252.64979 396.977819 253.224557 396.097957 252.869945 393.6654 253.710672 392.201429 255.643307 392.653929 257.080964 389.054631 259.892742 388.634664 261.416096 386.422441 263.140397 384.176207 263.118234 382.602808 267.004191 380.828298 268.840786 378.987244 268.548231 376.882971 270.501553 377.385749 273.180352 378.497775 274.452522 378.113298 276.015771 377.215691 277.206676 376.096271 277.505141 376.31217 278.704912 374.364645 280.179507 374.854114 281.033531 373.016018 281.334952 372.970176 282.499261 374.008264 283.183367 374.138395 284.756958 375.300699 285.965594 374.69293 289.788017 373.174245 289.239846 373.901794 292.008775 372.712872 292.840636 371.195666 292.17426 369.957945 293.384374 369.687332 296.753189 369.137234 297.651539 368.591572 297.486054 367.299138 299.952085 367.6777 302.994361 367.6777 302.994361 366.231474 304.043422 366.689889 304.631487 365.858827 306.237584 364.442176 307 363.034398 306.401592 361.999268 304.538401 362.380787 303.963634 360.501285 303.734614 361.586694 303.394777 360.919774 302.483129 360.004422 302.465398 359.738246 303.607545 358.731211 303.848385 359.513475 301.831529 358.456162 300.813497 356.527861 301.205048 355.103817 302.341284 353.474225 301.624672 351.535573 302.426982 351.087509 300.786901 350.183988 301.815276 347.211684 302.076802 346.908538 299.392094 346.152893 299.223653 345.616103 298.047523 345.375066 298.682869 343.735123 298.659229 340.798308 295.984863 339.381658 296.20354 339.601993 295.204716 338.722132 294.569369 338.531372 292.454995 335.316551 290.941984 335.008969 292.859844 333.315791 291.135543 332.759778 291.741338 331.39932 291.705877 331.359394 289.873715 329.919083 287.803667 328.286534 287.924826 325.624769 285.826704 326.971917 284.681603 327.94494 285.405603 328.568976 283.512861 329.182661 284.032958 330.463266 283.178934 332.097294 280.924193 327.842906 280.222356 322.262072 277.188946 319.850217 274.974098 318.61989 270.829569 316.298239 269.728794 313.79618 268.88659 310.689309 272.150499 309.516653 271.939209 307.832347 273.143413 306.06671 275.771975 304.886661 276.08226 304.667805 277.514007 303.156513 277.75337 303.023425 276.259566 301.895133 276.175346 302.035615 275.26813 302.809005 275.339053 302.040051 272.104695 299.622281 272.225854 298.232248 273.382776 297.103955 272.936556 297.177893 272.279046 296.02594 271.730875 296.241839 269.266321 294.301708 266.204837 295.261422 264.724331 294.786741 263.961915 295.631112 262.802038 295.171218 262.097247 296.476962 260.717215 296.021504 259.937068 296.914674 258.097518 297.739821 258.465428 298.528 257.660163 301.405664 252.864035 294.5738 249.592739 292.20335 247.020324 290 247.247867 290 247.247867 290.558971 246.327353 293.591904 245.561982 297.310982 243.431354 297.664405 242.652685 297.436676 241.559298 296.154592 241.587371 295.153473 240.322588 296.778628 239.571993 296.686945 237.983626 295.273252 237.193137 295.511333 236.305129 293.877305 234.227694 295.614846 232.036486 295.617803 230.195459 297.006357 231.006634 297.200075 228.666194 295.651815 228.720864 295.310221 227.383681 296.2167 226.757199 297.865516 227.597925 297.223735 227.015771 298.118384 225.640171 297.353866 223.701625 298.661088 223.011609 300.043727 220.372705 302.125819 219.50686 303.966873 220.363839 304.453385 219.27193 306.242682 219.073938 308.101482 217.60673 310.726278 217.482616 311.85457 216.174984 312.608737 216.365588 312.762528 215.567711 314.556262 215.47167 315.83243 217.023098 316.511181 216.588698 317.27422 217.151645 318.078664 218.608509 320.151884 218.502126 321.955969 217.433857 323.165593 217.955432 323.575209 218.935048 328.137179 218.561228 328.870643 220.643096 330.500235 222.07632 334.376061 221.788198 333.697311 219.530501 331.871044 217.837228 331.600431 216.612339 331.600431 216.612339 332.172711 213.998553 334.22227 212.835721 335.962768 209 338.470743 210.142146"></polygon>
            </g>
        </g>
    </g>
</svg>