<?xml version="1.0" encoding="UTF-8"?>
<svg width="248px" height="239px" viewBox="0 0 248 239" version="1.1" xmlns="http://www.w3.org/2000/svg" xmlns:xlink="http://www.w3.org/1999/xlink">
    <!-- Generator: Sketch 52.5 (67469) - http://www.bohemiancoding.com/sketch -->
    <title>IN-UP</title>
    <desc>Created with Sketch.</desc>
    <defs>
        <filter x="-2.5%" y="-2.2%" width="105.1%" height="104.5%" filterUnits="objectBoundingBox" id="filter-1">
            <feOffset dx="4" dy="4" in="SourceAlpha" result="shadowOffsetOuter1"></feOffset>
            <feGaussianBlur stdDeviation="4" in="shadowOffsetOuter1" result="shadowBlurOuter1"></feGaussianBlur>
            <feColorMatrix values="0 0 0 0 0   0 0 0 0 0   0 0 0 0 0  0 0 0 0.5 0" type="matrix" in="shadowBlurOuter1" result="shadowMatrixOuter1"></feColorMatrix>
            <feMerge>
                <feMergeNode in="shadowMatrixOuter1"></feMergeNode>
                <feMergeNode in="SourceGraphic"></feMergeNode>
            </feMerge>
        </filter>
    </defs>
    <g id="views" stroke="none" stroke-width="1" fill="none" fill-rule="evenodd" opacity="0.2">
        <g id="Overall-2" transform="translate(-797.000000, -274.000000)" fill="#FFFFFF">
            <g id="india" filter="url(#filter-1)" transform="translate(524.000000, 29.000000)">
                <polygon id="IN-UP" points="290.890856 247.227415 293.107599 247 295.492457 249.570967 302.365846 252.840423 299.470691 257.633852 298.677722 258.438664 297.84756 258.070961 296.948961 259.909476 297.407187 260.689183 296.093506 262.068439 296.556196 262.772834 295.706692 263.932058 296.184259 264.694045 295.218711 266.173717 297.170635 269.233478 296.953424 271.696645 298.112379 272.244508 298.037991 272.901648 299.173142 273.347617 300.571624 272.191346 303.00409 272.070255 303.777718 275.302793 302.999626 275.23191 302.858291 276.138616 303.993441 276.222789 304.127338 277.715751 305.647816 277.476523 305.868002 276.045582 307.055224 275.735471 308.831593 273.108389 310.526137 271.904863 311.70592 272.116034 314.831676 268.853962 317.348943 269.695691 319.684705 270.795847 320.922511 274.938043 323.349025 277.151645 328.963781 280.183348 333.244028 280.88479 331.600068 283.138263 330.31168 283.991806 329.694265 283.472001 329.066436 285.363678 328.087498 284.640086 326.732161 285.784543 329.410105 287.881484 331.052578 287.760393 332.501643 289.829276 332.541812 291.660407 333.910539 291.695848 334.469932 291.090393 336.173402 292.813724 336.482853 290.896943 339.717214 292.409103 339.909133 294.522288 340.794343 295.157277 340.572669 296.155539 341.99793 295.936985 344.952595 298.609846 346.602506 298.633473 346.845008 297.998484 347.38506 299.173952 348.145299 299.342298 348.450287 302.025496 351.440658 301.764117 352.349671 300.736321 352.800458 302.375479 354.750894 301.57362 356.390391 302.289829 357.823091 301.154232 359.763113 300.762902 360.826852 301.780361 360.039834 303.796082 361.052989 303.555377 361.320784 302.413873 362.241699 302.431594 362.912672 303.342729 361.820666 303.682375 363.711592 303.911266 363.327754 304.48571 364.369176 306.347852 365.785511 306.945923 367.210773 306.183936 368.046886 304.578743 367.585685 303.991009 369.040701 302.942539 369.040701 302.942539 370.518033 302.97798 373.567914 305.554854 374.643555 305.466251 374.819109 306.46599 376.705572 307.489356 378.026691 309.701481 380.889115 309.989441 382.960059 312.688883 383.354312 311.929849 382.519686 308.713556 384.551948 307.922034 385.886456 309.626168 387.633071 309.534611 388.336775 311.452869 390.755851 312.205996 391.413435 313.650227 393.796805 314.86852 394.119646 314.159695 395.137265 314.58499 395.317283 315.62903 397.336155 316.797115 398.526352 316.193137 399.070867 317.53252 400.470837 318.527829 404.545775 319.376942 405.234602 321.879981 407.972056 325.081507 407.989909 326.073862 407.393322 326.135884 408.198193 326.790071 407.888742 327.305446 409.550555 326.998288 409.669575 325.788855 411.81193 326.302753 413.060149 327.838541 412.886083 329.078985 417.42371 331.903948 419.856176 332.423753 425.549783 336.926269 426.83222 336.839142 428.142925 334.433567 431.243389 334.622587 432.973638 336.658983 435.62034 337.419493 443.111144 343.129964 451.183658 341.634048 451.302677 343.605468 452.677355 346.324107 452.02721 349.221429 458.08829 349.298219 458.852992 350.444153 461.341992 351.104246 466.141463 350.922609 469.773052 355.174083 471.467596 354.766509 473.038656 352.359457 472.265028 351.576796 472.799129 350.801519 472.392974 350.039532 479.424065 350.388037 486.955038 354.490362 486.955038 354.490362 486.034123 355.46795 486.834531 355.866664 488.767114 355.37787 489.04681 356.110323 488.183917 357.657924 489.943921 358.502607 490.699697 359.698749 489.473794 363.41122 492.005938 363.325571 491.073121 364.254427 492.63228 365.079913 492.813785 367.93441 492.13686 368.598934 492.846515 368.97402 492.9819 370.357706 494.166146 370.858313 494.494938 370.043165 495.747621 370.499471 495.461974 371.59815 496.622416 372.327649 497.878074 371.070961 498.870401 371.366305 499.218534 373.21811 498.357129 374.99608 498.648727 375.600058 499.065296 375.952993 500.643795 375.127507 501.503713 377.502071 503.888571 377.950994 504.267946 379.466107 499.838925 380.423021 493.908766 378.927105 493.931083 380.415638 492.849491 382.344232 490.556873 382.74147 490.195351 383.543328 488.316327 383.216973 488.319302 385.547235 490.799376 386.084761 491.702438 385.609258 493.605266 387.805138 496.698291 388.165458 497.019645 390.119157 496.323379 392.558696 494.880265 392.009357 493.832891 393.404856 491.720291 392.737379 491.927088 396.011265 492.88966 397.567727 494.197389 397.675527 496.570345 400.107683 496.537615 401.269861 497.645986 400.95975 500.590237 402.792358 502.304121 402.370016 504.077515 403.32693 504.544667 404.657454 507.825149 405.159538 507.773077 406.642164 508.692505 406.534363 510.677159 408.016989 510.064207 409.158492 511 410.261601 508.665725 409.985455 508.561583 411.772285 507.911438 411.472511 508.051286 410.323624 507.69869 411.761948 506.570978 411.983456 505.337636 410.734151 503.876669 411.245096 503.195281 409.566067 501.679267 409.706355 501.283527 412.185766 500.193008 412.00856 500.255494 412.540179 497.680204 412.264032 497.41241 411.112191 495.976734 410.171522 494.301531 410.533318 493.530879 411.378001 493.743626 413.359757 488.777528 416.053293 486.725925 418.941755 485.450927 419.207564 486.327209 420.195489 484.956995 420.375649 485.113208 421.07709 483.945327 421.862704 483.028875 421.09038 482.142178 421.921773 481.849092 421.583605 481.246554 422.186106 481.675025 422.428288 480.468463 422.540518 479.601107 423.848891 477.787543 424.575437 477.018378 424.253512 474.553182 426.486311 472.964269 426.577868 472.308172 428.013238 471.106073 428.287908 470.661237 428.884502 471.347088 430.826388 470.125648 434.454686 470.926056 434.68653 471.241458 439.428275 472.375121 440.699729 472.26354 442.355131 474.33002 444.078462 475.161671 443.92636 475.189938 445.010272 476.216483 445.843141 475.712137 446.839926 477.077888 447.70233 475.732965 451.054482 475.732965 451.054482 472.458435 451.927223 472.096912 453.465964 472.678621 455.05196 473.605488 455.215875 474.274974 456.534585 471.924334 458.226905 472.733668 459.866063 470.293763 465.414095 470.293763 465.414095 469.21961 466.371009 468.814943 468.042655 466.946333 469.182682 466.120634 471.47898 462.916028 472.923211 458.311452 473 454.230563 470.068713 454.230563 470.068713 453.904746 468.65254 452.181936 468.106154 452.937711 466.20414 451.13605 466.106677 449.547136 464.287359 449.966681 463.489931 451.509474 464.145594 451.714783 461.305864 452.428902 460.871708 452.87225 458.972648 452.760669 456.254009 451.097368 455.844958 452.01382 451.974478 451.362187 451.516695 451.265484 450.068034 452.308394 450.565688 454.013352 450.187648 453.874991 448.595745 452.745792 448.594268 452.829105 447.043713 450.723944 447.090968 450.747748 446.027731 449.564989 445.191908 445.557 446.831066 445.220769 445.937651 443.053122 445.952418 442.538362 444.994028 441.581741 445.753061 441.816805 448.662197 439.34417 447.785026 438.22836 448.124672 438.305722 446.221181 437.276202 445.665935 436.954848 446.351132 436.234779 446.231518 436.661762 442.641615 436.496622 443.365207 435.955083 442.936958 436.013105 443.455287 435.287084 443.44495 435.731921 444.236471 434.45841 443.867291 434.971682 442.420107 435.598024 442.448165 434.648841 441.664027 435.176991 440.990643 434.038865 442.083415 432.568971 442.083415 429.226005 440.103135 427.802231 440.783902 425.84882 438.685485 426.335313 437.384496 425.912793 434.716065 425.527466 435.286078 423.760023 434.38528 422.508828 434.698344 420.739898 433.389971 419.167349 433.556841 418.444304 432.337071 416.752737 432.98092 416.423944 432.334117 417.611166 431.538166 417.138063 430.879549 416.654545 431.641536 416.371873 430.412906 417.207987 429.622862 416.049032 429.330471 415.569978 428.397185 413.799559 428.692529 414.269687 430.166294 413.359186 429.87095 412.65697 430.387802 413.738562 431.417075 412.994688 432.49951 410.414936 431.384587 411.581329 431.294507 411.328412 430.507416 410.114411 430.863305 408.205632 429.18723 407.677482 429.489957 407.729553 431.09515 407.472173 429.407261 406.31173 429.348192 405.582735 431.4599 406.078154 432.719541 404.21252 435.187138 404.551726 437.261928 403.673956 437.442088 404.127718 437.254545 402.958349 436.449733 402.055287 438.701729 400.31016 436.660904 398.227315 436.591498 398.453453 437.332811 396.535747 437.561702 395.962965 435.975706 394.732598 436.510278 394.732598 436.510278 394.902201 437.071431 394.342808 436.776088 394.342808 436.776088 392.788113 437.261928 391.769007 436.926713 391.389631 435.999334 393.201707 435.104442 392.532221 433.711896 393.902435 432.630938 393.725394 430.845585 394.96915 429.600711 394.131548 428.401615 392.831258 428.500555 392.564951 431.298938 391.688668 430.071784 388.574815 430.387802 389.37671 430.872166 389.373735 431.718326 390.953722 432.182015 390.952234 432.948432 389.434732 432.604357 387.763993 433.203905 387.942522 432.266188 387.226916 432.515754 385.51452 431.498295 386.481555 430.857399 385.304747 429.77201 385.684123 432.592543 384.303494 431.939834 383.709883 432.746122 382.653583 431.613479 381.615136 431.572131 382.357521 432.003332 382.177504 433.505155 381.430655 433.52583 380.511228 432.257328 378.178441 433.082814 378.688738 434.711635 377.962718 434.157865 376.64755 434.934619 375.100293 434.0161 377.727654 430.124946 379.983078 429.131114 379.213913 426.791992 378.559304 426.978058 376.256272 425.2311 376.464557 421.883378 374.755136 420.473112 374.423368 421.283831 372.825528 420.899884 372.638072 422.007423 370.626639 423.546164 369.381395 422.954 367.432447 423.385201 366.685598 425.919251 364.998493 425.808497 364.090968 427.11687 363.747298 426.317965 362.025975 426.886502 362.802579 429.940356 362.042341 430.5148 362.299721 431.699128 358.864514 430.158911 354.262913 430.581252 354.416151 429.789731 354.008509 430.04225 353.255709 429.014454 350.899118 432.233701 349.985642 431.772964 350.229632 430.479359 349.067702 431.393448 348.572282 430.32135 348.073887 431.191137 347.597808 429.262542 348.399704 427.954169 349.430712 427.825695 348.942731 427.4004 349.943985 425.891193 350.915483 425.861659 349.88745 425.400923 348.576746 426.239699 347.086023 425.04651 346.635236 426.030005 345.944922 425.05537 346.416537 423.729277 344.821673 423.485618 343.744544 424.504554 343.722228 425.824741 344.604462 425.183845 345.29924 426.148142 346.235032 425.778963 345.892851 427.236484 346.449268 427.768103 346.001456 428.224409 344.164089 426.617739 344.326253 428.34107 345.439088 429.887194 345.086492 430.517753 343.743057 430.898747 343.714789 429.839939 342.988769 429.57856 342.304406 430.006809 343.226809 430.263758 343.06762 431.092197 342.070829 431.1808 341.399856 429.912299 340.837487 430.210596 341.227277 431.047895 339.666631 431.282694 339.001608 430.164818 339.392885 429.469283 338.268149 428.504986 336.984224 430.352361 336.320689 430.182538 336.408466 428.708773 337.400793 427.378249 336.020164 426.613309 335.798489 425.635721 334.745165 426.725539 335.477136 427.105056 335.512842 428.389801 334.034022 427.565792 331.65214 429.407261 331.77711 426.35636 332.269554 426.707819 332.796217 425.724324 333.794495 426.121561 334.709459 425.356621 334.17387 423.15631 333.38834 423.775055 331.796451 423.3409 330.714859 427.261588 329.590123 425.840985 329.777579 424.858967 328.892369 424.934279 329.163139 424.349499 330.768418 423.752904 330.589888 423.079521 331.742892 421.871565 334.065265 421.444793 333.498433 422.228931 332.293358 422.290953 333.42107 423.091334 334.974278 422.267325 334.401495 420.12756 333.435948 420.486402 332.629589 419.854367 333.639769 418.726154 333.038719 417.339515 333.833176 416.985102 333.486531 416.011944 333.053597 416.63955 332.851263 416.025235 331.729502 416.104978 331.781573 417.218424 330.296802 417.705741 331.195401 419.164739 330.482771 420.346114 329.846015 419.875041 330.838342 419.600371 330.34441 419.214948 328.060719 418.859058 327.290066 418.023235 327.068392 419.296167 328.014599 420.298859 329.81626 420.41552 327.642662 421.018021 328.30471 422.866873 326.724723 423.051463 326.580411 422.174292 324.988522 421.859751 324.945378 420.766979 325.338143 421.319272 326.343859 420.468682 325.857366 419.824832 324.827846 419.953307 324.076533 421.230669 323.293979 420.870349 322.822363 421.719463 321.974347 421.596895 322.444475 423.086904 320.854074 422.710341 321.362884 423.949308 320.852586 424.630075 320.078958 424.712772 319.827529 424.042341 319.044974 425.090812 318.220763 424.711295 317.808657 425.238484 318.640307 425.852799 319.968865 425.061277 322.207924 426.260373 323.097596 431.721279 324.491615 432.955816 323.872712 436.232655 324.8576 436.93262 325.315826 438.351747 328.307685 439.741339 328.809056 441.312568 328.31066 441.990382 328.554651 445.06491 327.547446 446.55935 327.840533 448.420015 328.694499 448.821683 331.960103 447.246024 334.59639 452.068988 333.486531 452.489852 332.959869 451.939036 332.796217 453.0894 335.157271 453.948851 334.611268 456.909672 332.770925 458.677304 331.870838 461.313247 329.835601 461.744449 329.155701 462.757478 328.176763 460.118582 327.728952 460.766861 327.303456 460.276591 326.265009 460.9293 325.338143 460.571935 322.514399 456.794488 320.238147 455.549614 318.039258 458.796918 316.322398 459.542661 314.651658 457.718914 315.740689 455.824284 312.811316 453.745063 312.896117 452.771906 311.34291 451.197724 312.562862 450.001581 312.860411 446.318645 311.36225 443.602959 311.008167 441.377543 309.600758 439.886057 309.649854 439.050235 314.699266 435.057187 314.706705 432.029913 316.811867 430.612263 318.293662 430.671332 317.527473 429.832556 318.403755 429.30389 316.500927 428.416382 316.887742 427.648489 315.541331 426.687145 315.248245 424.922466 314.092266 424.47945 314.816798 423.605233 313.702476 422.308673 314.785556 421.416735 315.32412 419.584127 316.252474 419.804158 317.60186 418.80885 317.226948 416.926033 317.869654 415.870179 318.676013 416.276277 319.643048 415.244051 322.599201 415.855412 323.454655 415.010729 324.699899 415.809634 325.585109 414.83943 329.576733 413.801296 329.767164 412.09864 327.757219 409.552776 330.052812 407.835352 330.107858 407.294873 329.378863 407.19298 329.765677 406.785405 331.342688 407.842736 330.866609 405.747272 331.989858 405.413534 331.793475 403.862979 333.449337 402.711138 333.909051 399.714876 335.741955 398.180565 333.85698 396.216529 335.664592 395.674573 334.938572 394.286457 336.107941 394.218528 336.279032 392.95741 337.420133 393.004665 336.796767 391.835104 337.737023 391.127756 338.245833 391.649038 338.565698 390.29341 339.586292 390.153121 339.245598 389.498935 339.809454 389.160766 338.034573 388.552358 338.346999 386.660681 339.294694 386.684309 339.590756 385.734779 337.152339 385.347878 337.540641 383.724964 336.283495 382.063656 335.579791 382.087283 335.372994 381.009278 335.008496 381.292809 335.819318 380.040551 335.431016 377.491734 333.709693 378.244861 334.028071 377.072346 332.651905 376.500856 331.436416 376.80063 329.77014 374.706643 328.367195 374.73913 327.578689 373.774833 327.014833 374.229662 326.778281 373.5105 325.024228 374.576691 322.121634 374.975405 318.537653 373.584336 317.762537 372.404438 316.6378 372.65991 315.441652 370.9543 313.284419 371.310189 312.62386 372.795768 311.033458 372.274487 311.033458 372.274487 310.45175 370.464029 311.555658 370.669293 312.665517 369.260504 311.22389 368.210557 310.892123 368.730362 307.967213 368.235661 307.659249 369.899923 305.814443 369.539604 305.98851 370.939533 305.185126 371.420943 304.70756 369.704996 302.691663 370.078606 301.382446 369.225062 301.077458 370.434495 296.819527 368.770233 295.745374 369.505639 295.64867 370.715072 292.18222 372.388194 289.571225 372.758851 288.864545 371.865436 288.334908 373.937272 288.720234 374.654957 287.317289 375.351969 287.815684 374.566354 286.704337 374.547157 287.034617 372.857791 286.512418 371.208296 293.565825 367.525359 296.288401 367.029182 296.87011 365.835993 295.980438 365.533265 295.851004 366.609793 295.267807 366.61127 294.326063 364.842161 292.894851 366.087035 290.715302 365.348676 290.972682 363.928072 289.593541 364.301682 288.877935 363.335908 291.755237 362.37161 292.201561 360.803335 293.742867 360.5582 294.315649 359.701703 293.272739 359.116922 293.418538 358.369702 291.782017 356.235844 292.481258 354.753218 291.249403 355.330615 288.842229 353.438938 286.806992 352.82167 286.28628 351.913488 286.734092 350.64351 285.701596 350.097124 285.265686 348.754786 283.792817 348.286666 283.64553 346.861633 284.259969 346.087832 283.047456 345.45432 284.017467 344.020426 283.837449 342.520079 282.624936 341.738895 282.827269 339.330367 281.945036 338.685041 281.945036 338.685041 283.923739 336.842096 286.198503 336.859816 286.195528 335.569164 287.634179 335.947204 287.954044 334.290326 289.525105 334.327244 290.090449 333.424968 289.257311 333.061695 290.024988 332.186001 288.276885 330.416892 287.958508 328.957894 288.250106 328.192954 288.688991 328.539982 288.81545 326.382496 290.246662 325.623463 288.68304 325.502372 288.589312 324.564655 289.522129 324.920545 289.413524 323.944434 290.210956 323.316828 287.909412 322.548934 288.702381 322.167941 288.797597 321.246468 287.799319 320.164033 288.748501 319.455208 288.13555 317.525137 283.873155 314.184799 283.873155 314.184799 282.505916 312.163171 283.825547 310.687929 283.047456 309.435671 283.429807 306.937063 282.229195 307.056677 280.353147 304.420734 279.488766 304.151971 280.124034 302.747612 279.176339 301.640073 279.176339 301.640073 279.01715 300.832307 280.244541 300.330223 279.277506 298.519766 280.025842 296.750657 277.155979 293.239019 277.715372 290.552868 277.255658 289.045138 277.84183 288.393905 277.388068 287.354295 278.149794 285.143647 277.093494 284.640086 276.99679 283.692032 277.92812 283.229819 277.274999 282.492937 277.697519 281.380967 276 278.14843 276.772141 277.463232 276.022316 275.772389 277.819514 272.049581 277.001254 269.75033 278.102186 268.955855 278.968055 264.952471 281.550783 261.547157 281.77692 259.905046 286.262476 257.816965 285.750692 257.403484 286.546636 255.634375 288.09538 254.918166 289.761657 251.582258 291.118482 250.551509 291.793919 248.42651 291.259818 247.94067 291.259818 247.94067"></polygon>
            </g>
        </g>
    </g>
</svg>