<?xml version="1.0" encoding="UTF-8"?>
<svg width="139px" height="204px" viewBox="0 0 139 204" version="1.1" xmlns="http://www.w3.org/2000/svg" xmlns:xlink="http://www.w3.org/1999/xlink">
    <!-- Generator: Sketch 52.5 (67469) - http://www.bohemiancoding.com/sketch -->
    <title>IN-WB</title>
    <desc>Created with Sketch.</desc>
    <defs>
        <filter x="-2.5%" y="-2.2%" width="105.1%" height="104.5%" filterUnits="objectBoundingBox" id="filter-1">
            <feOffset dx="4" dy="4" in="SourceAlpha" result="shadowOffsetOuter1"></feOffset>
            <feGaussianBlur stdDeviation="4" in="shadowOffsetOuter1" result="shadowBlurOuter1"></feGaussianBlur>
            <feColorMatrix values="0 0 0 0 0   0 0 0 0 0   0 0 0 0 0  0 0 0 0.5 0" type="matrix" in="shadowBlurOuter1" result="shadowMatrixOuter1"></feColorMatrix>
            <feMerge>
                <feMergeNode in="shadowMatrixOuter1"></feMergeNode>
                <feMergeNode in="SourceGraphic"></feMergeNode>
            </feMerge>
        </filter>
    </defs>
    <g id="views" stroke="none" stroke-width="1" fill="none" fill-rule="evenodd" opacity="0.2">
        <g id="Overall-2" transform="translate(-1067.000000, -386.000000)" fill="#FFFFFF">
            <g id="india" filter="url(#filter-1)" transform="translate(524.000000, 29.000000)">
                <path d="M628.420935,549.095027 L629.290588,549.921797 L629.443882,551 L627.928624,550.585875 L628.420935,549.095027 Z M638.821388,548.848031 L640.94393,550.5489 L639.069018,550.612498 L638.821388,548.848031 Z M635.389946,548.207617 L636.259599,549.021076 L635.768761,550.026807 L634.884369,549.279904 L635.389946,548.207617 Z M629.639923,547.808282 L631.192031,549.022555 L630.034951,550.290072 L628.79975,549.012202 L629.24342,547.323165 L629.639923,547.808282 Z M636.881621,547.329081 L637.687892,549.362729 L636.265495,549.859678 L636.726853,549.043261 L635.966275,548.164725 L636.881621,547.329081 Z M642.863061,547.712146 L643.451182,548.379183 L642.559419,548.504899 L642.43413,546.848401 L642.863061,547.712146 Z M631.363014,546.502311 L631.345326,548.48863 L630.146974,547.746164 L631.363014,546.502311 Z M643.442338,545.5868 L643.636904,546.963764 L644.30462,547.518395 L644.808724,548.927898 L643.919909,549.031429 L643.915487,548.164725 L643.084159,547.401553 L642.403177,545.750971 L643.442338,545.5868 Z M637.898672,545.878166 L637.655464,547.258088 L636.452691,546.543723 L637.898672,545.878166 Z M622.662068,545.566094 L623.7425,546.153263 L624.112471,547.513958 L622.791779,548.81993 L622.662068,545.566094 Z M627.073711,545.46552 L627.586659,546.66944 L626.876197,548.226844 L626.436949,546.525975 L627.073711,545.46552 Z M619.373603,545.07506 L619.746521,545.758366 L619.389817,546.364762 L619.873284,546.89425 L619.966145,547.679608 L619.605019,549.031429 L618.658719,546.188759 L619.373603,545.07506 Z M645.747653,545.052875 L646.85167,547.630801 L645.511815,548.506378 L643.888956,546.434276 L644.222077,545.614901 L645.747653,545.052875 Z M630.003997,545.208172 L630.826482,545.026253 L631.289314,546.071917 L629.865443,547.494731 L629.070964,545.663709 L630.003997,545.208172 Z M640.311589,544.276391 L642.077426,545.93289 L641.477513,548.019782 L640.002052,545.959512 L640.311589,544.276391 Z M625.78692,544.739323 L626.288076,545.709558 L625.751545,547.144204 L626.394203,548.180995 L625.36536,549.234054 L624.781661,546.410612 L625.517181,545.222962 L624.744812,544.723054 L625.253337,543.952487 L625.78692,544.739323 Z M619.776001,544.122573 L621.301578,544.376964 L622.336317,546.688667 L621.900017,548.958957 L622.508773,549.739878 L621.633225,550.439453 L620.582272,550.143649 L619.776001,544.122573 Z M641.876963,543.844518 L643.076789,545.175633 L641.747252,544.907931 L641.876963,543.844518 Z M624.525187,543.891847 L624.335043,545.039564 L624.908424,545.674062 L624.190592,546.227214 L623.857471,544.146238 L624.525187,543.891847 Z M644.337048,543.823812 L645.495602,544.720096 L644.735024,545.128305 L644.337048,543.823812 Z M638.824336,543.868183 L639.76474,543.834165 L638.958469,545.545387 L639.593757,547.867443 L639.114712,548.192827 L638.025435,547.802366 L638.214105,545.443335 L636.971534,545.66223 L637.627459,544.282307 L638.824336,543.868183 Z M631.029892,543.198188 L632.192868,544.792568 L631.800788,545.90183 L630.848592,543.952487 L631.029892,543.198188 Z M643.266933,543.036975 L644.394533,544.925679 L644.052568,545.243668 L642.392859,543.498429 L643.266933,543.036975 Z M631.877435,542.784064 L632.169284,544.17286 L631.626857,543.709928 L631.315846,543 L631.877435,542.784064 Z M627.517381,542.828434 L627.480532,544.542614 L626.466428,545.183028 L626.599087,543.522093 L627.517381,542.828434 Z M635.161478,542.216121 L636.491015,543.813459 L636.289078,544.72897 L636.713587,544.928637 L636.598616,546.017194 L635.557981,546.231651 L636.143154,547.156036 L634.262346,546.50379 L634.507028,544.322241 L635.161478,542.216121 Z M629.866917,542.119985 L630.720355,542.866889 L630.729199,544.598817 L629.093073,545.141616 L628.621398,543.428915 L629.866917,542.119985 Z M626.07877,542.093363 L626.724376,542.464596 L626.083192,544.424293 L625.329984,542.989647 L626.07877,542.093363 Z M643.906644,542.074136 L644.428435,542.063783 L644.627423,543.619708 L643.617742,542.78998 L643.906644,542.074136 Z M638.61503,542.327048 L638.682833,543.566463 L637.46532,544.118136 L638.417516,541.701424 L638.61503,542.327048 Z M642.111327,540.893881 L643.19913,541.779811 L642.829159,542.852098 L641.309478,543.452579 L640.917398,542.11259 L642.111327,540.893881 Z M631.337956,540.802182 L631.793418,541.457386 L631.674025,542.491218 L630.839748,541.895175 L631.337956,540.802182 Z M623.326836,540.979664 L624.018136,542.667221 L624.787557,542.883158 L624.694696,543.538362 L623.643743,543.800148 L623.404957,544.983361 L622.267039,544.700869 L621.680392,542.41283 L623.326836,540.979664 Z M639.48026,540.297837 L640.130289,540.747458 L641.194507,544.561841 L639.099972,542.828434 L639.48026,540.297837 Z M617.289385,539.973932 L618.386031,542.063783 L618.33002,544.371048 L617.488373,546.453503 L617.837708,547.431133 L616.431524,548.231281 L614.350255,547.459235 L614.19696,546.604363 L615.311294,543.1198 L617.289385,539.973932 Z M637.46532,540.657238 L638.525117,539.478462 L639.077862,540.078943 L637.522806,542.306341 L637.281072,541.117212 L637.46532,540.657238 Z M643.272829,539.360141 L644.811672,540.27861 L644.418117,541.649658 L642.571211,540.992975 L643.272829,539.360141 Z M632.245932,539.219634 L633.227607,540.207617 L632.778041,542.967462 L631.592956,540.348123 L632.245932,539.219634 Z M630.41524,539.228508 L630.811742,539.864485 L630.18972,541.637826 L629.682668,540.886485 L630.41524,539.228508 Z M626.840821,538.982991 L627.938942,539.550934 L628.188045,540.592161 L626.889463,541.955814 L625.508337,541.907007 L626.158365,539.342392 L626.840821,538.982991 Z M635.13642,539.154557 L636.153472,539.274358 L637.148413,540.490109 L636.445321,543.087262 L634.558618,541.200037 L635.13642,539.154557 Z M632.811943,538.426881 L633.659485,538.75966 L633.040411,539.553892 L632.811943,538.426881 Z M638.8774,538.551119 L641.302108,538.209466 L642.896962,539.108708 L642.48572,539.824552 L640.966039,541.025513 L638.8774,538.551119 Z M635.39142,538.085228 L637.732112,538.490479 L637.998903,539.660381 L637.432892,540.314106 L636.844771,539.108708 L635.246969,538.839527 L635.39142,538.085228 Z M636.063558,536.498244 L636.227171,537.325014 L637.18821,537.515807 L637.491852,537.949159 L635.967749,537.839712 L635.394368,536.697911 L636.063558,536.498244 Z M633.429543,535.187835 L635.149686,535.804585 L633.989659,537.722869 L632.462608,537.218525 L633.429543,535.187835 Z M617.426466,534.949713 L615.763808,538.058606 L614.519763,538.75966 L615.326034,535.983546 L617.426466,534.949713 Z M638.143354,535.18044 L640.911502,535.437789 L640.734623,537.907746 L639.469942,538.207987 L636.476275,536.867998 L636.900783,535.420041 L638.143354,535.18044 Z M645.19196,534.216121 L646.32693,536.260122 L645.872942,538.000924 L644.928117,538.278979 L643.290517,535.13607 L643.461499,533.995748 L645.19196,534.216121 Z M639.926878,533.204474 L640.435404,534.717508 L637.649568,534.301904 L639.926878,533.204474 Z M639.030694,532.386578 L639.444885,532.917545 L637.48743,533.472176 L637.176419,534.219079 L636.440899,534.003143 L637.24717,532.274173 L638.362978,531.854132 L639.030694,532.386578 Z M639.492052,529.474395 L641.319796,532.828804 L639.978468,532.911629 L638.696099,531.607136 L639.999104,531.092439 L638.962891,529.313182 L639.492052,529.474395 Z M642.543206,529.749492 L643.44676,530.882418 L642.829159,532.778517 L641.592484,533.680717 L641.570374,535.020706 L642.255778,535.825291 L641.907917,533.995748 L642.798205,533.933629 L643.070893,536.230542 L644.578782,538.425402 L644.307568,539.077648 L641.952137,537.944722 L641.225461,536.010168 L640.8776,533.655574 L641.781154,532.565539 L640.64471,530.18728 L641.440663,530.471252 L642.543206,529.749492 Z M643.980343,529.208172 L645.477914,531.487336 L645.081411,533.655574 L642.92202,533.421889 L643.825574,531.241819 L643.076789,529.398965 L643.980343,529.208172 Z M634.471652,529.220004 L637.415204,530.196155 L634.147375,533.123128 L635.774657,534.794417 L635.488703,535.523572 L633.473763,534.81956 L632.63359,532.297837 L634.471652,529.220004 Z M639.349076,530.848401 L637.0585,532.130708 L635.870466,533.933629 L635.367836,533.88778 L634.75171,533.207432 L638.131562,530.051211 L638.777169,529.912183 L639.349076,530.848401 Z M642.299998,528.341468 L642.734824,529.273248 L641.804738,529.944722 L641.586588,529.335367 L641.649969,528.622481 L642.299998,528.341468 Z M638.137458,526.408393 L638.541331,527.803106 L637.701158,528.317804 L638.432256,529.613422 L637.441736,529.821963 L636.166737,528.9242 L636.296448,528.137364 L638.137458,526.408393 Z M639.020376,524.334812 L640.573959,524.422074 L641.176819,525.662969 L641.974246,525.884822 L642.20861,527.884452 L640.942456,528.410982 L641.274103,530.005361 L638.135984,528.39915 L638.82581,528.017563 L638.364452,525.061009 L639.020376,524.334812 Z M643.448234,523.111666 L643.414332,525.012202 L644.639215,525.938066 L643.731239,526.318173 L645.984965,529.237752 L646.038029,530.932705 L646.888519,530.678314 L645.828723,531.564245 L644.527192,528.998151 L643.070893,528.859124 L642.52994,527.258828 L643.059101,522.505269 L643.448234,523.111666 Z M640.641762,518.014975 L640.597543,520.351821 L641.502571,522.480126 L640.464884,523.247735 L639.69841,519.008874 L640.641762,518.014975 Z M641.890229,517.216306 L642.684708,517.575707 L643.877164,521.517286 L642.669968,522.17249 L642.129015,525.5269 L641.060375,524.664633 L641.057427,523.281753 L641.863697,522.633943 L641.011733,520.27787 L641.057427,517.528379 L641.890229,517.216306 Z M613.588203,359 L615.37615,359.624145 L615.713693,361.678499 L617.280541,362.530412 L619.100915,361.860418 L620.238833,362.429839 L622.458658,362.123683 L623.055622,362.943058 L626.392729,363.747643 L629.415877,361.376779 L629.132871,360.406545 L630.313535,360.039749 L632.166336,360.070808 L633.320468,360.952302 L634.182751,360.335552 L635.4209,361.779072 L636.258125,361.443335 L639.907717,362.809946 L640.062485,368.243853 L641.421501,366.701239 L642.491616,367.668515 L642.065634,368.560362 L642.761356,369.191902 L644.690805,368.634313 L645.355573,369.898872 L646.708693,370.23313 L647.06982,372.223886 L647.96453,373.198558 L651.807214,372.89536 L655.558511,371.188575 L655.985968,372.064152 L657.782758,372.309669 L658.092295,373.262156 L661.165558,372.942688 L663.106799,374.275282 L663.814313,374.136254 L664.115006,374.736735 L662.848851,375.958403 L663.428128,376.264559 L664.244717,376.291181 L664.711971,375.535404 L666.334831,376.15807 L667.267865,375.669994 L667.816188,376.941949 L668.828817,376.409503 L670.364712,376.797005 L670.96315,378.667961 L670.36766,379.567203 L671,380.916066 L670.520954,381.13496 L670.233527,384.236458 L670.787746,385.196339 L669.45084,387.37641 L670.0537,387.160473 L670.376503,387.789055 L668.0535,388.861342 L668.018124,389.630431 L667.082142,389.954335 L667.33272,391.059161 L666.073935,390.497134 L666.679744,391.686264 L666.300929,392.121094 L665.671537,391.726197 L666.410004,392.813274 L665.438647,393.533555 L666.511709,393.703642 L665.364947,394.500832 L666.578039,394.98447 L666.103415,395.292106 L665.500554,395.212239 L664.795988,394.080791 L664.700179,393.486227 L663.599111,393.178591 L664.309573,394.965243 L663.041944,394.882418 L662.856221,395.728416 L662.27547,395.602699 L663.457608,396.91015 L662.335904,397.5269 L662.840008,397.954335 L663.44729,397.318358 L664.064891,398.806249 L661.86865,400.155112 L661.834748,402.074875 L660.698304,401.995008 L660.661455,400.799963 L657.457007,400.690516 L657.179897,399.42152 L656.218858,400.748197 L654.800882,400.62396 L652.660653,399.303198 L652.724034,398.723424 L651.997359,398.792938 L652.326058,397.84193 L651.028949,396.778517 L648.937361,396.226844 L648.263749,394.808467 L648.458316,392.910889 L647.271756,391.298761 L648.383142,389.978 L646.738173,389.941024 L647.234906,389.353855 L646.605514,388.420595 L646.813346,387.281753 L645.193434,387.326123 L642.827685,385.083934 L642.428235,386.252357 L641.882859,386.00684 L641.188611,386.841006 L641.455403,388.288963 L642.804101,388.430948 L642.9515,388.827325 L643.661962,388.898318 L644.163117,389.70734 L643.676702,390.528194 L644.956122,391.187835 L645.937798,390.899427 L646.079301,392.226105 L643.014881,392.697911 L641.916761,391.093178 L640.481098,390.980773 L639.860549,391.46589 L640.38234,392.791089 L639.200203,392.947865 L638.349712,392.075245 L638.423412,390.665742 L637.723268,390.236828 L636.57061,390.6687 L636.188847,388.859863 L634.806247,389.507672 L634.109051,387.929562 L634.753184,387.650028 L632.343215,386.034942 L632.225296,384.808837 L631.438187,384.783694 L631.494198,385.554261 L630.263419,385.298392 L630.384286,384.195045 L629.321541,384.442041 L628.068652,382.392124 L626.506226,382.20281 L625.887152,379.19597 L624.719754,380.59364 L623.407905,384.584027 L624.052038,385.678499 L624.413164,384.260122 L627.981687,385.153448 L629.264056,388.635053 L628.098132,389.00037 L627.200474,388.15733 L626.590243,389.418931 L625.629204,389.6467 L625.912209,390.143649 L623.923801,391.325384 L623.948859,393.440377 L620.779786,394.493437 L618.639557,395.988722 L618.039644,398.310778 L618.789904,398.566648 L618.414037,399.860788 L618.845915,400.159549 L617.516379,400.57959 L615.750542,403.981327 L616.416785,404.765206 L616.687998,407.945092 L617.755165,408.727491 L618.822331,407.87262 L619.510683,408.328157 L621.403283,407.551673 L621.459294,408.515992 L624.755129,410.8203 L625.638048,412.297837 L627.168046,412.599556 L626.849665,414.769273 L628.503479,415.304677 L628.397352,416.107783 L630.9105,417.891477 L631.878909,417.629691 L633.125902,418.863191 L634.638213,419.102792 L635.015554,418.178406 L636.804974,418.339619 L636.613356,417.350157 L638.079973,417.403402 L638.965839,419.114624 L638.280435,421.208911 L639.147139,421.760584 L639.107342,422.769273 L640.494363,424.12849 L641.044161,423.684785 L641.633755,424.773341 L644.276614,425.153448 L642.591847,426.281938 L642.65965,427.63228 L641.918235,427.682566 L642.305894,428.843594 L641.55416,429.418931 L639.144191,427.919209 L637.875088,429.244407 L636.924367,428.606951 L636.27876,429.056572 L634.958068,427.975411 L632.114747,428.093733 L630.533159,429.061009 L628.493161,427.904419 L626.831977,428.42799 L627.350821,430.275282 L626.737642,430.810686 L627.048653,432.409503 L626.54455,433.397486 L627.076659,433.892956 L625.337354,436.151414 L625.462643,436.947125 L623.617211,437.173415 L623.142588,438.136254 L623.80883,438.763357 L623.105738,439.656683 L621.633225,438.642078 L621.213139,439.3313 L621.205769,437.880385 L620.107648,436.481235 L617.382246,437.272509 L618.492158,439.823812 L617.626928,440.189129 L617.273171,441.712516 L616.851611,441.159364 L616.341611,442.591052 L615.250861,442.929747 L615.071034,444.559623 L613.399533,446.41283 L617.634298,451.865964 L619.245366,453.39083 L621.563947,454.130338 L623.347472,456.008689 L626.908625,456.217231 L629.386397,457.327972 L630.198564,458.938621 L630.602436,457.919578 L631.162551,457.943243 L632.505354,458.614716 L634.748762,458.460899 L635.742229,459.658902 L635.658212,462.287114 L634.655901,463.34609 L634.986074,464.934554 L634.507028,465.12091 L634.669167,465.745055 L635.460698,465.711037 L635.509339,469.132002 L636.482171,468.66907 L636.860985,469.457386 L635.749599,469.680717 L635.643472,471.874099 L634.735496,471.878536 L633.395642,473.388612 L630.845644,473.668146 L631.640123,475.113145 L630.338593,476.172121 L630.931135,476.845073 L630.403448,480.990756 L631.352696,481.175633 L630.995991,482.379553 L632.974081,482.134036 L633.414804,483.99316 L635.997229,486.408393 L637.71295,485.935108 L637.48006,487.732113 L636.688529,487.683306 L636.445321,488.481974 L636.597142,490.401738 L635.708327,490.920873 L636.095986,492.144019 L634.592519,492.592161 L635.300033,494.059346 L637.656938,495.303198 L638.19347,495.27066 L638.309915,494.117027 L639.385925,495.001479 L641.259363,494.821039 L641.434767,495.547236 L643.765141,495.412646 L643.371586,496.450915 L642.742194,496.163986 L641.484883,498.299686 L639.918035,499.305417 L640.021214,502.372897 L639.198729,502.436495 L639.853179,502.866889 L639.652717,504.017563 L640.699248,504.17286 L641.269681,505.239231 L641.128178,506.617674 L642.261674,506.616195 L642.924968,507.778702 L642.644911,509.395267 L641.434767,510.480865 L642.672916,512.851729 L641.84601,515.250693 L642.621327,515.516916 L642.000778,516.87909 L639.881185,517.682196 L639.076388,518.948234 L639.548064,519.837123 L639.178093,522.929747 L640.108179,524.028656 L638.33792,523.75208 L637.748326,526.276761 L635.951535,527.91699 L635.789397,528.989277 L634.109051,528.863561 L632.178128,532.223886 L632.71466,534.334443 L631.54284,536.678684 L631.788996,538.725642 L630.904604,539.499168 L630.733621,538.917915 L629.747524,539.028841 L629.361339,540.713441 L628.31923,539.851174 L629.283218,538.156221 L626.01981,538.938621 L625.332932,539.645591 L625.122152,542.507488 L624.298193,542.544463 L623.97539,540.577371 L622.747559,540.904234 L621.056896,542.222037 L621.482878,543.940654 L619.770105,543.653725 L618.105974,539.840821 L618.534904,538.292291 L617.808228,537.19486 L619.478256,535.091699 L619.976463,533.339065 L619.332331,530.292291 L618.175251,529.230357 L615.216959,528.795526 L616.306236,525.711777 L614.583145,528.526345 L612.599158,527.674432 L611.791413,526.377334 L611.411124,522.335182 L610.700663,521.373821 L609.478727,521.156406 L611.284362,523.658902 L611.215084,527.190793 L613.333204,529.147532 L617.249587,529.702163 L618.894557,532.546312 L614.987017,535.405251 L614.704012,535.498429 L612.460603,540.559623 L610.883437,542.457201 L609.670346,542.689407 L606.580869,545.955075 L605.457691,545.799778 L603.49434,547.197449 L597.085444,548.814014 L596.364664,547.613052 L596.740531,545.551303 L595.879723,544.826585 L595.901832,543.770568 L593.633366,543.798669 L593.077673,542.948234 L590.309525,542.014975 L589.459035,537.354594 L587.380713,536.723054 L587.099182,538.145868 L585.100455,538.897208 L585.134357,540.475319 L583.145948,540.311148 L582.149533,538.911999 L583.272711,536.199482 L582.756816,534.469033 L580.893696,533.072842 L577.028902,532.682381 L575.743585,530.727121 L573.433847,531.07469 L573.659367,528.689037 L575.025754,528.81919 L575.302863,528.737844 L576.047227,528.742281 L576.34792,527.933259 L576.409827,527.070993 L576.548382,527.557589 L578.687137,527.464411 L578.703351,526.066741 L576.944885,525.052135 L577.400347,522.673877 L574.879829,521.702163 L574.359511,520.022 L575.712631,520.060455 L576.001533,519.249954 L574.807603,516.797744 L571.466075,516.685339 L570.422492,513.431503 L567.996309,511.854872 L566.988102,512.493807 L564.19637,509.989832 L564.710792,507.185617 L565.643826,505.978739 L564.710792,505.083934 L565.87082,504.212793 L566.30712,504.720096 L567.350703,504.384359 L568.027263,502.948234 L567.162032,503.650767 L566.702148,502.859493 L564.199318,502.696802 L563.484435,503.384544 L560.560044,502.080052 L557.912764,502.794417 L555.986262,501.155666 L555.570598,499.743206 L552.837826,498.888334 L552.497335,497.718432 L548.734246,498.188759 L546.96104,496.019042 L546.160665,495.99242 L546,493.714735 L547.59338,491.682566 L547.232253,490.302644 L548.140229,490.110372 L547.126126,488.78961 L547.223409,486.767794 L549.626008,487.291366 L552.814242,485.980958 L551.688116,484.033093 L552.80245,482.951932 L555.824124,483.491773 L555.847708,486.671658 L558.175133,487.245517 L558.723456,486.784064 L558.28863,487.925864 L558.860537,488.465705 L559.949814,487.742466 L560.613108,488.450915 L561.05383,488.17286 L560.61753,487.655204 L562.834406,486.347754 L562.271343,485.884822 L562.402528,484.318543 L563.110042,482.931226 L564.921572,482.098539 L564.928942,481.409318 L567.669084,481.431503 L569.611799,480.013126 L572.766131,479.227769 L573.933529,479.252912 L574.132517,479.79719 L575.796649,479.468848 L576.651561,476.988538 L575.821707,474.62359 L576.682515,475.299501 L578.240519,474.193197 L578.364334,473.579405 L578.974565,472.989277 L580.251038,474.171011 L581.192915,473.48179 L586.045281,475.848216 L586.804384,475.870401 L587.349759,475.022925 L586.254587,473.428545 L588.25184,473.855981 L588.033689,474.30856 L588.959353,474.647255 L589.703717,474.802551 L589.873225,472.079682 L590.558629,473.22592 L591.302993,472.363653 L591.218976,470.439453 L590.282994,470.087447 L589.556318,467.55685 L592.470391,467.899982 L591.947125,468.796265 L592.33331,469.080237 L593.22065,468.635053 L596.346977,469.57127 L595.602613,468.664633 L597.110502,468.485672 L597.968362,467.602699 L597.372872,467.191533 L597.446571,465.06027 L599.995095,466.071917 L599.779892,465.347199 L600.964978,464.597338 L599.785788,463.698096 L603.49434,463.894805 L603.587201,462.6687 L601.895064,461.810871 L601.83463,460.766685 L603.242288,460.633574 L604.135524,459.092439 L605.5535,458.701978 L607.211735,455.220373 L606.431996,454.952671 L607.609712,452.250508 L607.108556,451.701793 L606.753325,452.364393 L607.098238,450.53337 L605.958846,449.293955 L608.389451,450.333703 L609.596646,449.938806 L610.295316,448.884267 L609.14708,448.311888 L610.037369,448.249769 L609.512629,447.773526 L610.402917,446.692365 L609.576011,446.167314 L610.013785,444.558144 L608.130029,443.994639 L607.462313,443.052505 L608.062226,442.311518 L607.991474,443.144204 L608.585491,443.108708 L609.267947,442.111851 L608.990838,441.117952 L609.941559,441.066186 L609.64971,440.101867 L612.254245,438.625809 L612.041991,437.500277 L609.279739,434.156221 L606.179944,432.00721 L606.520435,427.610094 L608.03422,428.333333 L607.606764,427.139767 L608.645925,425.660751 L606.408412,423.798669 L606.558759,422.442411 L605.845349,422.247181 L605.640465,421.324274 L606.327343,419.973932 L607.170464,420.330375 L607.945781,419.293585 L608.859653,419.265483 L609.346069,417.539471 L609.956299,417.938806 L610.790576,416.85025 L612.641904,417.239231 L612.661066,417.996487 L613.203493,418.289333 L613.303724,417.731743 L613.922798,418.558514 L615.243491,418.750786 L615.318664,417.952117 L614.17485,416.832501 L613.720862,415.118321 L614.746757,413.550564 L614.168954,413.414494 L614.569879,411.577556 L611.866586,410.412091 L610.983668,408.816232 L609.937137,408.869477 L610.308582,407.328342 L609.471357,406.856535 L610.320374,406.063783 L607.603816,405.389351 L607.015695,403.997597 L607.82344,403.198928 L608.199307,399.464411 L610.383755,397.870031 L610.945345,398.625809 L611.154651,398.094842 L612.087685,398.201331 L611.962396,395.778702 L613.474706,396.160288 L614.22644,394.897208 L615.225803,394.965243 L617.529645,392.319283 L619.68314,391.328342 L622.078369,388.846552 L621.32811,387.910335 L620.40392,388.110002 L620.182822,387.471067 L621.338427,386.515622 L620.138602,385.643002 L620.053111,384.641708 L619.050799,384.788131 L618.595337,384.149196 L620.272735,382.711592 L620.206405,382.035681 L618.26369,382.538547 L617.557651,383.446663 L616.346033,382.599187 L616.348981,382.585875 L616.323923,382.469033 L618.101552,379.132372 L618.949094,374.474949 L618.50395,371.238861 L617.357188,370.094102 L617.656408,369.332409 L616.866351,368.305972 L617.312969,367.091699 L616.002594,366.44389 L615.523548,365.370124 L614.314879,365.327232 L613.803405,363.561287 L612.892481,362.944537 L613.750342,360.678684 L613.588203,359 Z" id="IN-WB"></path>
            </g>
        </g>
    </g>
</svg>